<svg width="96" height="96" viewBox="0 0 96 96" fill="none" xmlns="http://www.w3.org/2000/svg">
<path d="M48 0C21.5344 0 0 21.5344 0 48C0 74.4656 21.5344 96 48 96C74.4656 96 96 74.4656 96 48C96 21.5344 74.4656 0 48 0ZM48 94.3084C22.4648 94.3084 1.69163 73.5352 1.69163 48C1.69163 22.4648 22.4648 1.69163 48 1.69163C73.5352 1.69163 94.3084 22.4648 94.3084 48C94.3084 73.5352 73.5352 94.3084 48 94.3084Z" fill="url(#paint0_linear_3_2038)"/>
<path d="M13.0933 58.5562L10.3951 59.5796L11.2156 61.7364L12.4335 61.2712L12.1206 60.4423L12.8987 60.1463C13.0087 60.2224 13.1102 60.3831 13.1694 60.5354C13.55 61.5503 13.144 62.2439 12.0783 62.6414C11.0549 63.0305 10.226 62.6922 9.93838 61.931C9.76076 61.4742 9.81151 61.1782 9.94684 60.806L8.71195 60.3408C8.46667 60.8906 8.34825 61.6349 8.65274 62.43C9.24481 63.9778 10.818 64.8744 12.7127 64.1554C14.6411 63.4196 15.1148 61.7872 14.5312 60.2393C14.2267 59.4443 13.6008 58.8437 13.0933 58.5562Z" fill="url(#paint1_linear_3_2038)"/>
<path d="M10.412 58.0145C12.3659 57.6423 13.3132 56.3059 13.0002 54.665C12.6873 53.0157 11.3255 52.1191 9.37169 52.4913C7.42631 52.8635 6.52975 54.1829 6.8427 55.8323C7.14719 57.4731 8.45821 58.3782 10.412 58.0145ZM8.18754 55.5701C8.06067 54.8596 8.59354 54.3013 9.67618 54.0983C10.7504 53.8953 11.5116 54.2083 11.6469 54.9188C11.7823 55.6293 11.1902 56.196 10.1075 56.399C9.03336 56.6104 8.32288 56.289 8.18754 55.5701Z" fill="url(#paint2_linear_3_2038)"/>
<path d="M9.26172 51.1212C11.2494 51.0874 12.4082 49.9286 12.3743 48.2623C12.3489 46.5792 11.1563 45.4711 9.16868 45.4965C7.18102 45.5304 6.073 46.6891 6.10683 48.3638C6.13221 50.0385 7.2656 51.155 9.26172 51.1212ZM9.19406 47.1374C10.2936 47.1205 10.9872 47.5519 10.9956 48.2793C11.0126 49.0067 10.3274 49.4634 9.23635 49.4803C8.13679 49.4972 7.49397 49.0659 7.48551 48.3385C7.46859 47.6111 8.0945 47.1543 9.19406 47.1374Z" fill="url(#paint3_linear_3_2038)"/>
<path d="M12.6872 42.4936C12.9748 40.7681 12.2812 39.3641 10.1751 39.0173C8.06059 38.662 7.01178 39.77 6.70729 41.5885L6.41125 43.3478L12.3743 44.3459L12.6872 42.4936ZM11.3846 42.4597L11.3677 42.5528L7.94218 41.9776L7.95064 41.8846C8.10288 41.0218 8.50888 40.3959 9.90447 40.6328C11.2916 40.8611 11.5284 41.597 11.3846 42.4597Z" fill="url(#paint4_linear_3_2038)"/>
<path d="M14.1759 31.6673L15.8083 32.3863L16.4088 31.016L10.8603 28.6055L10.2005 30.1195L12.1375 31.9634L12.9071 32.6569L12.8902 32.6908L11.8583 32.6062L9.17711 32.4793L8.50891 33.9933L14.0575 36.4123L14.6411 35.059L13.0086 34.3486C12.442 34.1033 11.5285 33.8495 10.9449 33.6719L10.9618 33.6381L12.4504 33.7565L14.6495 33.8072L14.8948 33.2575L13.3554 31.6758L12.2643 30.6523L12.2728 30.6185C12.7972 30.9315 13.6092 31.422 14.1759 31.6673Z" fill="url(#paint5_linear_3_2038)"/>
<path d="M17.6099 29.1551L16.7048 28.1909L17.6522 26.7868L18.8786 27.252L19.8174 25.8395L13.7699 24.021L12.6957 25.628L16.7048 30.5084L17.6099 29.1551ZM15.8421 27.2689L15.5461 26.9475C15.157 26.5077 14.6326 25.9748 14.1928 25.5265L14.2181 25.5012C14.8018 25.7126 15.4953 25.9917 16.0536 26.1947L16.4596 26.3385L15.8421 27.2689Z" fill="url(#paint6_linear_3_2038)"/>
<path d="M21.2723 24.2582L20.0036 23.0656C19.4538 22.5496 18.7264 22.0506 18.1766 21.6361L18.202 21.6023L19.5806 22.1098L22.4733 22.981L23.5898 21.7884L19.1831 17.6523L18.1343 18.7688L19.4115 19.9614C19.9528 20.4689 20.7056 21.0018 21.2384 21.3908L21.2131 21.4162L19.8259 20.9087L16.9417 20.0375L15.8168 21.2386L20.2319 25.3746L21.2723 24.2582Z" fill="url(#paint7_linear_3_2038)"/>
<path d="M26.6599 19.4704C28.0132 18.4554 28.0555 17.212 26.8206 15.5627L24.9429 13.0591L23.708 13.981L25.6957 16.6369C26.347 17.4996 26.3385 17.9902 25.831 18.3708C25.3235 18.7514 24.8668 18.6076 24.224 17.7449L22.2279 15.089L20.9507 16.0533L22.8284 18.5569C24.0717 20.2062 25.3066 20.4938 26.6599 19.4704Z" fill="url(#paint8_linear_3_2038)"/>
<path d="M31.1514 16.4759L30.1195 14.522L31.8957 13.5832L31.2698 12.399L29.4936 13.3294L28.9607 12.3145L31.0329 11.2234L30.407 10.0308L26.9138 11.8746L29.7388 17.2202L31.1514 16.4759Z" fill="url(#paint9_linear_3_2038)"/>
<path d="M34.7376 14.7848L34.5854 13.4738L36.1755 12.8986L36.8945 14.0067L38.4846 13.4315L34.6953 8.37354L32.8768 9.02481L33.1982 15.3431L34.7376 14.7848ZM34.1709 9.82834C34.5177 10.3443 34.9068 10.9871 35.2451 11.4777L35.4819 11.8329L34.4331 12.2135L34.3908 11.7906C34.3316 11.1901 34.2217 10.4627 34.1371 9.8368L34.1709 9.82834Z" fill="url(#paint10_linear_3_2038)"/>
<path d="M41.631 12.9415C42.3584 12.7977 42.9843 12.3663 43.3733 11.6812L42.3245 10.903C42.13 11.2329 41.834 11.4951 41.3772 11.5882C40.616 11.7404 39.9816 11.216 39.7617 10.108C39.5502 9.02534 40.0239 8.27256 40.7344 8.12877C41.115 8.05265 41.4026 8.14569 41.7494 8.34868L42.4091 7.20683C41.9101 6.86851 41.1996 6.63168 40.4468 6.78393C38.9159 7.08842 37.774 8.48401 38.1631 10.4801C38.5691 12.5016 40.0831 13.246 41.631 12.9415Z" fill="url(#paint11_linear_3_2038)"/>
<path d="M45.2849 7.63756L45.5048 12.3403L47.1034 12.2642L46.8835 7.56144L48.4821 7.48531L48.4144 6.14893L43.6187 6.3773L43.6863 7.71368L45.2849 7.63756Z" fill="url(#paint12_linear_3_2038)"/>
<path d="M52.0768 12.6029C53.7599 12.7974 54.648 11.9262 54.8764 9.87088L55.2317 6.76673L53.6923 6.59757L53.3201 9.87933C53.2017 10.9535 52.8634 11.3088 52.2375 11.2411C51.6031 11.165 51.3747 10.7505 51.4931 9.67634L51.8653 6.38612L50.2752 6.2085L49.9284 9.31264C49.6916 11.3595 50.3936 12.4168 52.0768 12.6029Z" fill="url(#paint13_linear_3_2038)"/>
<path d="M57.9552 11.5532L58.5473 11.7309L58.9786 13.9723L60.6872 14.4713L60.0867 11.8493C60.7379 11.7139 61.2708 11.2741 61.5161 10.4452C61.939 8.99888 60.9917 8.25457 59.7399 7.89087L57.5492 7.24805L55.8491 13.0588L57.3885 13.5071L57.9552 11.5532ZM58.7249 8.9143L59.2831 9.07501C59.8837 9.25263 60.1628 9.50637 60.019 10.0054C59.8667 10.5044 59.4692 10.6821 58.8602 10.5044L58.3104 10.3437L58.7249 8.9143Z" fill="url(#paint14_linear_3_2038)"/>
<path d="M62.971 15.5296L65.3731 9.9895L63.9098 9.34668L61.4993 14.8952L62.971 15.5296Z" fill="url(#paint15_linear_3_2038)"/>
<path d="M65.593 16.8743L66.498 15.3772C66.8871 14.7428 67.2254 13.9224 67.513 13.2965L67.5468 13.3134L67.3438 14.7682L67.0985 17.7793L68.5026 18.6251L71.6236 13.4403L70.3126 12.6537L69.4076 14.1508C69.027 14.7936 68.6633 15.6394 68.3926 16.2315L68.3588 16.2146L68.5702 14.7513L68.8155 11.7486L67.4115 10.9028L64.2904 16.0877L65.593 16.8743Z" fill="url(#paint16_linear_3_2038)"/>
<path d="M71.6067 21.3228C72.258 21.881 73.0869 22.1094 73.6705 22.1263L75.5567 19.9441L73.8143 18.4301L72.96 19.4197L73.6367 20.0033L73.0869 20.6377C72.96 20.6208 72.7909 20.5277 72.664 20.4178C71.852 19.7073 71.8858 18.9038 72.6302 18.041C73.3491 17.2121 74.2372 17.1191 74.8547 17.6604C75.2184 17.9734 75.3199 18.2609 75.3791 18.65L76.6816 18.4809C76.6393 17.8719 76.3856 17.1614 75.7428 16.6031C74.491 15.5205 72.6809 15.4782 71.353 17.0091C69.9997 18.5739 70.3549 20.2402 71.6067 21.3228Z" fill="url(#paint17_linear_3_2038)"/>
<path d="M75.506 25.0778L76.4533 26.3719L78.0011 25.23L78.441 25.8306C79.1853 26.854 80.3863 27.4038 81.5789 26.5241C82.8138 25.6191 82.5432 24.435 81.765 23.3862L80.3779 21.5L75.506 25.0778ZM80.657 25.2639C80.2256 25.5853 79.7943 25.5345 79.4136 25.027L79.0161 24.4857L80.3102 23.5384L80.7077 24.0797C81.0545 24.5534 81.0884 24.9509 80.657 25.2639Z" fill="url(#paint18_linear_3_2038)"/>
<path d="M79.5742 31.2442L81.3842 30.3223L81.6634 30.8636L80.327 32.716L81.139 34.3061L82.636 32.0731C83.1858 32.4538 83.8625 32.5468 84.6406 32.1577C85.9855 31.4726 85.8755 30.2716 85.2835 29.1128L84.2431 27.0659L78.8468 29.8148L79.5742 31.2442ZM83.8456 29.0705L84.1078 29.5864C84.3869 30.1531 84.3953 30.5253 83.9302 30.7621C83.465 30.999 83.0674 30.8213 82.7798 30.2631L82.5176 29.7472L83.8456 29.0705Z" fill="url(#paint19_linear_3_2038)"/>
<path d="M82.9575 35.7531L83.4819 37.3686L82.3486 38.0452L82.873 39.6523L88.0578 36.0407L87.4573 34.1968L81.139 34.3067L81.6465 35.863L82.9575 35.7531ZM84.6492 35.6177C85.2497 35.5839 85.9856 35.4993 86.6115 35.4317L86.6199 35.4655C86.0871 35.7954 85.4358 36.1675 84.9367 36.4805L84.5646 36.7088L84.2263 35.6516L84.6492 35.6177Z" fill="url(#paint20_linear_3_2038)"/>
<path d="M85.8417 39.4574C83.8033 39.7958 83.0083 41.2844 83.262 42.8407C83.3804 43.5766 83.7864 44.2194 84.4546 44.6254L85.275 43.6104C84.9536 43.3989 84.6999 43.1029 84.6238 42.6377C84.4969 41.868 85.0382 41.2506 86.1632 41.073C87.2458 40.8953 87.9817 41.3944 88.1001 42.1133C88.1677 42.4939 88.0578 42.7815 87.8463 43.1114L88.9628 43.8219C89.318 43.3313 89.5802 42.6208 89.4618 41.868C89.2081 40.3286 87.8463 39.136 85.8417 39.4574Z" fill="url(#paint21_linear_3_2038)"/>
<path d="M88.4299 46.6293L83.7188 46.7139L83.7441 48.3125L88.4553 48.2279L88.4807 49.835L89.8255 49.8096L89.7409 45.0054L88.4046 45.0307L88.4299 46.6293Z" fill="url(#paint22_linear_3_2038)"/>
<path d="M83.465 52.5081L89.4787 53.1255L89.6394 51.5354L83.6257 50.918L83.465 52.5081Z" fill="url(#paint23_linear_3_2038)"/>
<path d="M86.2647 54.3355C84.2517 53.8787 82.9576 54.9614 82.6108 56.5008C82.4501 57.2282 82.5854 57.9725 83.0506 58.6068L84.184 57.964C83.9726 57.6511 83.8457 57.2789 83.9472 56.8222C84.1248 56.0609 84.8522 55.6888 85.9602 55.9425C87.0344 56.1878 87.5334 56.9237 87.3727 57.6341C87.2881 58.0148 87.0852 58.2347 86.7637 58.4715L87.5334 59.5372C88.0409 59.2158 88.5484 58.666 88.7176 57.9217C89.0644 56.3993 88.2439 54.7837 86.2647 54.3355Z" fill="url(#paint24_linear_3_2038)"/>
<path d="M80.5215 62.9962L81.7648 63.4783L82.6445 61.2453L83.6425 61.6429L82.9236 63.4783L84.1754 63.9688L84.8944 62.1334L85.774 62.4718L84.9366 64.6201L86.18 65.1107L87.6094 61.4737L81.9763 59.2661L80.5215 62.9962Z" fill="url(#paint25_linear_3_2038)"/>
<path d="M28.8169 77.8826C27.5228 77.0114 25.7212 77.1975 24.5963 78.8807C23.446 80.5977 23.9873 82.1963 25.2983 83.0759C25.9158 83.4904 26.6685 83.6257 27.4213 83.4227L27.2352 82.1286C26.8631 82.2132 26.4655 82.1963 26.0849 81.9425C25.4336 81.5027 25.3491 80.6907 25.9834 79.7434C26.5924 78.8384 27.4636 78.6354 28.0726 79.0414C28.394 79.2528 28.5293 79.5235 28.6308 79.9041L29.908 79.5742C29.7896 78.9822 29.4513 78.3055 28.8169 77.8826Z" fill="url(#paint26_linear_3_2038)"/>
<path d="M29.1637 85.2154L32.8092 86.8563L33.3589 85.6298L31.1767 84.6487L31.6166 83.6676L33.4097 84.4711L33.9679 83.2531L32.1663 82.4411L32.5554 81.5784L34.6615 82.5257L35.2113 81.3077L31.6504 79.7007L29.1637 85.2154Z" fill="url(#paint27_linear_3_2038)"/>
<path d="M39.2627 82.5265L37.0466 81.9683L35.558 87.8298L37.1143 88.2273L37.6049 86.2565L38.2054 86.4088L38.7129 88.6333L40.4468 89.0731L39.7532 86.4765C40.396 86.3073 40.9205 85.859 41.1319 85.0217C41.4956 83.5584 40.5229 82.8479 39.2627 82.5265ZM39.6094 84.6326C39.4826 85.1401 39.0935 85.3261 38.476 85.1739L37.9178 85.0301L38.2815 83.5838L38.8482 83.7276C39.4572 83.8798 39.7448 84.1251 39.6094 84.6326Z" fill="url(#paint28_linear_3_2038)"/>
<path d="M42.646 84.6406L44.2446 84.7675L43.8724 89.4617L45.471 89.5886L45.8432 84.8943L47.4333 85.0212L47.5433 83.6848L42.756 83.3042L42.646 84.6406Z" fill="url(#paint29_linear_3_2038)"/>
<path d="M50.5246 83.5328L48.9277 83.6089L49.2156 89.6498L50.8124 89.5737L50.5246 83.5328Z" fill="url(#paint30_linear_3_2038)"/>
<path d="M56.2975 85.2411L54.3183 85.5794L54.1153 84.446L56.4244 84.0485L56.196 82.729L52.3137 83.3972L53.3456 89.3602L54.9188 89.0811L54.5467 86.8989L56.5259 86.5606L56.2975 85.2411Z" fill="url(#paint31_linear_3_2038)"/>
<path d="M57.6423 82.2982L59.4016 88.0836L60.941 87.6184L59.1733 81.833L57.6423 82.2982Z" fill="url(#paint32_linear_3_2038)"/>
<path d="M64.3074 84.8861L63.8591 83.8965L65.6607 83.0846L65.1109 81.8666L63.3093 82.6786L62.9203 81.8158L65.0263 80.8601L64.4681 79.6421L60.9072 81.2491L63.4024 86.7639L67.0478 85.1145L66.4981 83.8965L64.3074 84.8861Z" fill="url(#paint33_linear_3_2038)"/>
<path d="M67.6484 77.7048L66.1766 78.7113L69.5937 83.71L71.1416 82.6443C72.5879 81.6547 73.1123 80.1915 71.9113 78.4237C70.7017 76.6559 69.1708 76.6644 67.6484 77.7048ZM70.2619 81.6885L70.1858 81.7393L68.2235 78.872L68.2996 78.8212C69.0186 78.3222 69.7544 78.1784 70.558 79.3456C71.353 80.5129 70.9893 81.198 70.2619 81.6885Z" fill="url(#paint34_linear_3_2038)"/>
<path d="M20.494 71.5393L18.8954 71.2941L18.1765 69.7631C18.1257 69.6532 17.9397 69.6532 17.8804 69.7631L17.1615 71.2856L15.5629 71.5309C15.4276 71.5478 15.3768 71.7085 15.4699 71.8015L16.6286 72.9941L16.358 74.6773C16.3326 74.8126 16.4764 74.9141 16.5948 74.8465L18.0242 74.0599L19.4537 74.8465C19.5721 74.9141 19.7159 74.8126 19.6905 74.6773L19.4198 72.9941L20.5786 71.8015C20.6801 71.7254 20.6293 71.5647 20.494 71.5393Z" fill="url(#paint35_linear_3_2038)"/>
<path d="M80.547 71.5393L78.9484 71.2941L78.2295 69.7631C78.1787 69.6532 77.9926 69.6532 77.9334 69.7631L77.2145 71.2856L75.6159 71.5309C75.4806 71.5478 75.4298 71.7085 75.5229 71.8015L76.6816 72.9941L76.411 74.6773C76.3856 74.8126 76.5294 74.9141 76.6478 74.8465L78.0772 74.0599L79.5066 74.8465C79.6251 74.9141 79.7688 74.8126 79.7435 74.6773L79.4728 72.9941L80.6316 71.8015C80.7331 71.7254 80.6823 71.5647 80.547 71.5393Z" fill="url(#paint36_linear_3_2038)"/>
<path d="M79.5066 48.0003C79.5066 30.6018 65.3984 16.4937 48 16.4937C30.6016 16.4937 16.4934 30.6018 16.4934 48.0003C16.4934 65.3987 30.6016 79.5069 48 79.5069C65.3984 79.5069 79.5066 65.3987 79.5066 48.0003ZM38.5692 55.2489C37.6642 56.1201 36.6069 56.8475 35.3974 57.4226C34.1794 58.0063 32.7838 58.2938 31.2275 58.2938C29.908 58.2938 28.6816 58.0485 27.5651 57.5495C26.4487 57.0589 25.476 56.3654 24.6555 55.4688C23.8351 54.5807 23.1923 53.515 22.7355 52.2716C22.2788 51.0367 22.0504 49.675 22.0504 48.1863V48.1271C22.0504 46.7146 22.2788 45.3867 22.7355 44.1518C23.1923 42.9169 23.8266 41.8343 24.6301 40.9123C25.4337 39.9904 26.3979 39.2715 27.5059 38.7555C28.6139 38.2311 29.8235 37.9689 31.126 37.9689C32.6316 37.9689 33.9172 38.2142 35.0083 38.7132C36.0909 39.2038 37.089 39.8974 37.994 40.7855L35.2367 44.6424C34.6277 44.0418 34.0018 43.5936 33.3759 43.2722C32.75 42.9592 32.0057 42.7985 31.1514 42.7985C30.5424 42.7985 29.9757 42.9423 29.4513 43.2214C28.9269 43.5005 28.4701 43.8727 28.0895 44.3463C27.7005 44.82 27.396 45.3867 27.1676 46.038C26.9392 46.6892 26.8293 47.3828 26.8293 48.1271V48.1863C26.8293 48.9899 26.9392 49.7173 27.1676 50.377C27.396 51.0367 27.7089 51.6119 28.1234 52.094C28.5294 52.5761 29.0199 52.9567 29.5697 53.2274C30.1279 53.4981 30.7454 53.6334 31.422 53.6334C31.9972 53.6334 32.5131 53.5573 32.953 53.4219C33.3928 53.2781 33.7903 53.0836 34.1286 52.8214V50.4447H30.8131V46.4863H38.5692V55.2489ZM57.9468 57.9048H53.2779V46.6808L48.9558 54.327H48.8627L44.5575 46.7062V57.9048H39.9732V38.358H44.9212L48.9558 45.928L52.9903 38.358H57.9468V57.9048ZM66.7602 52.3139H64.4173V57.9048H59.7315V38.358H67.0055C68.0627 38.358 69.027 38.5102 69.8897 38.8232C70.7524 39.1277 71.4883 39.5759 72.0973 40.1596C72.7147 40.7432 73.1799 41.4621 73.5098 42.3079C73.8481 43.1537 74.0088 44.118 74.0088 45.2006V45.2514C74.0088 46.4101 73.8312 47.4251 73.4675 48.3132C73.1038 49.1929 72.5963 49.9372 71.9535 50.5293C71.3107 51.1298 70.5494 51.5781 69.6613 51.8741C68.7732 52.1701 67.809 52.3139 66.7602 52.3139Z" fill="url(#paint37_linear_3_2038)"/>
<path d="M66.6417 42.9077H64.4172V48.0756H66.6671C67.4875 48.0756 68.1388 47.8388 68.6209 47.3736C69.103 46.9084 69.3483 46.291 69.3483 45.5044V45.4536C69.3483 44.6163 69.103 43.9819 68.6209 43.5505C68.1388 43.1276 67.4791 42.9077 66.6417 42.9077Z" fill="url(#paint38_linear_3_2038)"/>
<defs>
<linearGradient id="paint0_linear_3_2038" x1="48" y1="0" x2="48" y2="96" gradientUnits="userSpaceOnUse">
<stop stop-color="#8C068F"/>
<stop offset="1" stop-color="#2063CD"/>
</linearGradient>
<linearGradient id="paint1_linear_3_2038" x1="11.618" y1="58.5562" x2="11.618" y2="64.4073" gradientUnits="userSpaceOnUse">
<stop stop-color="#8C068F"/>
<stop offset="1" stop-color="#2063CD"/>
</linearGradient>
<linearGradient id="paint2_linear_3_2038" x1="9.92031" y1="52.4077" x2="9.92031" y2="58.0943" gradientUnits="userSpaceOnUse">
<stop stop-color="#8C068F"/>
<stop offset="1" stop-color="#2063CD"/>
</linearGradient>
<linearGradient id="paint3_linear_3_2038" x1="9.24056" y1="45.4961" x2="9.24056" y2="51.1219" gradientUnits="userSpaceOnUse">
<stop stop-color="#8C068F"/>
<stop offset="1" stop-color="#2063CD"/>
</linearGradient>
<linearGradient id="paint4_linear_3_2038" x1="9.58019" y1="38.9512" x2="9.58019" y2="44.3459" gradientUnits="userSpaceOnUse">
<stop stop-color="#8C068F"/>
<stop offset="1" stop-color="#2063CD"/>
</linearGradient>
<linearGradient id="paint5_linear_3_2038" x1="12.4589" y1="28.6055" x2="12.4589" y2="36.4123" gradientUnits="userSpaceOnUse">
<stop stop-color="#8C068F"/>
<stop offset="1" stop-color="#2063CD"/>
</linearGradient>
<linearGradient id="paint6_linear_3_2038" x1="16.2566" y1="24.021" x2="16.2566" y2="30.5084" gradientUnits="userSpaceOnUse">
<stop stop-color="#8C068F"/>
<stop offset="1" stop-color="#2063CD"/>
</linearGradient>
<linearGradient id="paint7_linear_3_2038" x1="19.7033" y1="17.6523" x2="19.7033" y2="25.3746" gradientUnits="userSpaceOnUse">
<stop stop-color="#8C068F"/>
<stop offset="1" stop-color="#2063CD"/>
</linearGradient>
<linearGradient id="paint8_linear_3_2038" x1="24.3315" y1="13.0591" x2="24.3315" y2="20.0666" gradientUnits="userSpaceOnUse">
<stop stop-color="#8C068F"/>
<stop offset="1" stop-color="#2063CD"/>
</linearGradient>
<linearGradient id="paint9_linear_3_2038" x1="29.4047" y1="10.0308" x2="29.4047" y2="17.2202" gradientUnits="userSpaceOnUse">
<stop stop-color="#8C068F"/>
<stop offset="1" stop-color="#2063CD"/>
</linearGradient>
<linearGradient id="paint10_linear_3_2038" x1="35.6807" y1="8.37354" x2="35.6807" y2="15.3431" gradientUnits="userSpaceOnUse">
<stop stop-color="#8C068F"/>
<stop offset="1" stop-color="#2063CD"/>
</linearGradient>
<linearGradient id="paint11_linear_3_2038" x1="40.7299" y1="6.73682" x2="40.7299" y2="13.0071" gradientUnits="userSpaceOnUse">
<stop stop-color="#8C068F"/>
<stop offset="1" stop-color="#2063CD"/>
</linearGradient>
<linearGradient id="paint12_linear_3_2038" x1="46.0504" y1="6.14893" x2="46.0504" y2="12.3403" gradientUnits="userSpaceOnUse">
<stop stop-color="#8C068F"/>
<stop offset="1" stop-color="#2063CD"/>
</linearGradient>
<linearGradient id="paint13_linear_3_2038" x1="52.5577" y1="6.2085" x2="52.5577" y2="12.6294" gradientUnits="userSpaceOnUse">
<stop stop-color="#8C068F"/>
<stop offset="1" stop-color="#2063CD"/>
</linearGradient>
<linearGradient id="paint14_linear_3_2038" x1="58.7337" y1="7.24805" x2="58.7337" y2="14.4713" gradientUnits="userSpaceOnUse">
<stop stop-color="#8C068F"/>
<stop offset="1" stop-color="#2063CD"/>
</linearGradient>
<linearGradient id="paint15_linear_3_2038" x1="63.4362" y1="9.34668" x2="63.4362" y2="15.5296" gradientUnits="userSpaceOnUse">
<stop stop-color="#8C068F"/>
<stop offset="1" stop-color="#2063CD"/>
</linearGradient>
<linearGradient id="paint16_linear_3_2038" x1="67.957" y1="10.9028" x2="67.957" y2="18.6251" gradientUnits="userSpaceOnUse">
<stop stop-color="#8C068F"/>
<stop offset="1" stop-color="#2063CD"/>
</linearGradient>
<linearGradient id="paint17_linear_3_2038" x1="73.5857" y1="15.8213" x2="73.5857" y2="22.1263" gradientUnits="userSpaceOnUse">
<stop stop-color="#8C068F"/>
<stop offset="1" stop-color="#2063CD"/>
</linearGradient>
<linearGradient id="paint18_linear_3_2038" x1="78.9666" y1="21.5" x2="78.9666" y2="26.9634" gradientUnits="userSpaceOnUse">
<stop stop-color="#8C068F"/>
<stop offset="1" stop-color="#2063CD"/>
</linearGradient>
<linearGradient id="paint19_linear_3_2038" x1="82.2746" y1="27.0659" x2="82.2746" y2="34.3061" gradientUnits="userSpaceOnUse">
<stop stop-color="#8C068F"/>
<stop offset="1" stop-color="#2063CD"/>
</linearGradient>
<linearGradient id="paint20_linear_3_2038" x1="84.5984" y1="34.1968" x2="84.5984" y2="39.6523" gradientUnits="userSpaceOnUse">
<stop stop-color="#8C068F"/>
<stop offset="1" stop-color="#2063CD"/>
</linearGradient>
<linearGradient id="paint21_linear_3_2038" x1="86.3535" y1="39.4048" x2="86.3535" y2="44.6254" gradientUnits="userSpaceOnUse">
<stop stop-color="#8C068F"/>
<stop offset="1" stop-color="#2063CD"/>
</linearGradient>
<linearGradient id="paint22_linear_3_2038" x1="86.7721" y1="45.0054" x2="86.7721" y2="49.835" gradientUnits="userSpaceOnUse">
<stop stop-color="#8C068F"/>
<stop offset="1" stop-color="#2063CD"/>
</linearGradient>
<linearGradient id="paint23_linear_3_2038" x1="86.5522" y1="50.918" x2="86.5522" y2="53.1255" gradientUnits="userSpaceOnUse">
<stop stop-color="#8C068F"/>
<stop offset="1" stop-color="#2063CD"/>
</linearGradient>
<linearGradient id="paint24_linear_3_2038" x1="85.6704" y1="54.23" x2="85.6704" y2="59.5372" gradientUnits="userSpaceOnUse">
<stop stop-color="#8C068F"/>
<stop offset="1" stop-color="#2063CD"/>
</linearGradient>
<linearGradient id="paint25_linear_3_2038" x1="84.0655" y1="59.2661" x2="84.0655" y2="65.1107" gradientUnits="userSpaceOnUse">
<stop stop-color="#8C068F"/>
<stop offset="1" stop-color="#2063CD"/>
</linearGradient>
<linearGradient id="paint26_linear_3_2038" x1="26.9376" y1="77.3716" x2="26.9376" y2="83.5157" gradientUnits="userSpaceOnUse">
<stop stop-color="#8C068F"/>
<stop offset="1" stop-color="#2063CD"/>
</linearGradient>
<linearGradient id="paint27_linear_3_2038" x1="32.1875" y1="79.7007" x2="32.1875" y2="86.8563" gradientUnits="userSpaceOnUse">
<stop stop-color="#8C068F"/>
<stop offset="1" stop-color="#2063CD"/>
</linearGradient>
<linearGradient id="paint28_linear_3_2038" x1="38.3835" y1="81.9683" x2="38.3835" y2="89.0731" gradientUnits="userSpaceOnUse">
<stop stop-color="#8C068F"/>
<stop offset="1" stop-color="#2063CD"/>
</linearGradient>
<linearGradient id="paint29_linear_3_2038" x1="45.0946" y1="83.3042" x2="45.0946" y2="89.5886" gradientUnits="userSpaceOnUse">
<stop stop-color="#8C068F"/>
<stop offset="1" stop-color="#2063CD"/>
</linearGradient>
<linearGradient id="paint30_linear_3_2038" x1="49.7262" y1="83.5708" x2="50.014" y2="89.6118" gradientUnits="userSpaceOnUse">
<stop stop-color="#8C068F"/>
<stop offset="1" stop-color="#2063CD"/>
</linearGradient>
<linearGradient id="paint31_linear_3_2038" x1="54.4198" y1="82.729" x2="54.4198" y2="89.3602" gradientUnits="userSpaceOnUse">
<stop stop-color="#8C068F"/>
<stop offset="1" stop-color="#2063CD"/>
</linearGradient>
<linearGradient id="paint32_linear_3_2038" x1="59.2917" y1="81.833" x2="59.2917" y2="88.0836" gradientUnits="userSpaceOnUse">
<stop stop-color="#8C068F"/>
<stop offset="1" stop-color="#2063CD"/>
</linearGradient>
<linearGradient id="paint33_linear_3_2038" x1="63.9775" y1="79.6421" x2="63.9775" y2="86.7639" gradientUnits="userSpaceOnUse">
<stop stop-color="#8C068F"/>
<stop offset="1" stop-color="#2063CD"/>
</linearGradient>
<linearGradient id="paint34_linear_3_2038" x1="69.3769" y1="76.9941" x2="69.3769" y2="83.71" gradientUnits="userSpaceOnUse">
<stop stop-color="#8C068F"/>
<stop offset="1" stop-color="#2063CD"/>
</linearGradient>
<linearGradient id="paint35_linear_3_2038" x1="18.0273" y1="69.6807" x2="18.0273" y2="74.868" gradientUnits="userSpaceOnUse">
<stop stop-color="#8C068F"/>
<stop offset="1" stop-color="#2063CD"/>
</linearGradient>
<linearGradient id="paint36_linear_3_2038" x1="78.0803" y1="69.6807" x2="78.0803" y2="74.868" gradientUnits="userSpaceOnUse">
<stop stop-color="#8C068F"/>
<stop offset="1" stop-color="#2063CD"/>
</linearGradient>
<linearGradient id="paint37_linear_3_2038" x1="48" y1="16.4937" x2="48" y2="79.5069" gradientUnits="userSpaceOnUse">
<stop stop-color="#8C068F"/>
<stop offset="1" stop-color="#2063CD"/>
</linearGradient>
<linearGradient id="paint38_linear_3_2038" x1="66.8828" y1="42.9077" x2="66.8828" y2="48.0756" gradientUnits="userSpaceOnUse">
<stop stop-color="#8C068F"/>
<stop offset="1" stop-color="#2063CD"/>
</linearGradient>
</defs>
</svg>
