<svg width="97" height="96" viewBox="0 0 97 96" fill="none" xmlns="http://www.w3.org/2000/svg">
<path d="M48.5646 0C22.099 0 0.564575 21.5344 0.564575 48C0.564575 74.4656 22.099 96 48.5646 96C75.0301 96 96.5646 74.4656 96.5646 48C96.5646 21.5344 75.0301 0 48.5646 0ZM48.5646 94.3084C23.0294 94.3084 2.25621 73.5352 2.25621 48C2.25621 22.4648 23.0294 1.69163 48.5646 1.69163C74.0997 1.69163 94.8729 22.4648 94.8729 48C94.8729 73.5352 74.0997 94.3084 48.5646 94.3084Z" fill="url(#paint0_linear_3_2099)"/>
<path d="M47.2367 15.5876L46.966 17.2707C46.9407 17.4061 47.0845 17.5076 47.2029 17.4399L48.6323 16.6533L50.0617 17.4399C50.1801 17.5076 50.3239 17.4061 50.2986 17.2707L50.0279 15.5876L51.1867 14.395C51.2797 14.3019 51.229 14.1412 51.0936 14.1243L49.495 13.879L48.7761 12.3481C48.7253 12.2381 48.5393 12.2381 48.48 12.3481L47.7611 13.8706L46.1625 14.1158C46.0272 14.1328 45.9764 14.2935 46.0695 14.3865L47.2367 15.5876Z" fill="url(#paint1_linear_3_2099)"/>
<path d="M40.6055 16.8053L40.4279 17.9048C40.4109 17.9894 40.504 18.0571 40.5801 18.0148L41.5105 17.4988L42.4409 18.0148C42.517 18.0571 42.6101 17.9894 42.5931 17.9048L42.4155 16.8053L43.1683 16.0271C43.2275 15.9679 43.1937 15.8579 43.1091 15.8495L42.0687 15.6888L41.6035 14.6992C41.5697 14.6231 41.4428 14.6231 41.409 14.6992L40.9438 15.6888L39.9034 15.8495C39.8189 15.8664 39.785 15.9679 39.8442 16.0271L40.6055 16.8053Z" fill="url(#paint2_linear_3_2099)"/>
<path d="M54.8491 16.8053L54.6715 17.9048C54.6546 17.9894 54.7476 18.0571 54.8238 18.0148L55.7542 17.4988L56.6846 18.0148C56.7607 18.0571 56.8537 17.9894 56.8368 17.9048L56.6592 16.8053L57.412 16.0271C57.4712 15.9679 57.4373 15.8579 57.3527 15.8495L56.3124 15.6888L55.8472 14.6992C55.8134 14.6231 55.6865 14.6231 55.6527 14.6992L55.1875 15.6888L54.1471 15.8495C54.0625 15.8664 54.0287 15.9679 54.0879 16.0271L54.8491 16.8053Z" fill="url(#paint3_linear_3_2099)"/>
<path d="M64.8296 43.8047L78.1935 66.3034L80.0712 63.1992L68.1114 43.8047H64.8296Z" fill="url(#paint4_linear_3_2099)"/>
<path d="M55.3143 53.8107C55.3143 53.8107 53.5635 43.8047 42.4326 43.8047H17.0581V69.3906H19.9423V46.7904H43.3291C45.6213 46.7904 52.5908 49.0826 52.5908 56.3989C52.5908 63.7152 46.0696 66.3034 43.0331 66.3034H36.1651V54.1575H33.1793V69.3821H42.6017C48.6831 69.3821 52.2356 65.1023 54.1302 62.1166C56.0248 59.1309 64.8297 43.8047 64.8297 43.8047H61.5649L55.3143 53.8107Z" fill="url(#paint5_linear_3_2099)"/>
<path d="M60.5498 69.3815H76.3243L78.1935 66.3027H60.5498V69.3815Z" fill="url(#paint6_linear_3_2099)"/>
<path d="M23.926 50.8838H42.7031C45.5197 50.8838 48.5054 53.1675 48.5054 56.5C48.5054 59.8326 45.4859 62.1247 43.329 62.1247H40.4025V54.1571H37.3238V65.1104H43.329C47.1437 65.1104 51.5419 61.8033 51.5419 56.6015C51.5419 51.4421 47.5412 47.8896 42.7539 47.8896H20.9403V57.2444H32.0882V54.1571H23.926V50.8838Z" fill="url(#paint7_linear_3_2099)"/>
<path d="M20.9403 69.3904H23.926V61.5243H32.0882V58.5386H20.9403V69.3904Z" fill="url(#paint8_linear_3_2099)"/>
<path d="M70.598 62.124H60.5497V65.1098H76.0705L64.8296 46.7979L51.1443 69.3896H55.3226L64.8296 52.7186L70.598 62.124Z" fill="url(#paint9_linear_3_2099)"/>
<path d="M37.882 29.8994C39.7343 29.8994 40.5802 28.8421 40.5802 26.5922V23.1836H38.897V26.7952C38.897 27.9709 38.5756 28.3938 37.882 28.3938C37.1969 28.3938 36.8924 27.9709 36.8924 26.7952V23.1836H35.15V26.5922C35.15 28.8421 36.0381 29.8994 37.882 29.8994Z" fill="url(#paint10_linear_3_2099)"/>
<path d="M41.7474 25.1123C41.7474 26.0681 42.3648 26.6601 43.0753 26.9477L43.8957 27.2945C44.454 27.5144 44.7838 27.6159 44.7838 27.9289C44.7838 28.2249 44.5639 28.3941 44.0395 28.3941C43.5489 28.3941 42.9569 28.1319 42.4917 27.7597L41.5021 28.9523C42.2126 29.5951 43.1599 29.8996 43.9972 29.8996C45.6381 29.8996 46.5685 28.9016 46.5685 27.7935C46.5685 26.8801 46.1033 26.3049 45.2829 25.9835L44.4793 25.6705C43.8873 25.4337 43.5067 25.3238 43.5067 25.0108C43.5067 24.7148 43.7689 24.5625 44.2002 24.5625C44.6823 24.5625 45.0714 24.7232 45.5197 25.0362L46.3909 23.9451C45.7819 23.3445 44.953 23.0654 44.2002 23.0654C42.7623 23.0654 41.7474 23.9874 41.7474 25.1123Z" fill="url(#paint11_linear_3_2099)"/>
<path d="M49.3767 23.1836H47.6343V29.781H49.3767V23.1836Z" fill="url(#paint12_linear_3_2099)"/>
<path d="M50.8401 29.781H52.4979V27.8694C52.4979 27.0574 52.3626 26.1017 52.278 25.3573H52.3203L52.9462 26.8291L54.4094 29.781H56.1941V23.1836H54.5278V25.0867C54.5278 25.8987 54.6716 26.8967 54.7562 27.6072H54.7139L54.088 26.127L52.6248 23.1836H50.8401V29.781Z" fill="url(#paint13_linear_3_2099)"/>
<path d="M62.0216 28.3177H59.3996V27.142H61.5564V25.6787H59.3996V24.6469H61.9201V23.1836H57.6572V29.781H62.0216V28.3177Z" fill="url(#paint14_linear_3_2099)"/>
<path d="M22.6742 38.5258H24.5181L24.8395 39.9299H26.6919L24.6788 33.3325H22.5727L20.5597 39.9299H22.3444L22.6742 38.5258ZM23.0971 36.7242C23.2578 36.0899 23.4185 35.3033 23.5623 34.6266H23.6046C23.7653 35.2864 23.926 36.0899 24.0952 36.7242L24.2052 37.181H22.9872L23.0971 36.7242Z" fill="url(#paint15_linear_3_2099)"/>
<path d="M29.0686 37.8323H29.8806C31.2592 37.8323 32.5111 37.1387 32.5111 35.5232C32.5111 33.8569 31.3015 33.3325 29.8806 33.3325H27.3177V39.9299H29.0686V37.8323ZM29.0686 34.7112H29.796C30.4473 34.7112 30.811 34.9396 30.811 35.5232C30.811 36.1153 30.4895 36.4536 29.796 36.4536H29.0686V34.7112Z" fill="url(#paint16_linear_3_2099)"/>
<path d="M35.3361 37.8323H36.1481C37.5268 37.8323 38.7871 37.1387 38.7871 35.5232C38.7871 33.8569 37.5691 33.3325 36.1481 33.3325H33.5938V39.9299H35.3361V37.8323ZM35.3361 34.7112H36.072C36.7148 34.7112 37.087 34.9396 37.087 35.5232C37.087 36.1153 36.7571 36.4536 36.072 36.4536H35.3361V34.7112Z" fill="url(#paint17_linear_3_2099)"/>
<path d="M44.9954 35.464C44.9954 33.8231 43.7859 33.3325 42.3649 33.3325H39.8698V39.9299H41.6121V37.7138H42.2803L43.4137 39.9299H45.3675L43.9381 37.3671C44.5725 37.0287 44.9954 36.4028 44.9954 35.464ZM42.238 36.3352H41.6121V34.7112H42.238C42.9316 34.7112 43.2953 34.8973 43.2953 35.464C43.2953 36.0307 42.9316 36.3352 42.238 36.3352Z" fill="url(#paint18_linear_3_2099)"/>
<path d="M45.9767 36.5976C45.9767 38.7714 47.2116 40.0485 49.0385 40.0485C50.8655 40.0485 52.1004 38.7714 52.1004 36.5976C52.1004 34.4408 50.8655 33.2144 49.0385 33.2144C47.2116 33.2144 45.9767 34.4323 45.9767 36.5976ZM49.0385 34.7114C49.8336 34.7114 50.3157 35.405 50.3157 36.5976C50.3157 37.7987 49.8336 38.543 49.0385 38.543C48.2519 38.543 47.7614 37.7987 47.7614 36.5976C47.7614 35.405 48.2519 34.7114 49.0385 34.7114Z" fill="url(#paint19_linear_3_2099)"/>
<path d="M53.2419 33.3325V36.7412C53.2419 38.991 54.1385 40.0483 55.9824 40.0483C57.8263 40.0483 58.6805 38.991 58.6805 36.7412V33.3325H56.9974V36.9442C56.9974 38.1198 56.676 38.5427 55.9824 38.5427C55.2888 38.5427 54.9843 38.1198 54.9843 36.9442V33.3325H53.2419Z" fill="url(#paint20_linear_3_2099)"/>
<path d="M61.0153 33.3325H59.1714L61.1168 39.9299H63.2313L65.1767 33.3325H63.392L62.7238 36.2167C62.5462 36.9103 62.4193 37.5954 62.2332 38.3059H62.191C62.0133 37.5954 61.8865 36.9103 61.7088 36.2167L61.0153 33.3325Z" fill="url(#paint21_linear_3_2099)"/>
<path d="M69.7862 31.5649H67.9592L67.1726 32.8252H68.5513L69.7862 31.5649Z" fill="url(#paint22_linear_3_2099)"/>
<path d="M70.167 38.4666H67.5534V37.2909H69.7018V35.8277H67.5534V34.7958H70.0739V33.3325H65.811V39.9299H70.167V38.4666Z" fill="url(#paint23_linear_3_2099)"/>
<path d="M75.8166 38.4666H73.1945V37.2909H75.3514V35.8277H73.1945V34.7958H75.7151V33.3325H71.4521V39.9299H75.8166V38.4666Z" fill="url(#paint24_linear_3_2099)"/>
<path d="M48.5646 5.92041C25.3639 5.92041 6.48535 24.799 6.48535 47.9997C6.48535 71.2004 25.3639 90.079 48.5646 90.079C71.7654 90.079 90.6439 71.2004 90.6439 47.9997C90.6439 24.799 71.7654 5.92041 48.5646 5.92041ZM48.5646 89.4446C25.7107 89.4446 7.11971 70.8536 7.11971 47.9997C7.11971 25.1458 25.7107 6.55477 48.5646 6.55477C71.4186 6.55477 90.0096 25.1458 90.0096 47.9997C90.0096 70.8536 71.4186 89.4446 48.5646 89.4446Z" fill="url(#paint25_linear_3_2099)"/>
<defs>
<linearGradient id="paint0_linear_3_2099" x1="48.5646" y1="0" x2="48.5646" y2="96" gradientUnits="userSpaceOnUse">
<stop stop-color="#8C068F"/>
<stop offset="1" stop-color="#2063CD"/>
</linearGradient>
<linearGradient id="paint1_linear_3_2099" x1="48.6281" y1="12.2656" x2="48.6281" y2="17.4614" gradientUnits="userSpaceOnUse">
<stop stop-color="#8C068F"/>
<stop offset="1" stop-color="#2063CD"/>
</linearGradient>
<linearGradient id="paint2_linear_3_2099" x1="41.5063" y1="14.6421" x2="41.5063" y2="18.0277" gradientUnits="userSpaceOnUse">
<stop stop-color="#8C068F"/>
<stop offset="1" stop-color="#2063CD"/>
</linearGradient>
<linearGradient id="paint3_linear_3_2099" x1="55.7499" y1="14.6421" x2="55.7499" y2="18.0277" gradientUnits="userSpaceOnUse">
<stop stop-color="#8C068F"/>
<stop offset="1" stop-color="#2063CD"/>
</linearGradient>
<linearGradient id="paint4_linear_3_2099" x1="72.4504" y1="43.8047" x2="72.4504" y2="66.3034" gradientUnits="userSpaceOnUse">
<stop stop-color="#8C068F"/>
<stop offset="1" stop-color="#2063CD"/>
</linearGradient>
<linearGradient id="paint5_linear_3_2099" x1="40.9439" y1="43.8047" x2="40.9439" y2="69.3906" gradientUnits="userSpaceOnUse">
<stop stop-color="#8C068F"/>
<stop offset="1" stop-color="#2063CD"/>
</linearGradient>
<linearGradient id="paint6_linear_3_2099" x1="69.3717" y1="66.3027" x2="69.3717" y2="69.3815" gradientUnits="userSpaceOnUse">
<stop stop-color="#8C068F"/>
<stop offset="1" stop-color="#2063CD"/>
</linearGradient>
<linearGradient id="paint7_linear_3_2099" x1="36.2411" y1="47.8896" x2="36.2411" y2="65.1104" gradientUnits="userSpaceOnUse">
<stop stop-color="#8C068F"/>
<stop offset="1" stop-color="#2063CD"/>
</linearGradient>
<linearGradient id="paint8_linear_3_2099" x1="26.5142" y1="58.5386" x2="26.5142" y2="69.3904" gradientUnits="userSpaceOnUse">
<stop stop-color="#8C068F"/>
<stop offset="1" stop-color="#2063CD"/>
</linearGradient>
<linearGradient id="paint9_linear_3_2099" x1="63.6074" y1="46.7979" x2="63.6074" y2="69.3896" gradientUnits="userSpaceOnUse">
<stop stop-color="#8C068F"/>
<stop offset="1" stop-color="#2063CD"/>
</linearGradient>
<linearGradient id="paint10_linear_3_2099" x1="37.8651" y1="23.1836" x2="37.8651" y2="29.8994" gradientUnits="userSpaceOnUse">
<stop stop-color="#8C068F"/>
<stop offset="1" stop-color="#2063CD"/>
</linearGradient>
<linearGradient id="paint11_linear_3_2099" x1="44.0353" y1="23.0654" x2="44.0353" y2="29.8996" gradientUnits="userSpaceOnUse">
<stop stop-color="#8C068F"/>
<stop offset="1" stop-color="#2063CD"/>
</linearGradient>
<linearGradient id="paint12_linear_3_2099" x1="48.5055" y1="23.1836" x2="48.5055" y2="29.781" gradientUnits="userSpaceOnUse">
<stop stop-color="#8C068F"/>
<stop offset="1" stop-color="#2063CD"/>
</linearGradient>
<linearGradient id="paint13_linear_3_2099" x1="53.5171" y1="23.1836" x2="53.5171" y2="29.781" gradientUnits="userSpaceOnUse">
<stop stop-color="#8C068F"/>
<stop offset="1" stop-color="#2063CD"/>
</linearGradient>
<linearGradient id="paint14_linear_3_2099" x1="59.8394" y1="23.1836" x2="59.8394" y2="29.781" gradientUnits="userSpaceOnUse">
<stop stop-color="#8C068F"/>
<stop offset="1" stop-color="#2063CD"/>
</linearGradient>
<linearGradient id="paint15_linear_3_2099" x1="23.6258" y1="33.3325" x2="23.6258" y2="39.9299" gradientUnits="userSpaceOnUse">
<stop stop-color="#8C068F"/>
<stop offset="1" stop-color="#2063CD"/>
</linearGradient>
<linearGradient id="paint16_linear_3_2099" x1="29.9144" y1="33.3325" x2="29.9144" y2="39.9299" gradientUnits="userSpaceOnUse">
<stop stop-color="#8C068F"/>
<stop offset="1" stop-color="#2063CD"/>
</linearGradient>
<linearGradient id="paint17_linear_3_2099" x1="36.1904" y1="33.3325" x2="36.1904" y2="39.9299" gradientUnits="userSpaceOnUse">
<stop stop-color="#8C068F"/>
<stop offset="1" stop-color="#2063CD"/>
</linearGradient>
<linearGradient id="paint18_linear_3_2099" x1="42.6186" y1="33.3325" x2="42.6186" y2="39.9299" gradientUnits="userSpaceOnUse">
<stop stop-color="#8C068F"/>
<stop offset="1" stop-color="#2063CD"/>
</linearGradient>
<linearGradient id="paint19_linear_3_2099" x1="49.0385" y1="33.2144" x2="49.0385" y2="40.0485" gradientUnits="userSpaceOnUse">
<stop stop-color="#8C068F"/>
<stop offset="1" stop-color="#2063CD"/>
</linearGradient>
<linearGradient id="paint20_linear_3_2099" x1="55.9612" y1="33.3325" x2="55.9612" y2="40.0483" gradientUnits="userSpaceOnUse">
<stop stop-color="#8C068F"/>
<stop offset="1" stop-color="#2063CD"/>
</linearGradient>
<linearGradient id="paint21_linear_3_2099" x1="62.174" y1="33.3325" x2="62.174" y2="39.9299" gradientUnits="userSpaceOnUse">
<stop stop-color="#8C068F"/>
<stop offset="1" stop-color="#2063CD"/>
</linearGradient>
<linearGradient id="paint22_linear_3_2099" x1="68.4794" y1="31.5649" x2="68.4794" y2="32.8252" gradientUnits="userSpaceOnUse">
<stop stop-color="#8C068F"/>
<stop offset="1" stop-color="#2063CD"/>
</linearGradient>
<linearGradient id="paint23_linear_3_2099" x1="67.989" y1="33.3325" x2="67.989" y2="39.9299" gradientUnits="userSpaceOnUse">
<stop stop-color="#8C068F"/>
<stop offset="1" stop-color="#2063CD"/>
</linearGradient>
<linearGradient id="paint24_linear_3_2099" x1="73.6344" y1="33.3325" x2="73.6344" y2="39.9299" gradientUnits="userSpaceOnUse">
<stop stop-color="#8C068F"/>
<stop offset="1" stop-color="#2063CD"/>
</linearGradient>
<linearGradient id="paint25_linear_3_2099" x1="48.5646" y1="5.92041" x2="48.5646" y2="90.079" gradientUnits="userSpaceOnUse">
<stop stop-color="#8C068F"/>
<stop offset="1" stop-color="#2063CD"/>
</linearGradient>
</defs>
</svg>
