<svg width="96" height="96" viewBox="0 0 96 96" fill="none" xmlns="http://www.w3.org/2000/svg">
<path d="M48 0C21.5344 0 0 21.5344 0 48C0 74.474 21.5344 96 48 96C74.4656 96 96 74.474 96 48C96 21.5344 74.4656 0 48 0ZM48 94.3084C22.4648 94.3084 1.69163 73.5352 1.69163 48C1.69163 22.4733 22.4648 1.69163 48 1.69163C73.5352 1.69163 94.3084 22.4733 94.3084 48C94.3084 73.5352 73.5352 94.3084 48 94.3084Z" fill="url(#paint0_linear_3_2126)"/>
<path d="M12.366 51.0537L10.5813 51.1298C9.96387 51.1552 9.03347 51.3328 8.43294 51.4258V51.392L9.82007 50.8507L11.8247 49.9203L11.7993 49.3282L9.72704 48.5839L8.28914 48.1356V48.1018C8.89813 48.1525 9.83698 48.2371 10.4544 48.2117L12.2391 48.1356L12.1715 46.647L6.13232 46.9092L6.20844 48.567L8.75436 49.3705L9.75241 49.6581V49.6919L8.77973 50.0725L6.3184 51.1298L6.38606 52.7876L12.4252 52.5254L12.366 51.0537Z" fill="url(#paint1_linear_3_2126)"/>
<path d="M12.831 41.537L13.0762 39.8623L6.82566 40.7927L6.53809 42.7042L12.2473 45.4193L12.4842 43.8038L11.2662 43.3217L11.5115 41.647L12.831 41.537ZM10.0821 42.848L9.68452 42.6873C9.13474 42.4505 8.44116 42.1968 7.84909 41.9768L7.85756 41.943C8.475 41.8838 9.22776 41.8415 9.81983 41.7823L10.2427 41.7485L10.0821 42.848Z" fill="url(#paint2_linear_3_2126)"/>
<path d="M11.4863 35.9471L14.4804 35.5664L15.0133 34.0186L9.30406 32.0479L8.80504 33.4857L10.4544 34.0609C11.1564 34.2977 12.0614 34.4753 12.7042 34.6191L12.6873 34.653L11.2156 34.7545L8.22989 35.1351L7.69702 36.6829L13.4147 38.6537L13.9053 37.2158L12.256 36.6491C11.5539 36.4038 10.6827 36.2431 10.0061 36.0824L10.023 36.0486L11.4863 35.9471Z" fill="url(#paint3_linear_3_2126)"/>
<path d="M15.7913 26.4736L13.0847 24.9004L12.3065 26.2368L15.1738 27.903C16.1127 28.4444 16.2988 28.9011 15.9858 29.4424C15.6644 29.9922 15.1823 30.0345 14.2519 29.4932L11.3846 27.8354L10.5811 29.2225L13.2876 30.7873C15.0723 31.8276 16.3241 31.5992 17.1699 30.136C18.0242 28.6727 17.5759 27.5055 15.7913 26.4736Z" fill="url(#paint4_linear_3_2126)"/>
<path d="M18.8449 23.7082L20.139 22.1688L19.1156 21.3061L17.8215 22.8455L16.9418 22.1012L18.4558 20.308L17.4324 19.4453L14.8865 22.4564L19.5046 26.3556L20.5365 25.1376L18.8449 23.7082Z" fill="url(#paint5_linear_3_2126)"/>
<path d="M21.3315 15.8169L19.8767 17.0856L22.448 22.8625L23.6913 21.7883L23.0739 20.6211L24.3511 19.5131L25.4168 20.2828L26.694 19.1748L21.3315 15.8169ZM22.4734 19.4962L22.2788 19.1156C22.0082 18.5827 21.6445 17.9399 21.34 17.3901L21.3738 17.3647C21.8813 17.72 22.4734 18.1767 22.9639 18.515L23.3192 18.7688L22.4734 19.4962Z" fill="url(#paint6_linear_3_2126)"/>
<path d="M29.959 15.0979C29.8745 15.4701 29.6968 15.8253 29.2993 16.0621C28.6311 16.4681 27.8614 16.2059 27.2693 15.2332C26.6942 14.2944 26.8802 13.4147 27.5062 13.0426C27.836 12.8396 28.1321 12.8311 28.5296 12.8988L28.758 11.5962C28.1744 11.4524 27.4216 11.4778 26.7703 11.8753C25.4339 12.6873 24.8418 14.3959 25.8991 16.1298C26.9733 17.8975 28.648 18.0752 30.0013 17.2547C30.6357 16.8656 31.0755 16.2482 31.2024 15.4701L29.959 15.0979Z" fill="url(#paint7_linear_3_2126)"/>
<path d="M33.7142 10.1489L35.1943 9.55682L34.6953 8.31348L30.2463 10.0981L30.7369 11.3415L32.2255 10.7494L33.9764 15.1138L35.465 14.5218L33.7142 10.1489Z" fill="url(#paint8_linear_3_2126)"/>
<path d="M42.7135 9.62484L42.0961 6.56299L40.5821 6.87594L41.2334 10.1154C41.4533 11.1727 41.2334 11.6125 40.6159 11.7394C39.9985 11.8662 39.6432 11.5364 39.4318 10.4791L38.772 7.23964L37.2073 7.55259L37.8332 10.6144C38.2392 12.6444 39.2288 13.4225 40.8866 13.0927C42.5528 12.7544 43.1195 11.6548 42.7135 9.62484Z" fill="url(#paint9_linear_3_2126)"/>
<path d="M48.9389 9.90397C49.5225 9.5741 49.9031 8.99895 49.8862 8.13622C49.8693 6.63067 48.7444 6.1993 47.4418 6.22468L45.1497 6.25851L45.2512 12.3061L46.8498 12.2807L46.8159 10.2508L47.4333 10.2423L48.5075 12.2553L50.2922 12.2215L48.9389 9.90397ZM47.3742 8.97358L46.799 8.98203L46.7736 7.50186L47.3488 7.48494C47.9831 7.47648 48.3215 7.63719 48.3299 8.16159C48.3384 8.67754 48.0085 8.96512 47.3742 8.97358Z" fill="url(#paint10_linear_3_2126)"/>
<path d="M56.3653 8.37343L56.5767 7.05396L52.7198 6.43652L51.7725 12.408L55.7224 13.0423L55.9339 11.7144L53.5571 11.3422L53.7263 10.2765L55.6801 10.581L55.8916 9.26154L53.9377 8.94859L54.09 8.00973L56.3653 8.37343ZM54.9189 5.15088L54.0223 6.17432L55.2741 6.37731L56.5767 5.41308L54.9189 5.15088Z" fill="url(#paint11_linear_3_2126)"/>
<path d="M63.5546 9.19482L59.4778 14.0329L60.9833 14.6757L61.7615 13.6184L63.3178 14.2866L63.0894 15.5807L64.6457 16.2489L65.3308 9.96452L63.5546 9.19482ZM63.6138 12.6035L63.5462 13.0348L62.5143 12.595L62.7765 12.2482C63.1402 11.7746 63.5631 11.1656 63.9268 10.6496L63.9606 10.6665C63.8591 11.284 63.7068 12.0198 63.6138 12.6035Z" fill="url(#paint12_linear_3_2126)"/>
<path d="M71.4376 13.3973L69.5007 15.2919C69.0185 15.7402 68.5787 16.2054 68.0881 16.6621L68.0543 16.6452C68.2657 16.0024 68.511 15.4188 68.714 14.7844L69.6106 12.2216L68.1812 11.3081L66.4219 17.3641L68.0543 18.4045L72.8247 14.2769L71.4376 13.3973Z" fill="url(#paint13_linear_3_2126)"/>
<path d="M76.5631 19.3011L77.4597 18.3115L74.5585 15.6895L70.5071 20.1807L73.4759 22.862L74.3725 21.8639L72.5878 20.2569L73.3152 19.4533L74.7785 20.7728L75.675 19.7832L74.2118 18.4637L74.8461 17.7532L76.5631 19.3011Z" fill="url(#paint14_linear_3_2126)"/>
<path d="M81.2575 22.5074C80.2848 21.2894 78.517 20.9088 76.9269 22.1691C75.3114 23.4547 75.3368 25.1379 76.3179 26.3812C76.7831 26.9649 77.4513 27.3201 78.2379 27.3539L78.4493 26.0683C78.0687 26.0345 77.705 25.8991 77.409 25.5354C76.9269 24.9264 77.0961 24.1229 77.9842 23.4209C78.8469 22.7358 79.7434 22.8119 80.1917 23.3786C80.437 23.6831 80.4793 23.9876 80.4624 24.3767L81.7734 24.4528C81.8495 23.8523 81.7311 23.1079 81.2575 22.5074Z" fill="url(#paint15_linear_3_2126)"/>
<path d="M86.2646 30.9318C85.7149 29.7223 84.5645 29.2233 83.6257 29.6462C82.8306 30.0099 82.56 30.7542 82.5938 31.4478L82.6107 32.2682C82.6361 32.818 82.6784 33.1394 82.4162 33.2578C82.1709 33.3678 81.9425 33.2409 81.7395 32.8011C81.5535 32.3951 81.5534 31.803 81.6972 31.2702L80.3186 30.8895C80.0564 31.7269 80.1579 32.6404 80.4708 33.334C81.0883 34.7042 82.2724 35.1102 83.2028 34.6957C83.964 34.3489 84.2685 33.7484 84.2262 32.9364L84.1924 32.1498C84.1586 31.5577 84.1078 31.2025 84.37 31.0841C84.6153 30.9741 84.8437 31.1348 85.0044 31.4985C85.1905 31.9045 85.1989 32.2851 85.1059 32.7757L86.3492 33.0887C86.6199 32.3613 86.5438 31.5577 86.2646 30.9318Z" fill="url(#paint16_linear_3_2126)"/>
<path d="M88.6836 37.9767C88.2861 36.3527 86.9328 35.5154 84.9959 35.989C83.0674 36.4627 82.1962 37.8498 82.5938 39.4738C82.9998 41.0978 84.4038 41.9267 86.3407 41.4445C88.2607 40.9793 89.0896 39.6007 88.6836 37.9767ZM85.9516 39.8544C84.8859 40.1166 84.1078 39.8544 83.9302 39.1439C83.761 38.4419 84.3192 37.8414 85.3934 37.5792C86.4507 37.317 87.1781 37.6045 87.3473 38.3066C87.5249 39.0086 87.0174 39.5922 85.9516 39.8544Z" fill="url(#paint17_linear_3_2126)"/>
<path d="M89.5464 43.4404L83.5242 43.9733L83.6595 45.5719L89.6817 45.0306L89.5464 43.4404Z" fill="url(#paint18_linear_3_2126)"/>
<path d="M86.9919 50.782L89.7662 49.5979L89.8593 47.9654L83.8201 47.6187L83.7271 49.1411L85.4779 49.2426C86.2223 49.2849 87.1019 49.2003 87.7955 49.1665L87.787 49.2088L86.4083 49.7078L83.6341 50.892L83.541 52.5244L89.5801 52.8712L89.6647 51.3402L87.9139 51.2472C87.178 51.2049 86.2561 51.281 85.6048 51.3149V51.281L86.9919 50.782Z" fill="url(#paint19_linear_3_2126)"/>
<path d="M28.4112 77.7651L23.6577 81.935L25.0533 82.7977L25.9837 81.8589L27.4216 82.7554L26.9987 83.9988L28.4281 84.8954L30.0521 78.7886L28.4112 77.7651ZM27.9629 81.1399L27.8276 81.5544L26.8803 80.9623L27.1848 80.6578C27.6161 80.2518 28.1236 79.7105 28.555 79.2622L28.5888 79.2791C28.4027 79.8712 28.1405 80.5732 27.9629 81.1399Z" fill="url(#paint20_linear_3_2126)"/>
<path d="M36.8524 81.8492L35.7359 84.9703C35.3722 85.9852 34.9577 86.2474 34.3572 86.036C33.7651 85.8245 33.6383 85.3593 34.002 84.3444L35.1184 81.2318L33.6129 80.6904L32.5556 83.6254C31.8621 85.5708 32.3019 86.7549 33.892 87.3301C35.4906 87.9052 36.5479 87.254 37.2499 85.317L38.3072 82.3736L36.8524 81.8492Z" fill="url(#paint21_linear_3_2126)"/>
<path d="M45.7419 83.6342L44.0418 83.4143L43.5597 84.3362C43.4159 84.5984 43.2383 84.9198 43.0607 85.2835H43.0183C42.9084 84.8691 42.8238 84.5223 42.7308 84.2262L42.4601 83.1943L40.6839 82.9575L41.8258 86.0786L39.7874 88.9374L41.4874 89.1658L42.071 88.1593C42.2402 87.8632 42.4178 87.5672 42.5954 87.212L42.6293 87.2204C42.7308 87.6095 42.8154 87.9394 42.9169 88.2692L43.2552 89.4026L45.023 89.6395L43.805 86.4169L45.7419 83.6342Z" fill="url(#paint22_linear_3_2126)"/>
<path d="M56.983 85.7742L56.4586 82.687L54.9362 82.9492L55.4944 86.2141C55.672 87.2798 55.4436 87.7112 54.8177 87.8211C54.2003 87.9226 53.8535 87.5843 53.6759 86.5186L53.1176 83.2537L51.5444 83.5244L52.0688 86.6031C52.4156 88.6415 53.3798 89.462 55.0546 89.1744C56.7208 88.8953 57.3298 87.8042 56.983 85.7742Z" fill="url(#paint23_linear_3_2126)"/>
<path d="M64.7982 84.2098C64.4853 83.4316 63.9017 83.1017 63.0897 83.1017H62.3031C61.711 83.1102 61.3558 83.1356 61.2458 82.8734C61.1443 82.6196 61.3219 82.3997 61.6856 82.2559C62.1001 82.0952 62.4807 82.1037 62.9713 82.2221L63.3434 80.9872C62.6245 80.6827 61.8209 80.725 61.1781 80.9787C59.9517 81.4609 59.3935 82.5942 59.7741 83.55C60.0955 84.362 60.8313 84.6665 61.5249 84.6665L62.3454 84.6834C62.8951 84.6919 63.2165 84.658 63.318 84.9287C63.4195 85.1824 63.2842 85.4024 62.8359 85.58C62.4215 85.7407 61.8294 85.7153 61.305 85.5546L60.8652 86.9079C61.6856 87.2209 62.5991 87.1532 63.3096 86.8741C64.7136 86.3243 65.1704 85.1571 64.7982 84.2098Z" fill="url(#paint24_linear_3_2126)"/>
<path d="M68.122 77.4092L66.498 78.458L68.232 84.5309L69.6022 83.6428L69.1539 82.4079L70.5749 81.486L71.5222 82.4079L72.9432 81.486L68.122 77.4092ZM68.731 81.2153L68.5872 80.8094C68.4011 80.2427 68.1305 79.5491 67.9106 78.9655L67.9359 78.9486C68.3927 79.3715 68.9171 79.9043 69.3484 80.3103L69.6614 80.6064L68.731 81.2153Z" fill="url(#paint25_linear_3_2126)"/>
<path d="M13.22 64.0782L12.5011 62.5473C12.4503 62.4374 12.2642 62.4374 12.205 62.5473L11.4861 64.0698L9.88751 64.3151C9.75218 64.332 9.70142 64.4927 9.79446 64.5857L10.9532 65.7783L10.6826 67.4615C10.6572 67.5968 10.801 67.6983 10.9194 67.6307L12.3488 66.8441L13.7783 67.6307C13.8967 67.6983 14.0405 67.5968 14.0151 67.4615L13.7444 65.7783L14.9032 64.5857C14.9962 64.4927 14.9455 64.332 14.8102 64.3151L13.22 64.0782Z" fill="url(#paint26_linear_3_2126)"/>
<path d="M83.9813 63.9855L83.2623 62.4545C83.2116 62.3446 83.0255 62.3446 82.9663 62.4545L82.2473 63.977L80.6487 64.2223C80.5134 64.2392 80.4626 64.3999 80.5557 64.493L81.7144 65.6856L81.4438 67.3687C81.4184 67.5041 81.5622 67.6056 81.6806 67.5379L83.1101 66.7513L84.5395 67.5379C84.6579 67.6056 84.8017 67.5041 84.7763 67.3687L84.5057 65.6856L85.6644 64.493C85.7575 64.3999 85.7067 64.2392 85.5714 64.2223L83.9813 63.9855Z" fill="url(#paint27_linear_3_2126)"/>
<mask id="mask0_3_2126" style="mask-type:luminance" maskUnits="userSpaceOnUse" x="16" y="16" width="64" height="63">
<path d="M79.5061 47.56C78.7957 88.9796 17.1949 88.9711 16.4929 47.56C17.2034 6.14047 78.8041 6.14893 79.5061 47.56Z" fill="white"/>
</mask>
<g mask="url(#mask0_3_2126)">
<path d="M118.329 54.8241V59.8144H-2.02159V54.8241H118.329ZM-2.02159 69.5751H118.329V64.5848H-2.02159V69.5751ZM-2.02159 79.099V79.3273H118.329V79.099V74.337H-2.02159V79.099ZM46.0292 50.0621H-2.03003C-2.03003 38.8466 -2.03003 26.9883 -2.03003 15.7812C26.1864 15.7812 89.5971 15.7812 118.321 15.7812V16.0096V20.7716H46.0292V25.5335H118.321V30.5238H46.0292V35.2857H118.321V40.2761H46.0292V45.0549H118.321V50.0283H46.0292V50.0621ZM9.26161 39.9631C9.17702 40.1746 8.88098 41.1219 8.80486 41.3587L9.98899 40.496L11.1731 41.3587C11.097 41.1134 10.801 40.183 10.7164 39.9631L11.9005 39.1004H10.4457L9.98899 37.7048L9.54918 39.1004H8.07744L9.26161 39.9631ZM8.30583 25.542L9.26161 26.2271L8.80486 27.6227L9.98899 26.7599L11.1731 27.6227L10.7164 26.2271C10.8856 26.1002 11.7568 25.4827 11.9005 25.3643H10.4457L9.98899 23.9518L9.54918 25.3643H8.07744L8.30583 25.542ZM10.7164 19.359L11.9005 18.4794H10.4457L9.98899 17.0838L9.54918 18.4794H8.07744L9.26161 19.359L8.80486 20.7546L9.98899 19.875L11.1731 20.7546L10.7164 19.359ZM18.8447 19.359L20.0288 18.4794H18.574L18.1173 17.0838L17.6775 18.4794H16.2226L17.3899 19.359L16.9501 20.7546L18.1173 19.875L19.3014 20.7546L18.8447 19.359ZM26.8207 19.359L28.0048 18.4963H26.5501L26.0933 17.1007L25.6535 18.4963H24.1987L25.3659 19.359L24.9261 20.7546L26.0933 19.8919L27.2775 20.7546L26.8207 19.359ZM34.7968 19.359L35.9809 18.4963H34.5261L34.0693 17.1007L33.6295 18.4963H32.1747L33.342 19.359L32.9021 20.7546L34.0693 19.8919L35.2535 20.7546L34.7968 19.359ZM35.9809 25.3643H34.5261L34.0693 23.9687L33.6295 25.3643H32.1747C32.3185 25.4743 33.1728 26.1002 33.342 26.2271L32.9021 27.6227L34.0693 26.7599L35.2535 27.6227L34.7968 26.2271C34.9744 26.1002 35.8371 25.4827 35.9809 25.3643ZM34.247 45.0718L34.0778 44.5728C33.9848 44.8857 33.7395 45.6554 33.638 45.9684H32.1832L33.3504 46.8311L32.9106 48.2267L34.0778 47.364L35.262 48.2267L34.8052 46.8311L35.9893 45.9684H34.5345L34.247 45.0718ZM26.2625 45.0718H25.9411L25.6535 45.9684H24.1987L25.3659 46.8311L24.9261 48.2267L26.0933 47.364L27.2775 48.2267L26.8207 46.8311L28.0048 45.9684H26.5501L26.2625 45.0718ZM18.2864 45.0718L18.1173 44.5728C18.0243 44.8857 17.7789 45.6554 17.6775 45.9684H16.2226L17.3899 46.8311L16.9501 48.2267L18.1173 47.364L19.3014 48.2267L18.8447 46.8311L20.0288 45.9684H18.574L18.2864 45.0718ZM17.3899 39.9631C17.3307 40.183 17.0262 41.1303 16.9501 41.3587L18.1173 40.496L19.3014 41.3587C19.2253 41.1134 18.9293 40.183 18.8447 39.9631L20.0288 39.1004H18.574L18.1173 37.7048L17.6775 39.1004H16.2226L17.3899 39.9631ZM16.451 25.542L17.3899 26.2271L16.9501 27.6227L18.1173 26.7599L19.3014 27.6227L18.8447 26.2271C19.0138 26.1002 19.885 25.4827 20.0288 25.3643H18.574L18.1173 23.9518L17.6775 25.3643H16.2226L16.451 25.542ZM24.4271 25.542L25.3659 26.2271L24.9261 27.6227L26.0933 26.7599L27.2775 27.6227L26.8207 26.2271C26.9983 26.1002 27.8611 25.4827 28.0048 25.3643H26.5501L26.0933 23.9518L25.6535 25.3643H24.1987L24.4271 25.542ZM30.8383 43.4817L32.0225 42.619H30.5677L30.1109 41.2234L29.6711 42.619H28.2163L29.3835 43.4817L28.9437 44.8773L30.1109 44.0146L31.2951 44.8773L30.8383 43.4817ZM26.8207 39.9631L28.0048 39.1004H26.5501L26.0933 37.7048L25.6535 39.1004H24.1987L25.3659 39.9631C25.3067 40.183 25.0022 41.1303 24.9261 41.3587L26.0933 40.496L27.2775 41.3587C27.2013 41.1219 26.9053 40.183 26.8207 39.9631ZM22.82 43.4817L23.9872 42.619H22.5324L22.0757 41.2234L21.6359 42.619H20.1811L21.3483 43.4817L20.9085 44.8773L22.0757 44.0146L23.2598 44.8773L22.82 43.4817ZM26.8207 33.0951L28.0048 32.2324H26.5501L26.0933 30.8368L25.6535 32.2324H24.1987L25.3659 33.0951L24.9261 34.4907L26.0933 33.6279L27.2775 34.4907L26.8207 33.0951ZM21.3483 29.7457C21.2383 30.0924 21.01 30.8029 20.9085 31.1412C21.1538 30.9552 21.8304 30.4308 22.0757 30.2616C22.3125 30.4308 23.0145 30.9552 23.2598 31.1412C23.1583 30.8029 22.93 30.084 22.82 29.7457L23.9872 28.866H22.5324L22.0757 27.4704L21.6359 28.866H20.1811L21.3483 29.7457ZM16.2226 32.2324L17.3899 33.0951L16.9501 34.4907L18.1173 33.6279L19.3014 34.4907L18.8447 33.0951L20.0288 32.2324H18.574L18.1173 30.8368L17.6775 32.2324H16.2226ZM21.7712 35.2942L21.6359 35.7509H20.1811L21.3483 36.6137L20.9085 38.0093L22.0757 37.1465L23.2598 38.0093L22.82 36.6137L23.9872 35.7509H22.5324C22.4309 35.4549 22.1687 34.6429 22.0757 34.3384L21.7712 35.2942ZM12.1458 42.619L13.33 43.4817L12.8732 44.8773L14.0574 44.0146L15.2246 44.8773L14.7848 43.4817L15.952 42.619H14.4972L14.0574 41.2234L13.6006 42.619H12.1458ZM38.8736 43.4817L40.0577 42.619H38.6029L38.1462 41.2234L37.7063 42.619H36.2346L37.4188 43.4817L36.962 44.8773L38.1462 44.0146L39.3303 44.8773L38.8736 43.4817ZM34.7968 39.9631L35.9809 39.1004H34.5261L34.0693 37.7048L33.6295 39.1004H32.1747L33.342 39.9631C33.2828 40.183 32.9782 41.1303 32.9021 41.3587L34.0693 40.496L35.2535 41.3587C35.1774 41.1219 34.8813 40.183 34.7968 39.9631ZM30.4154 35.2942L30.1109 34.3384C30.0094 34.6429 29.7472 35.4549 29.6711 35.7509H28.2163L29.3835 36.6137L28.9437 38.0093L30.1109 37.1465L31.2951 38.0093L30.8383 36.6137L32.0225 35.7509H30.5677L30.4154 35.2942ZM34.7968 33.0951L35.9809 32.2324H34.5261L34.0693 30.8368L33.6295 32.2324H32.1747L33.342 33.0951L32.9021 34.4907L34.0693 33.6279L35.2535 34.4907L34.7968 33.0951ZM31.0836 30.5323L30.8383 29.7457L32.0225 28.866H30.5677L30.1109 27.4704L29.6711 28.866H28.2163L29.3835 29.7457C29.2736 30.0924 29.0452 30.8029 28.9437 31.1412C29.189 30.9552 29.8657 30.4308 30.1109 30.2616C30.3478 30.4308 31.0498 30.9552 31.2951 31.1412L31.0836 30.5323ZM30.0517 20.7716L29.6711 22.0149H28.1994L29.3835 22.8776L28.9268 24.2732L30.1109 23.4105L31.2951 24.2732L30.8383 22.8776L32.0225 22.0149H30.5677L30.1617 20.7716H30.0517ZM22.1349 20.7716L22.0757 20.6024C22.0503 20.6701 21.6697 21.8965 21.6359 21.998H20.1811L21.3483 22.8607L20.9085 24.2563L22.0757 23.3936L23.2598 24.2563L22.82 22.8607L23.9872 21.998H22.5324L22.1349 20.7716ZM14.1166 20.7716L14.0574 20.6024C14.032 20.6701 13.6344 21.8965 13.6006 21.998H12.1458L13.33 22.8607L12.8732 24.2563L14.0574 23.3936L15.2246 24.2563L14.7848 22.8607L15.952 21.998H14.4972L14.1166 20.7716ZM13.33 29.7457C13.22 30.0924 12.9916 30.8029 12.8732 31.1412C13.1185 30.9552 13.8205 30.4392 14.0574 30.2616C14.2942 30.4308 14.9793 30.9552 15.2246 31.1412C15.1231 30.8029 14.8947 30.084 14.7848 29.7457L15.952 28.866H14.4972L14.0574 27.4704L13.6006 28.866H12.1458L13.33 29.7457ZM8.069 32.2324L9.25314 33.0951L8.79639 34.4907L9.98053 33.6279L11.1647 34.4907L10.7079 33.0951L11.8921 32.2324H10.4373L9.98053 30.8368L9.54071 32.2324H8.069ZM13.7529 35.2942L13.6006 35.7509H12.1458L13.33 36.6137L12.8732 38.0093L14.0574 37.1465L15.2246 38.0093L14.7848 36.6137L15.952 35.7509H14.4972C14.4211 35.4549 14.1589 34.6345 14.0574 34.3384L13.7529 35.2942ZM4.11057 42.619L5.29473 43.4817L4.83798 44.8773L6.02212 44.0146L7.20626 44.8773L6.74953 43.4817L7.93367 42.619H6.46196L6.02212 41.2234L5.56537 42.619H4.11057ZM8.069 45.9684L9.25314 46.8311L8.79639 48.2267L9.98053 47.364L11.1647 48.2267L10.7079 46.8311L11.8921 45.9684H10.4373C10.3358 45.647 10.0905 44.8773 9.98053 44.5728C9.88749 44.8857 9.64221 45.6554 9.54071 45.9684H8.069ZM42.3753 45.0718L42.223 44.5728C42.1131 44.8773 41.8678 45.647 41.7663 45.9684H40.3115L41.4956 46.8311L41.0389 48.2267L42.223 47.364L43.3902 48.2267L42.9504 46.8311L44.1176 45.9684H42.6628L42.3753 45.0718ZM43.0435 40.293L42.9504 39.9716L44.1176 39.1088H42.6628L42.223 37.7132L41.7663 39.1088H40.3115L41.4956 39.9716C41.411 40.183 41.115 41.1303 41.0389 41.3672L42.223 40.5044L43.3902 41.3672L43.0435 40.293ZM38.4507 35.2942L38.1462 34.3384C38.0447 34.6429 37.7825 35.4549 37.7063 35.7509H36.2346L37.4188 36.6137L36.962 38.0093L38.1462 37.1465L39.3303 38.0093L38.8736 36.6137L40.0577 35.7509H38.6029L38.4507 35.2942ZM42.9504 33.0951L44.1176 32.2324H42.6628L42.223 30.8368L41.7663 32.2324H40.3115L41.4956 33.0951L41.0389 34.4907L42.223 33.6279L43.3902 34.4907L42.9504 33.0951ZM39.1189 30.5323L38.8736 29.7457L40.0577 28.866H38.6029L38.1462 27.4704L37.7063 28.866H36.2346L37.4188 29.7457C37.3088 30.0924 37.0805 30.8029 36.962 31.1412C37.2073 30.9552 37.9094 30.4392 38.1462 30.2616C38.383 30.4308 39.085 30.9552 39.3303 31.1412L39.1189 30.5323ZM42.9504 26.2271C43.1196 26.1002 43.9654 25.4827 44.1176 25.3643H42.6628L42.2061 23.9687L41.7663 25.3643H40.3115C40.4553 25.4743 41.3095 26.1002 41.4787 26.2271L41.0389 27.6227L42.2061 26.7599L43.3902 27.6227L42.9504 26.2271ZM38.2054 20.7716H38.087L37.6894 22.0149H36.2346L37.4188 22.8776L36.962 24.2732L38.1462 23.4105L39.3134 24.2732L38.8736 22.8776L40.0408 22.0149H38.586L38.2054 20.7716ZM42.9504 19.359L44.1176 18.4963H42.6628L42.2061 17.1007L41.7663 18.4963H40.3115L41.4787 19.359L41.0389 20.7546L42.2061 19.8919L43.3902 20.7546L42.9504 19.359ZM2.7911 19.359L3.95833 18.4794H2.50353L2.06371 17.0838L1.60696 18.4794H0.152162L1.3363 19.359L0.879576 20.7546L2.06371 19.875L3.23094 20.7546L2.7911 19.359ZM5.97137 20.7716L5.56537 21.998H4.11057L5.29473 22.8607L4.83798 24.2563L6.02212 23.3936L7.20626 24.2563L6.74953 22.8607L7.93367 21.998H6.46196C6.42813 21.888 6.04749 20.6701 6.02212 20.6024L5.97137 20.7716ZM0.380549 25.542L1.3363 26.2271L0.879576 27.6227L2.06371 26.7599L3.23094 27.6227L2.7911 26.2271C2.96026 26.1002 3.80608 25.4827 3.95833 25.3643H2.50353L2.06371 23.9518L1.60696 25.3643H0.152162L0.380549 25.542ZM5.29473 29.7457C5.18478 30.0924 4.9564 30.8029 4.83798 31.1412C5.08327 30.9552 5.78529 30.4392 6.02212 30.2616C6.25895 30.4308 6.96097 30.9552 7.20626 31.1412C7.08784 30.8029 6.85103 30.0924 6.74953 29.7457L7.93367 28.866H6.46196L6.02212 27.4704L5.56537 28.866H4.11057L5.29473 29.7457ZM2.7911 33.0951L3.95833 32.2324H2.50353L2.06371 30.8368L1.60696 32.2324H0.152162L1.3363 33.0951L0.879576 34.4907L2.06371 33.6279L3.23094 34.4907L2.7911 33.0951ZM5.71764 35.2942L5.56537 35.7509H4.11057L5.29473 36.6137L4.83798 38.0093L6.02212 37.1465L7.20626 38.0093L6.74953 36.6137L7.93367 35.7509H6.46196C6.38584 35.4549 6.12362 34.6345 6.02212 34.3384L5.71764 35.2942ZM1.3363 39.9631C1.25172 40.1746 0.9557 41.1219 0.879576 41.3587L2.06371 40.496L3.23094 41.3587C3.15482 41.1219 2.85031 40.183 2.7911 39.9631L3.95833 39.1004H2.50353L2.06371 37.7048L1.60696 39.1004H0.152162L1.3363 39.9631ZM1.89454 45.0718L1.60696 45.9684H0.152162L1.3363 46.8311L0.879576 48.2267L2.06371 47.364L3.23094 48.2267L2.7911 46.8311L3.95833 45.9684H2.50353C2.40203 45.647 2.15675 44.8857 2.06371 44.5728L1.89454 45.0718Z" fill="url(#paint28_linear_3_2126)"/>
</g>
<defs>
<linearGradient id="paint0_linear_3_2126" x1="48" y1="0" x2="48" y2="96" gradientUnits="userSpaceOnUse">
<stop stop-color="#8C068F"/>
<stop offset="1" stop-color="#2063CD"/>
</linearGradient>
<linearGradient id="paint1_linear_3_2126" x1="9.27876" y1="46.647" x2="9.27876" y2="52.7876" gradientUnits="userSpaceOnUse">
<stop stop-color="#8C068F"/>
<stop offset="1" stop-color="#2063CD"/>
</linearGradient>
<linearGradient id="paint2_linear_3_2126" x1="9.80715" y1="39.8623" x2="9.80715" y2="45.4193" gradientUnits="userSpaceOnUse">
<stop stop-color="#8C068F"/>
<stop offset="1" stop-color="#2063CD"/>
</linearGradient>
<linearGradient id="paint3_linear_3_2126" x1="11.3552" y1="32.0479" x2="11.3552" y2="38.6537" gradientUnits="userSpaceOnUse">
<stop stop-color="#8C068F"/>
<stop offset="1" stop-color="#2063CD"/>
</linearGradient>
<linearGradient id="paint4_linear_3_2126" x1="14.085" y1="24.9004" x2="14.085" y2="31.4294" gradientUnits="userSpaceOnUse">
<stop stop-color="#8C068F"/>
<stop offset="1" stop-color="#2063CD"/>
</linearGradient>
<linearGradient id="paint5_linear_3_2126" x1="17.7115" y1="19.4453" x2="17.7115" y2="26.3556" gradientUnits="userSpaceOnUse">
<stop stop-color="#8C068F"/>
<stop offset="1" stop-color="#2063CD"/>
</linearGradient>
<linearGradient id="paint6_linear_3_2126" x1="23.2853" y1="15.8169" x2="23.2853" y2="22.8625" gradientUnits="userSpaceOnUse">
<stop stop-color="#8C068F"/>
<stop offset="1" stop-color="#2063CD"/>
</linearGradient>
<linearGradient id="paint7_linear_3_2126" x1="28.2793" y1="11.5161" x2="28.2793" y2="17.7255" gradientUnits="userSpaceOnUse">
<stop stop-color="#8C068F"/>
<stop offset="1" stop-color="#2063CD"/>
</linearGradient>
<linearGradient id="paint8_linear_3_2126" x1="32.8557" y1="8.31348" x2="32.8557" y2="15.1138" gradientUnits="userSpaceOnUse">
<stop stop-color="#8C068F"/>
<stop offset="1" stop-color="#2063CD"/>
</linearGradient>
<linearGradient id="paint9_linear_3_2126" x1="40.0234" y1="6.56299" x2="40.0234" y2="13.1659" gradientUnits="userSpaceOnUse">
<stop stop-color="#8C068F"/>
<stop offset="1" stop-color="#2063CD"/>
</linearGradient>
<linearGradient id="paint10_linear_3_2126" x1="47.7209" y1="6.22363" x2="47.7209" y2="12.3061" gradientUnits="userSpaceOnUse">
<stop stop-color="#8C068F"/>
<stop offset="1" stop-color="#2063CD"/>
</linearGradient>
<linearGradient id="paint11_linear_3_2126" x1="54.1746" y1="5.15088" x2="54.1746" y2="13.0423" gradientUnits="userSpaceOnUse">
<stop stop-color="#8C068F"/>
<stop offset="1" stop-color="#2063CD"/>
</linearGradient>
<linearGradient id="paint12_linear_3_2126" x1="62.4043" y1="9.19482" x2="62.4043" y2="16.2489" gradientUnits="userSpaceOnUse">
<stop stop-color="#8C068F"/>
<stop offset="1" stop-color="#2063CD"/>
</linearGradient>
<linearGradient id="paint13_linear_3_2126" x1="69.6233" y1="11.3081" x2="69.6233" y2="18.4045" gradientUnits="userSpaceOnUse">
<stop stop-color="#8C068F"/>
<stop offset="1" stop-color="#2063CD"/>
</linearGradient>
<linearGradient id="paint14_linear_3_2126" x1="73.9834" y1="15.6895" x2="73.9834" y2="22.862" gradientUnits="userSpaceOnUse">
<stop stop-color="#8C068F"/>
<stop offset="1" stop-color="#2063CD"/>
</linearGradient>
<linearGradient id="paint15_linear_3_2126" x1="78.7154" y1="21.3896" x2="78.7154" y2="27.3539" gradientUnits="userSpaceOnUse">
<stop stop-color="#8C068F"/>
<stop offset="1" stop-color="#2063CD"/>
</linearGradient>
<linearGradient id="paint16_linear_3_2126" x1="83.3431" y1="29.498" x2="83.3431" y2="34.8505" gradientUnits="userSpaceOnUse">
<stop stop-color="#8C068F"/>
<stop offset="1" stop-color="#2063CD"/>
</linearGradient>
<linearGradient id="paint17_linear_3_2126" x1="85.6419" y1="35.8574" x2="85.6419" y2="41.5809" gradientUnits="userSpaceOnUse">
<stop stop-color="#8C068F"/>
<stop offset="1" stop-color="#2063CD"/>
</linearGradient>
<linearGradient id="paint18_linear_3_2126" x1="86.6029" y1="43.4404" x2="86.6029" y2="45.5719" gradientUnits="userSpaceOnUse">
<stop stop-color="#8C068F"/>
<stop offset="1" stop-color="#2063CD"/>
</linearGradient>
<linearGradient id="paint19_linear_3_2126" x1="86.7001" y1="47.6187" x2="86.7001" y2="52.8712" gradientUnits="userSpaceOnUse">
<stop stop-color="#8C068F"/>
<stop offset="1" stop-color="#2063CD"/>
</linearGradient>
<linearGradient id="paint20_linear_3_2126" x1="26.8549" y1="77.7651" x2="26.8549" y2="84.8954" gradientUnits="userSpaceOnUse">
<stop stop-color="#8C068F"/>
<stop offset="1" stop-color="#2063CD"/>
</linearGradient>
<linearGradient id="paint21_linear_3_2126" x1="35.2725" y1="80.6904" x2="35.2725" y2="87.5316" gradientUnits="userSpaceOnUse">
<stop stop-color="#8C068F"/>
<stop offset="1" stop-color="#2063CD"/>
</linearGradient>
<linearGradient id="paint22_linear_3_2126" x1="42.7646" y1="82.9575" x2="42.7646" y2="89.6395" gradientUnits="userSpaceOnUse">
<stop stop-color="#8C068F"/>
<stop offset="1" stop-color="#2063CD"/>
</linearGradient>
<linearGradient id="paint23_linear_3_2126" x1="54.3106" y1="82.687" x2="54.3106" y2="89.2302" gradientUnits="userSpaceOnUse">
<stop stop-color="#8C068F"/>
<stop offset="1" stop-color="#2063CD"/>
</linearGradient>
<linearGradient id="paint24_linear_3_2126" x1="62.2891" y1="80.7734" x2="62.2891" y2="87.1146" gradientUnits="userSpaceOnUse">
<stop stop-color="#8C068F"/>
<stop offset="1" stop-color="#2063CD"/>
</linearGradient>
<linearGradient id="paint25_linear_3_2126" x1="69.7206" y1="77.4092" x2="69.7206" y2="84.5309" gradientUnits="userSpaceOnUse">
<stop stop-color="#8C068F"/>
<stop offset="1" stop-color="#2063CD"/>
</linearGradient>
<linearGradient id="paint26_linear_3_2126" x1="12.3488" y1="62.4648" x2="12.3488" y2="67.6522" gradientUnits="userSpaceOnUse">
<stop stop-color="#8C068F"/>
<stop offset="1" stop-color="#2063CD"/>
</linearGradient>
<linearGradient id="paint27_linear_3_2126" x1="83.1101" y1="62.3721" x2="83.1101" y2="67.5594" gradientUnits="userSpaceOnUse">
<stop stop-color="#8C068F"/>
<stop offset="1" stop-color="#2063CD"/>
</linearGradient>
<linearGradient id="paint28_linear_3_2126" x1="58.1497" y1="15.7812" x2="58.1497" y2="79.3273" gradientUnits="userSpaceOnUse">
<stop stop-color="#8C068F"/>
<stop offset="1" stop-color="#2063CD"/>
</linearGradient>
</defs>
</svg>
