<svg width="96" height="96" viewBox="0 0 96 96" fill="none" xmlns="http://www.w3.org/2000/svg">
<path d="M96 47.0273C95.9154 42.5445 95.1542 38.0617 93.8855 33.748C87.6264 13.6176 69.1877 0 48.0423 0C26.8123 0 8.37357 13.6176 2.11454 33.748C0.845815 38.0617 0.0845815 42.5445 0 47.0273C0 47.4502 0 47.7885 0 48.2115C0 52.948 0.761234 57.6846 2.11454 62.1674C3.55242 66.904 5.75154 71.3868 8.62731 75.4467C17.593 88.3031 32.3101 96 47.9577 96C63.6053 96 78.3225 88.3031 87.2881 75.4467C90.1639 71.3868 92.2784 66.904 93.8009 62.1674C95.2388 57.6846 95.9154 52.948 95.9154 48.2115C96 47.8731 96 47.4502 96 47.0273ZM12.1797 64.1128C12.5181 64.1128 12.6026 63.7744 12.6026 63.1824C12.6026 62.0828 12.4335 61.6599 11.0802 60.3912C9.21938 58.6996 8.37357 57.7692 8.37357 55.57C8.37357 53.1172 9.30396 51.2564 12.2643 51.2564C15.4784 51.2564 16.0705 53.2018 16.0705 55.3163V56.2467H12.8564V55.0626C12.8564 54.3013 12.6872 54.0476 12.3489 54.0476C12.0952 54.0476 11.926 54.3013 11.926 54.978C11.926 55.7392 12.0952 56.0775 13.1947 57.0925C15.3093 58.9533 16.2396 59.8837 16.2396 62.3366C16.2396 65.1278 15.3938 66.904 12.1797 66.904C9.30396 66.904 8.20441 65.2969 8.20441 62.5903V61.7445H11.6722V63.0132C11.6722 63.859 11.8414 64.1128 12.1797 64.1128ZM41.7833 46.6044L37.3004 40.6837C37.2159 40.7683 37.0467 40.7683 36.9621 40.8529C36.793 40.9374 36.5392 40.8529 36.4546 40.6837C36.37 40.5145 36.4546 40.2608 36.6238 40.1762C38.5692 39.2458 40.6837 39.2458 42.4599 40.0916C42.2062 38.8229 42.3753 37.5542 42.8828 36.37C42.9674 36.2009 43.052 36.1163 43.2211 36.1163L43.5595 36.9621V37.0467C43.6441 37.2159 43.8132 37.3004 43.9824 37.3004C44.2361 37.3004 44.4053 37.0467 44.3207 36.8775L44.2361 35.6934C44.2361 35.6088 44.2361 35.6088 44.2361 35.5242L44.1515 35.2705L43.8132 34.6784C43.8132 34.6784 43.8132 34.5938 43.8978 34.5938C44.2361 34.1709 44.659 33.748 45.1665 33.4097C46.4352 32.4793 47.8731 31.9718 49.311 31.9718C49.6493 31.9718 49.9877 31.9718 50.4106 32.0564C51.0872 32.141 51.7639 32.3101 52.3559 32.6485C52.0176 30.7031 52.6097 28.6731 54.0476 27.0661C54.1322 26.9815 54.3013 26.8969 54.3859 26.8969C54.4705 26.8969 54.5551 26.9815 54.6396 27.0661C54.7242 27.2352 54.7242 27.4044 54.6396 27.5736C54.5551 27.6581 54.4705 27.7427 54.3859 27.8273L58.8687 33.748C58.8687 33.8326 58.9533 33.8326 58.9533 33.9172C59.1225 33.8326 59.207 33.8326 59.3762 33.748C59.5454 33.6634 59.7145 33.748 59.8837 33.8326L59.9683 33.9172C60.0529 34.0863 59.9683 34.3401 59.7991 34.4247C57.8537 35.3551 55.6546 35.3551 53.8784 34.4247C54.3013 36.793 53.2863 39.415 51.1718 41.022C49.0573 42.6291 46.1815 42.9674 44.067 41.7833C44.4053 43.4749 43.9824 45.4203 42.7982 46.9427C42.6291 47.1119 42.5445 47.2811 42.3753 47.4502L42.2907 47.5348C42.1216 47.704 41.8678 47.6194 41.6987 47.4502C41.6141 47.2811 41.6141 47.1119 41.6987 46.9427C41.7833 46.8582 41.8678 46.689 41.9524 46.6044C41.8678 46.689 41.7833 46.689 41.7833 46.6044ZM39.8379 25.459L40.3454 26.5586L40.43 26.8123C40.5145 26.8123 40.5991 26.8123 40.7683 26.8123C40.8529 26.8123 41.022 26.8123 41.1066 26.8969C41.1912 26.9815 41.3604 27.0661 41.4449 27.2352L41.6987 27.8273L41.1912 27.9965L41.3604 28.3348L41.8678 28.1656L42.1216 28.7577L41.2758 29.096L41.4449 29.4344L42.2907 29.096L42.5445 29.8573L42.037 30.0264L42.2062 30.4493L42.7137 30.2802L42.9674 30.8722L42.1216 31.2106L42.2907 31.6335L43.1366 31.2952C43.1366 31.3797 43.1366 31.5489 43.1366 31.6335C43.052 31.8026 43.052 31.8872 42.9674 31.9718C42.8828 32.0564 42.7982 32.141 42.7137 32.141L42.8828 32.5639C42.9674 32.733 42.9674 32.9022 42.8828 33.0714L44.067 35.778L44.1515 36.9621L42.2907 33.0714C42.1216 33.0714 42.037 32.9868 41.9524 32.8176L41.7833 32.3947C41.6141 32.3947 41.5295 32.4793 41.3604 32.3947C41.2758 32.3947 41.1066 32.3947 41.022 32.3101C40.9374 32.2256 40.7683 32.141 40.6837 31.9718L39.0767 28.0811C38.9921 27.9119 39.0767 27.7427 39.0767 27.5736C39.1612 27.489 39.1612 27.3198 39.2458 27.2352C39.3304 27.1507 39.415 27.0661 39.5841 26.9815L39.4996 26.8123L39.0767 25.7128L38.7383 25.8819C38.5692 25.9665 38.3154 25.8819 38.1463 25.7128C38.0617 25.5436 38.1463 25.2899 38.3154 25.1207L39.7533 24.5286C39.8379 24.5286 39.9225 24.4441 40.007 24.4441C40.1762 24.4441 40.2608 24.5286 40.3454 24.6978C40.43 24.867 40.3454 25.1207 40.1762 25.2053L39.8379 25.459ZM79.2529 58.1921H79.422C79.5912 56.0775 79.6758 54.6397 80.0141 51.5101H85.1736V66.7348H81.6211V63.0132C81.6211 60.9833 81.6211 57.5154 81.7057 55.4855H81.5366C81.2828 59.2071 80.7753 65.6352 80.6908 66.7348H78.0687C77.9841 65.2969 77.7304 62.1674 77.5612 59.3762C77.4767 57.8537 77.3075 56.5004 77.2229 55.4855H77.0537C77.0537 56.7542 77.1383 58.5304 77.1383 60.4758C77.1383 61.3216 77.1383 62.1674 77.1383 63.0132V66.8194H73.8397V66.3965V51.5101H78.6608C78.7454 52.1022 78.83 53.1172 78.9145 54.1322C79.0837 55.57 79.1683 57.0925 79.2529 58.1921ZM33.6634 52.0176V51.4256H37.0467V66.6502H32.9868C32.8176 65.3815 31.7181 58.3612 31.6335 57.8537H31.4643C31.5489 59.5454 31.8872 64.5357 31.8872 66.3119V66.6502H28.6731V51.4256H32.4793C32.8176 53.1172 34.0018 59.0379 34.0863 59.7145H34.2555C34.0018 57.3463 33.6634 53.4555 33.6634 52.0176ZM32.0564 75.193V74.6009C31.7181 74.6009 31.5489 74.5163 31.2952 74.5163V72.5709C31.8872 72.4864 32.4793 72.2326 32.733 71.8097H34.8476V76.6308V83.7357H32.0564V75.193ZM36.5392 77.3921V74.9392C36.5392 72.4863 37.9771 71.6405 39.7533 71.6405C41.6141 71.6405 43.1366 72.4863 43.1366 74.9392V79.1683V80.5216C43.1366 82.7207 42.1216 83.9048 39.7533 83.9048C37.3004 83.9048 36.5392 82.467 36.5392 80.5216V77.3921ZM42.9674 64.1128C43.3057 64.1128 43.3903 63.7744 43.3903 63.1824C43.3903 62.0828 43.2211 61.6599 41.8678 60.3912C40.007 58.6996 39.1612 57.7692 39.1612 55.57C39.1612 53.1172 40.0916 51.2564 43.052 51.2564C46.2661 51.2564 46.8582 53.2018 46.8582 55.3163V56.2467H43.6441V55.0626C43.6441 54.3013 43.4749 54.0476 43.1366 54.0476C42.8828 54.0476 42.7137 54.3013 42.7137 54.978C42.7137 55.7392 42.8828 56.0775 43.9824 57.0925C46.0969 58.9533 47.0273 59.8837 47.0273 62.3366C47.0273 65.1278 46.1815 66.904 42.9674 66.904C40.0916 66.904 38.9921 65.2969 38.9921 62.5903V61.7445H42.4599V63.0132C42.4599 63.859 42.6291 64.1128 42.9674 64.1128ZM44.5745 79.3374V74.9392C44.5745 72.4863 46.0123 71.6405 47.7885 71.6405C49.6493 71.6405 51.1718 72.4863 51.1718 74.9392V79.422V80.5216C51.1718 82.7207 50.1568 83.9048 47.7885 83.9048C45.3357 83.9048 44.5745 82.467 44.5745 80.5216V79.3374ZM71.5559 56.4159H67.8344V55.2317C67.8344 54.4705 67.8344 54.0476 67.3269 54.0476C66.904 54.0476 66.8194 54.3859 66.8194 55.2317V63.0978C66.8194 63.9436 67.1577 64.0282 67.3269 64.0282C67.6652 64.0282 67.9189 63.7745 67.9189 62.9286V60.7295H67.3269V57.7692H71.5559V66.7348H68.9339C68.8493 66.4811 68.8493 65.889 68.7648 65.5507C68.1727 66.8194 67.0731 66.9885 66.1427 66.9885C63.6053 66.9885 63.0978 64.9586 63.0978 62.7595V55.3163C63.0978 53.2863 64.1128 51.2564 67.2423 51.2564C71.0485 51.2564 71.4714 53.963 71.4714 55.4009V56.4159H71.5559ZM61.9982 79.7604V81.5366C61.9982 82.9745 61.3216 83.8203 59.8837 83.8203C58.4458 83.8203 57.7692 82.9744 57.7692 81.6211V79.7604C57.7692 78.7454 58.1921 77.6458 59.8837 77.6458C61.4062 77.6458 61.9982 78.6608 61.9982 79.7604ZM61.0678 62.6749C61.0678 65.8044 59.3762 66.904 56.7542 66.904C54.2167 66.904 52.6943 65.7198 52.6943 62.6749V55.2317C52.6943 52.4405 54.4705 51.1718 56.8388 51.1718C59.2916 51.1718 61.0678 52.4405 61.0678 55.4009V62.6749ZM54.7242 71.9789C56.2467 71.9789 56.8388 72.9938 56.8388 74.0934V75.8696C56.8388 77.3075 56.1621 78.1533 54.7242 78.1533C53.2863 78.1533 52.6097 77.3921 52.6097 75.9542V74.0934C52.6097 72.9938 53.0326 71.9789 54.7242 71.9789ZM59.2916 72.148H60.5604L57.9383 77.8996L55.3163 83.7357H54.0476L56.5004 78.3225L59.2916 72.148ZM19.4537 51.5101H25.2053L26.8123 66.7348H23.0907L22.837 63.5207H21.6529L21.5683 65.2123L21.4837 66.7348H17.7621L18.5233 59.3762L19.4537 51.5101ZM3.80617 34.2555C9.81145 14.8018 27.5736 1.69163 48.0423 1.69163C68.4264 1.69163 86.2731 14.8018 92.2784 34.3401C93.5471 38.4846 94.2238 42.7137 94.3084 47.1119H79.5066C78.9991 30.111 65.1278 16.578 48.0423 16.578C30.9568 16.578 17.0009 30.111 16.4934 47.0273H1.69163C1.77621 42.7137 2.45286 38.4 3.80617 34.2555Z" fill="url(#paint0_linear_3_2168)"/>
<path d="M11.4185 37.7238L10.1498 37.3855L9.72684 39.3309L8.5427 39.0771L9.13477 36.7934L7.78147 36.4551L6.85107 40.3458L12.7718 41.6991L13.1101 40.1767L10.9956 39.6692L11.4185 37.7238Z" fill="url(#paint1_linear_3_2168)"/>
<path d="M8.6272 34.0024L13.6175 37.8931L14.2096 36.3707L13.11 35.6094L13.7021 34.0024L14.9708 34.1716L15.5629 32.5645L9.30385 32.1416L8.6272 34.0024ZM10.0651 33.4949C10.6572 33.5795 11.4184 33.6641 12.0105 33.7487L12.4334 33.8332L12.0105 34.8482L11.6721 34.679C11.2492 34.3407 10.5726 33.9178 10.0651 33.4949Z" fill="url(#paint2_linear_3_2168)"/>
<path d="M11.4185 27.8271L10.6572 29.1805L16.0704 32.0562L16.7471 30.6183L11.4185 27.8271Z" fill="url(#paint3_linear_3_2168)"/>
<path d="M14.2098 25.7124L18.1005 28.419L19.0309 27.0657L15.1402 24.4436L16.0706 23.0903L14.971 22.3291L12.2644 26.3044L13.364 27.0657L14.2098 25.7124Z" fill="url(#paint4_linear_3_2168)"/>
<path d="M22.5832 22.8376L21.9066 21.738L23.1753 20.5539L24.2749 21.3151L25.459 20.131L19.9612 17.0015L18.6079 18.3548L21.3991 24.0217L22.5832 22.8376ZM21.0608 20.2156C20.807 19.7081 20.3841 19.0314 20.0458 18.5239C20.5533 18.8623 21.2299 19.2852 21.6528 19.6235L21.9912 19.8772L21.1454 20.6385L21.0608 20.2156Z" fill="url(#paint5_linear_3_2168)"/>
<path d="M28.3348 18.185L26.3048 12.1797L24.9515 13.1101L25.9665 15.6475C26.2203 16.2396 26.474 16.8317 26.7277 17.5083C26.2203 17.0854 25.7974 16.6625 25.2899 16.155L23.1753 14.3788L21.822 15.3092L26.7277 19.2L28.3348 18.185Z" fill="url(#paint6_linear_3_2168)"/>
<path d="M33.9172 15.0562L33.3252 13.872L31.2106 14.9716L30.7031 14.0412L32.4793 13.1108L31.8873 11.9267L30.1111 12.7725L29.6882 11.9267L31.8027 10.9117L31.2106 9.72754L27.6582 11.5038L30.3648 16.8324L33.9172 15.0562Z" fill="url(#paint7_linear_3_2168)"/>
<path d="M37.6389 13.9559C38.3155 13.7021 38.9076 13.1947 39.2459 12.518L38.1464 11.8414C37.9772 12.1797 37.7234 12.518 37.3005 12.6026C36.5393 12.8563 35.8627 12.4334 35.5243 11.3339C35.186 10.3189 35.6089 9.47307 36.2856 9.30391C36.6239 9.21933 36.9622 9.21933 37.3005 9.38849L37.808 8.20435C37.3005 7.95061 36.5393 7.78144 35.7781 8.03519C34.2556 8.54268 33.3252 10.0651 33.9173 12.0105C34.5939 13.8713 36.1164 14.3788 37.6389 13.9559Z" fill="url(#paint8_linear_3_2168)"/>
<path d="M44.067 12.5185L43.3058 6.51318L41.6987 6.68235L42.5445 12.6876L44.067 12.5185Z" fill="url(#paint9_linear_3_2168)"/>
<path d="M47.0273 12.2647V10.4885C47.0273 9.72723 46.8582 8.88141 46.7736 8.20476L47.3657 9.55806L48.719 12.2647H50.326V6.1748H48.8036V7.95102C48.8036 8.71225 48.9727 9.55806 49.0573 10.2347L48.4652 8.88141L47.1119 6.1748H45.5049V12.2647H47.0273Z" fill="url(#paint10_linear_3_2168)"/>
<path d="M54.4704 12.9411C55.3163 13.1103 56.1621 12.8565 56.6696 12.5182L57.177 9.64243L54.8933 9.21953L54.7242 10.4882L55.57 10.6574L55.4008 11.5032C55.3163 11.5878 55.0625 11.5878 54.8933 11.5032C53.7938 11.3341 53.4555 10.5728 53.6246 9.47327C53.7938 8.37371 54.555 7.86622 55.3163 7.9508C55.8237 8.03538 55.9929 8.20455 56.2467 8.54287L57.2616 7.69706C56.9233 7.18957 56.3312 6.76666 55.4854 6.5975C53.8784 6.34375 52.2713 7.18957 51.933 9.21953C51.6793 11.5032 52.8634 12.6874 54.4704 12.9411Z" fill="url(#paint11_linear_3_2168)"/>
<path d="M59.8837 12.1799L60.4758 12.349L60.8141 14.6327L62.5057 15.2248L62.0828 12.6028C62.7595 12.5182 63.2669 12.0953 63.6053 11.2495C64.1128 9.81159 63.1824 9.05035 61.9982 8.62744L59.8837 7.86621L57.6846 13.5332L59.207 14.0407L59.8837 12.1799ZM60.8141 9.55784L61.3216 9.727C61.9136 9.89617 62.1674 10.2345 61.9982 10.6574C61.8291 11.1649 61.4062 11.3341 60.8141 11.0803L60.3066 10.9957L60.8141 9.55784Z" fill="url(#paint12_linear_3_2168)"/>
<path d="M66.7347 17.5088L67.4113 16.3246L65.2968 15.2251L65.8043 14.2947L67.4959 15.2251L68.1726 14.0409L66.3964 13.1105L66.9038 12.2647L68.9338 13.3643L69.5259 12.1801L66.1426 10.3193L63.2668 15.648L66.7347 17.5088Z" fill="url(#paint13_linear_3_2168)"/>
<path d="M70.118 10.6569L68.5955 9.81104L67.4114 10.4877L68.5109 11.0798L70.118 10.6569Z" fill="url(#paint14_linear_3_2168)"/>
<path d="M69.2722 19.2845C70.7101 20.2995 72.2326 20.384 73.5013 18.6924C74.77 17.0008 74.3471 15.5629 72.8246 14.4633L71.3868 13.3638L67.7498 18.1849L69.2722 19.2845ZM71.9788 15.3091C72.7401 15.9012 73.0784 16.5779 72.2326 17.6774C71.3868 18.777 70.6255 18.6924 69.9489 18.1003L69.8643 18.0158L71.9788 15.3091Z" fill="url(#paint15_linear_3_2168)"/>
<path d="M76.7759 17.693L72.5039 22.0332L73.6492 23.1605L77.9213 18.8203L76.7759 17.693Z" fill="url(#paint16_linear_3_2168)"/>
<path d="M77.1384 27.2354L78.238 26.3896L76.7155 24.5288L77.5613 23.8521L78.7455 25.3746L79.845 24.6134L78.5763 23.0063L79.3375 22.4142L80.7754 24.1904L81.7904 23.4292L79.3375 20.3843L74.6855 24.1904L77.1384 27.2354Z" fill="url(#paint17_linear_3_2168)"/>
<path d="M78.6608 29.6037L80.1833 28.7579C80.8599 28.4196 81.5366 27.8275 82.044 27.4046L81.1982 28.5887L79.5066 31.1262L80.3524 32.564L85.5965 29.6037L84.8352 28.2504L83.3128 29.0962C82.6361 29.4345 81.9595 30.0266 81.452 30.4495L82.3824 29.2654L84.074 26.7279L83.2282 25.29L77.9841 28.2504L78.6608 29.6037Z" fill="url(#paint18_linear_3_2168)"/>
<path d="M85.681 33.2403L81.2827 34.8473L81.7902 36.3698L86.1884 34.7628L86.7805 36.2006L88.0492 35.7777L86.3576 31.2949L85.0889 31.7178L85.681 33.2403Z" fill="url(#paint19_linear_3_2168)"/>
<path d="M86.696 37.5544C85.8501 37.7236 85.4272 38.4003 85.3427 39.0769L85.1735 39.8381C85.0889 40.3456 85.0889 40.684 84.7506 40.7685C84.4968 40.8531 84.3277 40.684 84.1585 40.1765C84.0739 39.7536 84.1585 39.1615 84.4123 38.654L83.2281 38.0619C82.8052 38.8232 82.7206 39.7536 82.8898 40.5148C83.2281 41.9527 84.2431 42.6293 85.2581 42.3756C86.1039 42.2064 86.5268 41.6989 86.6114 40.8531L86.696 40.0919C86.7805 39.4998 86.8651 39.1615 87.1189 39.0769C87.3726 38.9923 87.5418 39.2461 87.6264 39.5844C87.7109 40.0073 87.6264 40.4302 87.4572 40.8531L88.5567 41.4452C88.9797 40.7685 89.0642 40.0073 88.8951 39.3307C88.7259 38.0619 87.7109 37.3853 86.696 37.5544Z" fill="url(#paint20_linear_3_2168)"/>
<path d="M50.4952 40.43C50.5797 40.3454 50.6643 40.2608 50.8335 40.1762L46.0123 33.748C45.9278 33.8326 45.7586 33.9172 45.674 34.0018C45.5894 34.0864 45.5049 34.171 45.3357 34.2555L50.1568 40.6837C50.326 40.5991 50.4106 40.5146 50.4952 40.43Z" fill="url(#paint21_linear_3_2168)"/>
<path d="M48.2114 41.53C48.4652 41.4454 48.7189 41.3608 49.0573 41.2762C49.0573 41.2762 49.0573 41.1916 48.9727 41.1916L45.5894 36.6242C45.5048 36.5397 45.4203 36.4551 45.3357 36.4551C45.2511 36.4551 45.0819 36.4551 44.9973 36.5397C44.8282 36.7088 44.7436 36.9626 44.9128 37.1317L48.2114 41.53Z" fill="url(#paint22_linear_3_2168)"/>
<path d="M46.8581 41.7832L43.3902 37.2158C43.3056 37.5541 43.2211 37.8925 43.1365 38.3154L45.6739 41.6986C46.0968 41.6986 46.5197 41.7832 46.8581 41.7832Z" fill="url(#paint23_linear_3_2168)"/>
<path d="M42.7982 41.2756C42.7982 41.191 42.7982 41.191 42.7982 41.2756C42.1216 40.7681 41.3604 40.4298 40.5991 40.3452L43.1366 43.7285C43.2211 42.7981 43.1366 42.0368 42.7982 41.2756Z" fill="url(#paint24_linear_3_2168)"/>
<path d="M42.9674 44.7441L39.5841 40.2612C39.1612 40.2612 38.6537 40.3458 38.1462 40.4304L42.3753 46.0128C42.6291 45.5899 42.7982 45.167 42.9674 44.7441Z" fill="url(#paint25_linear_3_2168)"/>
<path d="M51.5946 39.2463C51.6792 39.2463 51.6792 39.2463 51.5946 39.2463C51.8484 39.0772 52.0175 38.908 52.1867 38.6543L47.9576 32.9873C47.7039 33.0719 47.4501 33.1565 47.1118 33.241C47.1118 33.241 47.1118 33.3256 47.1964 33.3256L51.5946 39.2463Z" fill="url(#paint26_linear_3_2168)"/>
<path d="M53.3709 33.3253C54.0476 33.8328 54.8088 34.1711 55.6546 34.3403L53.1172 30.957C52.948 31.7183 53.1172 32.4795 53.3709 33.3253Z" fill="url(#paint27_linear_3_2168)"/>
<path d="M56.7541 34.3404C57.177 34.3404 57.6845 34.2558 58.192 34.1712L53.9629 28.5889C53.7092 29.0118 53.54 29.4347 53.3708 29.8576L56.7541 34.3404Z" fill="url(#paint28_linear_3_2168)"/>
<path d="M52.948 36.2012L50.4106 32.818C50.326 32.818 50.2414 32.818 50.1569 32.818C49.9031 32.7334 49.5648 32.7334 49.311 32.7334L52.7789 37.3008C52.8635 36.9625 52.948 36.5396 52.948 36.2012Z" fill="url(#paint29_linear_3_2168)"/>
<path d="M59.6299 79.6755V81.79C59.6299 82.1283 59.7145 82.2975 59.8836 82.2975C60.0528 82.2975 60.1374 82.2129 60.1374 81.79V79.7601C60.1374 79.4217 60.0528 79.3371 59.8836 79.3371C59.7145 79.2526 59.6299 79.3371 59.6299 79.6755Z" fill="url(#paint30_linear_3_2168)"/>
<path d="M39.7532 81.7051C40.0916 81.7051 40.1761 81.4513 40.1761 80.9438V78.491V74.431C40.1761 74.0081 40.0916 73.7544 39.7532 73.7544C39.4149 73.7544 39.3303 74.0081 39.3303 74.431V78.2372V80.9438C39.3303 81.4513 39.4149 81.7051 39.7532 81.7051Z" fill="url(#paint31_linear_3_2168)"/>
<path d="M47.7886 81.7054C48.127 81.7054 48.2115 81.4517 48.2115 80.9442V79.5063V74.516C48.2115 74.0931 48.127 73.8394 47.7886 73.8394C47.4503 73.8394 47.3657 74.0931 47.3657 74.516V79.5063V81.0288C47.3657 81.4517 47.4503 81.7054 47.7886 81.7054Z" fill="url(#paint32_linear_3_2168)"/>
<path d="M22.3295 54.4707H22.1603C22.1603 55.1474 21.9066 58.9535 21.822 60.476H22.7524C22.6678 59.2918 22.4141 55.3165 22.3295 54.4707Z" fill="url(#paint33_linear_3_2168)"/>
<path d="M54.7242 76.5463C54.8934 76.5463 54.9779 76.4617 54.9779 76.0388V74.0088C54.9779 73.6705 54.8934 73.5859 54.7242 73.5859C54.555 73.5859 54.4705 73.6705 54.4705 74.0088V76.1234C54.4705 76.3771 54.555 76.5463 54.7242 76.5463Z" fill="url(#paint34_linear_3_2168)"/>
<path d="M56.7541 54.1323C56.4157 54.1323 56.2466 54.3861 56.2466 55.0627V63.1825C56.2466 63.7746 56.4157 64.1129 56.7541 64.1129C57.0924 64.1129 57.3461 63.7746 57.3461 63.1825V54.9781C57.3461 54.3015 57.177 54.1323 56.7541 54.1323Z" fill="url(#paint35_linear_3_2168)"/>
<defs>
<linearGradient id="paint0_linear_3_2168" x1="48" y1="0" x2="48" y2="96" gradientUnits="userSpaceOnUse">
<stop stop-color="#8C068F"/>
<stop offset="1" stop-color="#2063CD"/>
</linearGradient>
<linearGradient id="paint1_linear_3_2168" x1="9.98059" y1="36.4551" x2="9.98059" y2="41.6991" gradientUnits="userSpaceOnUse">
<stop stop-color="#8C068F"/>
<stop offset="1" stop-color="#2063CD"/>
</linearGradient>
<linearGradient id="paint2_linear_3_2168" x1="12.095" y1="32.1416" x2="12.095" y2="37.8931" gradientUnits="userSpaceOnUse">
<stop stop-color="#8C068F"/>
<stop offset="1" stop-color="#2063CD"/>
</linearGradient>
<linearGradient id="paint3_linear_3_2168" x1="13.7022" y1="27.8271" x2="13.7022" y2="32.0562" gradientUnits="userSpaceOnUse">
<stop stop-color="#8C068F"/>
<stop offset="1" stop-color="#2063CD"/>
</linearGradient>
<linearGradient id="paint4_linear_3_2168" x1="15.6477" y1="22.3291" x2="15.6477" y2="28.419" gradientUnits="userSpaceOnUse">
<stop stop-color="#8C068F"/>
<stop offset="1" stop-color="#2063CD"/>
</linearGradient>
<linearGradient id="paint5_linear_3_2168" x1="22.0335" y1="17.0015" x2="22.0335" y2="24.0217" gradientUnits="userSpaceOnUse">
<stop stop-color="#8C068F"/>
<stop offset="1" stop-color="#2063CD"/>
</linearGradient>
<linearGradient id="paint6_linear_3_2168" x1="25.0784" y1="12.1797" x2="25.0784" y2="19.2" gradientUnits="userSpaceOnUse">
<stop stop-color="#8C068F"/>
<stop offset="1" stop-color="#2063CD"/>
</linearGradient>
<linearGradient id="paint7_linear_3_2168" x1="30.7877" y1="9.72754" x2="30.7877" y2="16.8324" gradientUnits="userSpaceOnUse">
<stop stop-color="#8C068F"/>
<stop offset="1" stop-color="#2063CD"/>
</linearGradient>
<linearGradient id="paint8_linear_3_2168" x1="36.4915" y1="7.90967" x2="36.4915" y2="14.0955" gradientUnits="userSpaceOnUse">
<stop stop-color="#8C068F"/>
<stop offset="1" stop-color="#2063CD"/>
</linearGradient>
<linearGradient id="paint9_linear_3_2168" x1="42.8829" y1="6.51318" x2="42.8829" y2="12.6876" gradientUnits="userSpaceOnUse">
<stop stop-color="#8C068F"/>
<stop offset="1" stop-color="#2063CD"/>
</linearGradient>
<linearGradient id="paint10_linear_3_2168" x1="47.9155" y1="6.1748" x2="47.9155" y2="12.2647" gradientUnits="userSpaceOnUse">
<stop stop-color="#8C068F"/>
<stop offset="1" stop-color="#2063CD"/>
</linearGradient>
<linearGradient id="paint11_linear_3_2168" x1="54.5802" y1="6.55371" x2="54.5802" y2="12.995" gradientUnits="userSpaceOnUse">
<stop stop-color="#8C068F"/>
<stop offset="1" stop-color="#2063CD"/>
</linearGradient>
<linearGradient id="paint12_linear_3_2168" x1="60.7158" y1="7.86621" x2="60.7158" y2="15.2248" gradientUnits="userSpaceOnUse">
<stop stop-color="#8C068F"/>
<stop offset="1" stop-color="#2063CD"/>
</linearGradient>
<linearGradient id="paint13_linear_3_2168" x1="66.3964" y1="10.3193" x2="66.3964" y2="17.5088" gradientUnits="userSpaceOnUse">
<stop stop-color="#8C068F"/>
<stop offset="1" stop-color="#2063CD"/>
</linearGradient>
<linearGradient id="paint14_linear_3_2168" x1="68.7647" y1="9.81104" x2="68.7647" y2="11.0798" gradientUnits="userSpaceOnUse">
<stop stop-color="#8C068F"/>
<stop offset="1" stop-color="#2063CD"/>
</linearGradient>
<linearGradient id="paint15_linear_3_2168" x1="70.9997" y1="13.3638" x2="70.9997" y2="20.0124" gradientUnits="userSpaceOnUse">
<stop stop-color="#8C068F"/>
<stop offset="1" stop-color="#2063CD"/>
</linearGradient>
<linearGradient id="paint16_linear_3_2168" x1="74.6399" y1="19.8631" x2="75.7853" y2="20.9904" gradientUnits="userSpaceOnUse">
<stop stop-color="#8C068F"/>
<stop offset="1" stop-color="#2063CD"/>
</linearGradient>
<linearGradient id="paint17_linear_3_2168" x1="78.238" y1="20.3843" x2="78.238" y2="27.2354" gradientUnits="userSpaceOnUse">
<stop stop-color="#8C068F"/>
<stop offset="1" stop-color="#2063CD"/>
</linearGradient>
<linearGradient id="paint18_linear_3_2168" x1="81.7903" y1="25.29" x2="81.7903" y2="32.564" gradientUnits="userSpaceOnUse">
<stop stop-color="#8C068F"/>
<stop offset="1" stop-color="#2063CD"/>
</linearGradient>
<linearGradient id="paint19_linear_3_2168" x1="84.666" y1="31.2949" x2="84.666" y2="36.3698" gradientUnits="userSpaceOnUse">
<stop stop-color="#8C068F"/>
<stop offset="1" stop-color="#2063CD"/>
</linearGradient>
<linearGradient id="paint20_linear_3_2168" x1="85.8924" y1="37.5288" x2="85.8924" y2="42.4279" gradientUnits="userSpaceOnUse">
<stop stop-color="#8C068F"/>
<stop offset="1" stop-color="#2063CD"/>
</linearGradient>
<linearGradient id="paint21_linear_3_2168" x1="48.0846" y1="33.748" x2="48.0846" y2="40.6837" gradientUnits="userSpaceOnUse">
<stop stop-color="#8C068F"/>
<stop offset="1" stop-color="#2063CD"/>
</linearGradient>
<linearGradient id="paint22_linear_3_2168" x1="46.9389" y1="36.4551" x2="46.9389" y2="41.53" gradientUnits="userSpaceOnUse">
<stop stop-color="#8C068F"/>
<stop offset="1" stop-color="#2063CD"/>
</linearGradient>
<linearGradient id="paint23_linear_3_2168" x1="44.9973" y1="37.2158" x2="44.9973" y2="41.7832" gradientUnits="userSpaceOnUse">
<stop stop-color="#8C068F"/>
<stop offset="1" stop-color="#2063CD"/>
</linearGradient>
<linearGradient id="paint24_linear_3_2168" x1="41.8831" y1="40.3452" x2="41.8831" y2="43.7285" gradientUnits="userSpaceOnUse">
<stop stop-color="#8C068F"/>
<stop offset="1" stop-color="#2063CD"/>
</linearGradient>
<linearGradient id="paint25_linear_3_2168" x1="40.5568" y1="40.2612" x2="40.5568" y2="46.0128" gradientUnits="userSpaceOnUse">
<stop stop-color="#8C068F"/>
<stop offset="1" stop-color="#2063CD"/>
</linearGradient>
<linearGradient id="paint26_linear_3_2168" x1="49.6493" y1="32.9873" x2="49.6493" y2="39.2463" gradientUnits="userSpaceOnUse">
<stop stop-color="#8C068F"/>
<stop offset="1" stop-color="#2063CD"/>
</linearGradient>
<linearGradient id="paint27_linear_3_2168" x1="54.3518" y1="30.957" x2="54.3518" y2="34.3403" gradientUnits="userSpaceOnUse">
<stop stop-color="#8C068F"/>
<stop offset="1" stop-color="#2063CD"/>
</linearGradient>
<linearGradient id="paint28_linear_3_2168" x1="55.7814" y1="28.5889" x2="55.7814" y2="34.3404" gradientUnits="userSpaceOnUse">
<stop stop-color="#8C068F"/>
<stop offset="1" stop-color="#2063CD"/>
</linearGradient>
<linearGradient id="paint29_linear_3_2168" x1="51.1295" y1="32.7334" x2="51.1295" y2="37.3008" gradientUnits="userSpaceOnUse">
<stop stop-color="#8C068F"/>
<stop offset="1" stop-color="#2063CD"/>
</linearGradient>
<linearGradient id="paint30_linear_3_2168" x1="59.8836" y1="79.3066" x2="59.8836" y2="82.2975" gradientUnits="userSpaceOnUse">
<stop stop-color="#8C068F"/>
<stop offset="1" stop-color="#2063CD"/>
</linearGradient>
<linearGradient id="paint31_linear_3_2168" x1="39.7532" y1="73.7544" x2="39.7532" y2="81.7051" gradientUnits="userSpaceOnUse">
<stop stop-color="#8C068F"/>
<stop offset="1" stop-color="#2063CD"/>
</linearGradient>
<linearGradient id="paint32_linear_3_2168" x1="47.7886" y1="73.8394" x2="47.7886" y2="81.7054" gradientUnits="userSpaceOnUse">
<stop stop-color="#8C068F"/>
<stop offset="1" stop-color="#2063CD"/>
</linearGradient>
<linearGradient id="paint33_linear_3_2168" x1="22.2872" y1="54.4707" x2="22.2872" y2="60.476" gradientUnits="userSpaceOnUse">
<stop stop-color="#8C068F"/>
<stop offset="1" stop-color="#2063CD"/>
</linearGradient>
<linearGradient id="paint34_linear_3_2168" x1="54.7242" y1="73.5859" x2="54.7242" y2="76.5463" gradientUnits="userSpaceOnUse">
<stop stop-color="#8C068F"/>
<stop offset="1" stop-color="#2063CD"/>
</linearGradient>
<linearGradient id="paint35_linear_3_2168" x1="56.7964" y1="54.1323" x2="56.7964" y2="64.1129" gradientUnits="userSpaceOnUse">
<stop stop-color="#8C068F"/>
<stop offset="1" stop-color="#2063CD"/>
</linearGradient>
</defs>
</svg>
