<svg width="25" height="24" viewBox="0 0 25 24" fill="none" xmlns="http://www.w3.org/2000/svg">
<path d="M11.361 4.11166C8.77113 5.76732 6.0431 9.37969 5.55966 12.3524C5.73232 12.2771 6.35389 12.1642 6.94094 12.1642C9.5999 12.1642 11.7064 14.4596 11.7064 17.6957C11.7064 20.9317 9.28911 23.6786 6.21576 23.6786C2.90069 23.6786 0 20.7812 0 15.7013C0 9.64309 3.07335 4.18692 7.49345 0.762695L11.361 4.11166ZM23.8271 4.11166C21.2372 5.76732 18.5092 9.37969 18.0257 12.3524C18.1984 12.2771 18.82 12.1642 19.407 12.1642C22.066 12.1642 24.1724 14.4596 24.1724 17.6957C24.1724 20.9317 21.7552 23.6786 18.6818 23.6786C15.3667 23.6786 12.4661 20.7812 12.4661 15.7013C12.4661 9.64309 15.5394 4.18692 19.9595 0.762695L23.8271 4.11166Z" fill="#92278F"/>
</svg>
