<svg width="26" height="24" viewBox="0 0 26 24" fill="none" xmlns="http://www.w3.org/2000/svg">
<g clip-path="url(#clip0_4_1723)">
<path fill-rule="evenodd" clip-rule="evenodd" d="M13.5216 0.247973L16.6033 8.17627L24.9564 8.72684C25.1727 8.75437 25.3349 8.91954 25.3078 9.13977C25.3078 9.24989 25.2538 9.33248 25.1727 9.41506L18.7389 14.8382L20.8204 23.0969C20.8745 23.3171 20.7393 23.5098 20.5501 23.5649C20.442 23.5924 20.3338 23.5649 20.2257 23.5098L13.1702 18.9676L6.08759 23.5373C5.89836 23.6474 5.6821 23.5924 5.57397 23.4272C5.51991 23.3446 5.49287 23.2345 5.51991 23.1244L7.60142 14.8658L1.14061 9.41506C0.978411 9.27742 0.951379 9.02966 1.08654 8.86449C1.16764 8.7819 1.24874 8.72684 1.35687 8.72684L9.70997 8.17627L12.8187 0.247973C12.8998 0.0552717 13.1161 -0.0548435 13.3053 0.0277429C13.4135 0.0552717 13.4946 0.137858 13.5216 0.247973Z" fill="#FFC700"/>
</g>
<defs>
<clipPath id="clip0_4_1723">
<rect width="24.3294" height="23.5922" fill="white" transform="translate(0.729492)"/>
</clipPath>
</defs>
</svg>
