<svg width="322" height="58" viewBox="0 0 322 58" fill="none" xmlns="http://www.w3.org/2000/svg">
<g clip-path="url(#clip0_3_184)">
<path fill-rule="evenodd" clip-rule="evenodd" d="M30.5643 0.604442L38.0822 19.9455L58.4596 21.2886C58.9872 21.3558 59.3828 21.7587 59.3169 22.296C59.3169 22.5646 59.185 22.7661 58.9872 22.9675L43.292 36.1974L48.3698 56.3443C48.5017 56.8815 48.172 57.3516 47.7104 57.4859C47.4466 57.5531 47.1828 57.4859 46.919 57.3516L29.707 46.2708L12.4291 57.4188C11.9675 57.6874 11.4399 57.5531 11.1761 57.1502C11.0442 56.9487 10.9783 56.6801 11.0442 56.4114L16.1221 36.2645L0.360956 22.9675C-0.034721 22.6318 -0.100667 22.0273 0.229064 21.6244C0.426903 21.4229 0.624741 21.2886 0.888526 21.2886L21.2659 19.9455L28.8497 0.604442C29.0476 0.134347 29.5751 -0.134279 30.0368 0.0671904C30.3005 0.134347 30.4984 0.335816 30.5643 0.604442Z" fill="#FFC700"/>
</g>
<g clip-path="url(#clip1_3_184)">
<path fill-rule="evenodd" clip-rule="evenodd" d="M96.2108 0.604442L103.729 19.9455L124.106 21.2886C124.634 21.3558 125.029 21.7587 124.963 22.296C124.963 22.5646 124.831 22.7661 124.634 22.9675L108.938 36.1974L114.016 56.3443C114.148 56.8815 113.818 57.3516 113.357 57.4859C113.093 57.5531 112.829 57.4859 112.565 57.3516L95.3535 46.2708L78.0756 57.4188C77.614 57.6874 77.0864 57.5531 76.8226 57.1502C76.6907 56.9487 76.6248 56.6801 76.6907 56.4114L81.7686 36.2645L66.0074 22.9675C65.6118 22.6318 65.5458 22.0273 65.8755 21.6244C66.0734 21.4229 66.2712 21.2886 66.535 21.2886L86.9124 19.9455L94.4962 0.604442C94.694 0.134347 95.2216 -0.134279 95.6832 0.0671904C95.947 0.134347 96.1449 0.335816 96.2108 0.604442Z" fill="#FFC700"/>
</g>
<g clip-path="url(#clip2_3_184)">
<path fill-rule="evenodd" clip-rule="evenodd" d="M161.857 0.604442L169.375 19.9455L189.753 21.2886C190.28 21.3558 190.676 21.7587 190.61 22.296C190.61 22.5646 190.478 22.7661 190.28 22.9675L174.585 36.1974L179.663 56.3443C179.795 56.8815 179.465 57.3516 179.003 57.4859C178.74 57.5531 178.476 57.4859 178.212 57.3516L161 46.2708L143.722 57.4188C143.26 57.6874 142.733 57.5531 142.469 57.1502C142.337 56.9487 142.271 56.6801 142.337 56.4114L147.415 36.2645L131.654 22.9675C131.258 22.6318 131.192 22.0273 131.522 21.6244C131.72 21.4229 131.918 21.2886 132.181 21.2886L152.559 19.9455L160.143 0.604442C160.341 0.134347 160.868 -0.134279 161.33 0.0671904C161.594 0.134347 161.791 0.335816 161.857 0.604442Z" fill="#FFC700"/>
</g>
<g clip-path="url(#clip3_3_184)">
<path fill-rule="evenodd" clip-rule="evenodd" d="M227.504 0.604442L235.022 19.9455L255.399 21.2886C255.927 21.3558 256.322 21.7587 256.256 22.296C256.256 22.5646 256.124 22.7661 255.927 22.9675L240.231 36.1974L245.309 56.3443C245.441 56.8815 245.111 57.3516 244.65 57.4859C244.386 57.5531 244.122 57.4859 243.858 57.3516L226.646 46.2708L209.369 57.4188C208.907 57.6874 208.379 57.5531 208.116 57.1502C207.984 56.9487 207.918 56.6801 207.984 56.4114L213.062 36.2645L197.3 22.9675C196.905 22.6318 196.839 22.0273 197.169 21.6244C197.366 21.4229 197.564 21.2886 197.828 21.2886L218.205 19.9455L225.789 0.604442C225.987 0.134347 226.515 -0.134279 226.976 0.0671904C227.24 0.134347 227.438 0.335816 227.504 0.604442Z" fill="#FFC700"/>
</g>
<g clip-path="url(#clip4_3_184)">
<path fill-rule="evenodd" clip-rule="evenodd" d="M293.15 0.604442L300.668 19.9455L321.045 21.2886C321.573 21.3558 321.969 21.7587 321.903 22.296C321.903 22.5646 321.771 22.7661 321.573 22.9675L305.878 36.1974L310.956 56.3443C311.088 56.8815 310.758 57.3516 310.296 57.4859C310.032 57.5531 309.769 57.4859 309.505 57.3516L292.293 46.2708L275.015 57.4188C274.553 57.6874 274.026 57.5531 273.762 57.1502C273.63 56.9487 273.564 56.6801 273.63 56.4114L278.708 36.2645L262.947 22.9675C262.551 22.6318 262.485 22.0273 262.815 21.6244C263.013 21.4229 263.211 21.2886 263.474 21.2886L283.852 19.9455L291.436 0.604442C291.633 0.134347 292.161 -0.134279 292.623 0.0671904C292.886 0.134347 293.084 0.335816 293.15 0.604442Z" fill="#FFC700"/>
</g>
<defs>
<clipPath id="clip0_3_184">
<rect width="59.3516" height="57.5531" fill="white" transform="translate(0.03125)"/>
</clipPath>
<clipPath id="clip1_3_184">
<rect width="59.3516" height="57.5531" fill="white" transform="translate(65.6777)"/>
</clipPath>
<clipPath id="clip2_3_184">
<rect width="59.3516" height="57.5531" fill="white" transform="translate(131.324)"/>
</clipPath>
<clipPath id="clip3_3_184">
<rect width="59.3516" height="57.5531" fill="white" transform="translate(196.971)"/>
</clipPath>
<clipPath id="clip4_3_184">
<rect width="59.3516" height="57.5531" fill="white" transform="translate(262.617)"/>
</clipPath>
</defs>
</svg>
