<svg width="25" height="24" viewBox="0 0 25 24" fill="none" xmlns="http://www.w3.org/2000/svg">
<path fill-rule="evenodd" clip-rule="evenodd" d="M13.1554 0.247973L16.2371 8.17627L24.5902 8.72684C24.8065 8.75437 24.9687 8.91954 24.9416 9.13977C24.9416 9.24989 24.8876 9.33248 24.8065 9.41506L18.3727 14.8382L20.4542 23.0969C20.5083 23.3171 20.3731 23.5098 20.1839 23.5649C20.0757 23.5924 19.9676 23.5649 19.8595 23.5098L12.8039 18.9676L5.72138 23.5373C5.53215 23.6474 5.31589 23.5924 5.20776 23.4272C5.15369 23.3446 5.12666 23.2345 5.1537 23.1244L7.23521 14.8658L0.774397 9.41506C0.6122 9.27742 0.585168 9.02966 0.720331 8.86449C0.801429 8.7819 0.882528 8.72684 0.990658 8.72684L9.34376 8.17627L12.4525 0.247973C12.5336 0.0552717 12.7499 -0.0548435 12.9391 0.0277429C13.0472 0.0552717 13.1283 0.137858 13.1554 0.247973Z" fill="#FFC700"/>
<path fill-rule="evenodd" clip-rule="evenodd" d="M13.3013 2.21019L15.8365 8.93062L22.7085 9.39732C22.8864 9.42065 23.0198 9.56066 22.9976 9.74734C22.9976 9.84068 22.9531 9.91068 22.8864 9.98069L17.5934 14.5776L19.3059 21.5781C19.3503 21.7648 19.2391 21.9281 19.0835 21.9748C18.9945 21.9981 18.9056 21.9748 18.8166 21.9281L13.0121 18.0779L7.18546 21.9514C7.02978 22.0448 6.85187 21.9981 6.76291 21.8581C6.71844 21.7881 6.6962 21.6948 6.71844 21.6014L8.43086 14.601L3.11568 9.98069C2.98224 9.86401 2.96 9.654 3.0712 9.51399C3.13791 9.44398 3.20463 9.39732 3.29359 9.39732L10.1655 8.93062L12.723 2.21019C12.7898 2.04685 12.9677 1.95351 13.1233 2.02352C13.2123 2.04685 13.279 2.11686 13.3013 2.21019Z" fill="white"/>
</svg>
