<svg width="54" height="54" viewBox="0 0 54 54" fill="none" xmlns="http://www.w3.org/2000/svg">
<path fill-rule="evenodd" clip-rule="evenodd" d="M23.4125 3.05843C23.4125 1.04307 21.8292 -0.298395 19.8857 0.131724C19.8857 0.131724 20.9438 -0.167761 19.7558 0.167372C8.36211 3.3817 -1.77786e-06 13.9916 -3.61969e-06 26.5847C-5.83419e-06 41.7258 12.0883 54 27 54C41.9117 54 54 41.7258 54 26.5847C54 13.9695 45.6084 3.34432 34.1839 0.150447C33.0147 -0.176431 34.114 0.131198 34.114 0.131198C32.1659 -0.267568 30.5866 1.04588 30.5866 3.05832L30.5866 25.975C30.5866 26.48 30.8703 26.6004 31.224 26.2398C31.224 26.2398 34.1336 23.2764 35.1784 22.1993C38.5935 18.7189 43.6666 23.8884 40.2848 27.3344L29.2957 38.4421C28.0638 39.6854 26.0593 39.6915 24.8191 38.4551L13.7152 27.3344C10.3334 23.8884 15.4065 18.7189 18.7882 22.1649C19.8629 23.2733 22.774 26.2387 22.774 26.2387C23.1266 26.598 23.4125 26.4795 23.4125 25.975L23.4125 3.05843Z" fill="white"/>
</svg>
