<svg width="159" height="77" viewBox="0 0 159 77" fill="none" xmlns="http://www.w3.org/2000/svg">
<g clip-path="url(#clip0_9_471)">
<path d="M23.9782 26.5904H7.07805C5.7958 26.5904 4.76999 25.5124 4.76999 24.2034C4.76999 22.8944 5.7958 21.8164 7.07805 21.8164H23.9526C25.2348 21.8164 26.2606 22.8944 26.2606 24.2034C26.2606 25.5124 25.2605 26.5904 23.9782 26.5904Z" fill="white"/>
<path d="M28.7482 40.4762H2.30806C1.02581 40.4762 0 39.3981 0 38.0891C0 36.7801 1.02581 35.7021 2.30806 35.7021H28.7226C30.0048 35.7021 31.0306 36.7801 31.0306 38.0891C31.0306 39.3981 30.0305 40.4762 28.7482 40.4762Z" fill="white"/>
<path d="M28.7482 12.7305H2.30806C1.02581 12.7305 0 11.6782 0 10.3435C0 9.00888 1.02581 7.95654 2.30806 7.95654H28.7226C30.0048 7.95654 31.0306 9.03454 31.0306 10.3435C31.0306 11.6525 30.0305 12.7305 28.7482 12.7305Z" fill="white"/>
<path d="M110.556 44.044V12.2173V2.82333C110.556 1.25767 109.377 0 107.915 0H43.0582C41.5965 0 40.4168 1.28333 40.4168 2.82333L37.801 44.044H110.556Z" fill="white"/>
<path d="M39.0063 67.2979C39.0063 67.2209 39.0576 67.1695 39.0576 67.0925C39.2114 66.4252 39.391 65.7835 39.6218 65.1419C39.7243 64.9109 39.8269 64.6799 39.9295 64.4745C40.1347 64.0382 40.3398 63.6019 40.5963 63.2169C40.7502 62.9602 40.904 62.7549 41.0835 62.5239C41.34 62.1645 41.5964 61.8309 41.8785 61.4972C42.0837 61.2919 42.2889 61.0609 42.494 60.8812C42.8018 60.5732 43.1095 60.3165 43.4685 60.0599C43.6993 59.8802 43.9301 59.7005 44.161 59.5465C44.52 59.3155 44.9047 59.1102 45.2893 58.9049C45.5458 58.7765 45.7766 58.6482 46.0331 58.5455C46.469 58.3659 46.9306 58.2375 47.3922 58.1092C47.6231 58.0579 47.8282 57.9552 48.0847 57.9039C48.8027 57.7499 49.5208 57.6729 50.2645 57.6729C51.0082 57.6729 51.7519 57.7499 52.4443 57.9039C52.6752 57.9552 52.906 58.0322 53.1368 58.1092C53.5984 58.2375 54.06 58.3659 54.496 58.5455C54.7524 58.6482 54.9832 58.7765 55.2397 58.9049C55.6243 59.1102 56.009 59.3155 56.3681 59.5465C56.5989 59.7005 56.8297 59.8802 57.0605 60.0599C57.3939 60.3165 57.7272 60.5989 58.035 60.9069C58.2401 61.1122 58.4453 61.3175 58.6505 61.5229C58.9326 61.8565 59.2147 62.1902 59.4711 62.5495C59.625 62.7805 59.8045 63.0115 59.9584 63.2425C60.2148 63.6532 60.42 64.0895 60.6251 64.5259C60.7277 64.7569 60.856 64.9622 60.9329 65.1932C61.1637 65.8092 61.3689 66.4765 61.5227 67.1439C61.5227 67.2209 61.574 67.2722 61.574 67.3235V67.3492H110.556V48.8179H37.4932L36.3135 67.3492L39.0063 67.2979Z" fill="white"/>
<path d="M50.2901 77.0001C54.0859 77.0001 57.163 73.7365 57.163 69.7107C57.163 65.6849 54.0859 62.4214 50.2901 62.4214C46.4943 62.4214 43.4172 65.6849 43.4172 69.7107C43.4172 73.7365 46.4943 77.0001 50.2901 77.0001Z" fill="white"/>
<path d="M115.198 48.3303H158.974L158.949 38.1919L140.895 16.0159C139.997 15.1689 138.638 14.5786 137.227 14.5786H115.224V48.3303H115.198ZM122.584 23.6389C122.584 22.3299 123.61 21.2519 124.892 21.2519C126.174 21.2519 127.2 22.3299 127.2 23.6389V37.9096H136.509C137.791 37.9096 138.817 38.9876 138.817 40.2966C138.817 41.6056 137.791 42.6836 136.509 42.6836H124.892C123.61 42.6836 122.584 41.6056 122.584 40.2966V23.6389Z" fill="white"/>
<path d="M115.198 53.1045V67.1442H122.661C122.917 65.9378 123.379 64.8342 123.917 63.7818C123.994 63.6278 124.071 63.4738 124.174 63.3198C124.43 62.9092 124.712 62.5242 125.02 62.1392C125.148 61.9595 125.277 61.8055 125.43 61.6258C125.738 61.2922 126.046 60.9585 126.379 60.6505C126.559 60.4708 126.738 60.3168 126.944 60.1628C127.277 59.9062 127.61 59.6495 127.969 59.4185C128.226 59.2645 128.482 59.1105 128.764 58.9822C129.098 58.8025 129.431 58.6228 129.79 58.4945C130.149 58.3405 130.534 58.2378 130.919 58.1352C131.201 58.0582 131.483 57.9555 131.765 57.8785C132.457 57.7245 133.175 57.6475 133.919 57.6475C134.663 57.6475 135.381 57.7245 136.073 57.8785C136.381 57.9298 136.637 58.0325 136.92 58.1352C137.304 58.2378 137.689 58.3405 138.048 58.4945C138.407 58.6485 138.715 58.8025 139.074 58.9822C139.33 59.1362 139.612 59.2645 139.869 59.4185C140.228 59.6495 140.561 59.9062 140.895 60.1628C141.1 60.3168 141.279 60.4708 141.459 60.6505C141.792 60.9585 142.125 61.2665 142.408 61.6258C142.561 61.7798 142.664 61.9595 142.818 62.1392C143.126 62.5242 143.408 62.9092 143.664 63.3198C143.741 63.4738 143.818 63.6278 143.921 63.7818C144.485 64.8342 144.946 65.9378 145.203 67.1442H153.23C156.461 67.1442 159.103 64.1925 159.103 60.5735L159.077 53.1045H115.198Z" fill="white"/>
<path d="M140.741 69.5824C140.689 66.1174 138.33 63.2427 135.253 62.5754C134.817 62.4727 134.355 62.4214 133.893 62.4214C133.432 62.4214 132.97 62.4727 132.534 62.5754C129.457 63.2427 127.097 66.1431 127.046 69.5824V69.6081C127.046 69.6337 127.046 69.6851 127.046 69.7107C127.046 73.7147 130.124 77.0001 133.919 77.0001C137.714 77.0001 140.792 73.7404 140.792 69.7107C140.741 69.6851 140.741 69.6337 140.741 69.5824Z" fill="white"/>
</g>
<defs>
<clipPath id="clip0_9_471">
<rect width="159" height="77" fill="white"/>
</clipPath>
</defs>
</svg>
