<svg width="96" height="96" viewBox="0 0 96 96" fill="none" xmlns="http://www.w3.org/2000/svg">
<path d="M48 0C21.5344 0 0 21.5344 0 48C0 74.4656 21.5344 96 48 96C74.4656 96 96 74.4656 96 48C96 21.5344 74.4656 0 48 0ZM48 94.3084C22.4648 94.3084 1.69163 73.5352 1.69163 48C1.69163 22.4648 22.4648 1.69163 48 1.69163C73.5352 1.69163 94.3084 22.4648 94.3084 48C94.3084 73.5352 73.5352 94.3084 48 94.3084Z" fill="white"/>
<path d="M13.0933 58.5562L10.3951 59.5796L11.2156 61.7365L12.4335 61.2713L12.1206 60.4424L12.8987 60.1463C13.0087 60.2225 13.1102 60.3832 13.1694 60.5354C13.55 61.5504 13.144 62.244 12.0783 62.6415C11.0549 63.0306 10.226 62.6922 9.93838 61.931C9.76076 61.4743 9.81151 61.1782 9.94684 60.8061L8.71195 60.3409C8.46667 60.8907 8.34825 61.635 8.65274 62.43C9.24481 63.9779 10.818 64.8744 12.7127 64.1555C14.6411 63.4196 15.1148 61.7872 14.5312 60.2394C14.2267 59.4443 13.6008 58.8438 13.0933 58.5562Z" fill="white"/>
<path d="M10.412 58.0143C12.3659 57.6421 13.3132 56.3057 13.0002 54.6649C12.6873 53.0155 11.3255 52.119 9.37169 52.4911C7.42631 52.8633 6.52975 54.1827 6.8427 55.8321C7.14719 57.473 8.45821 58.378 10.412 58.0143ZM8.18754 55.5699C8.06067 54.8594 8.59354 54.3012 9.67618 54.0982C10.7504 53.8952 11.5116 54.2081 11.6469 54.9186C11.7823 55.6291 11.1902 56.1958 10.1075 56.3988C9.03336 56.6102 8.32288 56.2888 8.18754 55.5699Z" fill="white"/>
<path d="M9.26172 51.1211C11.2494 51.0873 12.4082 49.9285 12.3743 48.2623C12.3489 46.5791 11.1563 45.4711 9.16868 45.4965C7.18102 45.5303 6.073 46.6891 6.10683 48.3638C6.13221 50.0385 7.2656 51.155 9.26172 51.1211ZM9.19406 47.1373C10.2936 47.1204 10.9872 47.5518 10.9956 48.2792C11.0126 49.0066 10.3274 49.4633 9.23635 49.4802C8.13679 49.4972 7.49397 49.0658 7.48551 48.3384C7.46859 47.611 8.0945 47.1543 9.19406 47.1373Z" fill="white"/>
<path d="M12.6872 42.4934C12.9748 40.768 12.2812 39.3639 10.1751 39.0171C8.06059 38.6619 7.01178 39.7699 6.70729 41.5884L6.41125 43.3477L12.3743 44.3458L12.6872 42.4934ZM11.3846 42.4596L11.3677 42.5527L7.94218 41.9775L7.95064 41.8845C8.10288 41.0217 8.50888 40.3958 9.90447 40.6327C11.2916 40.861 11.5284 41.5969 11.3846 42.4596Z" fill="white"/>
<path d="M14.1759 31.6671L15.8083 32.386L16.4088 31.0158L10.8603 28.6052L10.2005 30.1192L12.1375 31.9631L12.9071 32.6567L12.8902 32.6905L11.8583 32.6059L9.17711 32.4791L8.50891 33.9931L14.0575 36.4121L14.6411 35.0588L13.0086 34.3483C12.442 34.103 11.5285 33.8493 10.9449 33.6717L10.9618 33.6378L12.4504 33.7562L14.6495 33.807L14.8948 33.2572L13.3554 31.6755L12.2643 30.6521L12.2728 30.6183C12.7972 30.9312 13.6092 31.4218 14.1759 31.6671Z" fill="white"/>
<path d="M17.6099 29.1548L16.7048 28.1906L17.6522 26.7866L18.8786 27.2518L19.8174 25.8393L13.7699 24.0208L12.6957 25.6278L16.7048 30.5082L17.6099 29.1548ZM15.8421 27.2687L15.5461 26.9473C15.157 26.5074 14.6326 25.9746 14.1928 25.5263L14.2181 25.5009C14.8018 25.7124 15.4953 25.9915 16.0536 26.1945L16.4596 26.3383L15.8421 27.2687Z" fill="white"/>
<path d="M21.2723 24.2584L20.0036 23.0658C19.4538 22.5499 18.7264 22.0508 18.1766 21.6364L18.202 21.6025L19.5806 22.11L22.4733 22.9812L23.5898 21.7886L19.1831 17.6526L18.1343 18.7691L19.4115 19.9617C19.9528 20.4692 20.7056 21.002 21.2384 21.3911L21.2131 21.4165L19.8259 20.909L16.9417 20.0378L15.8168 21.2388L20.2319 25.3749L21.2723 24.2584Z" fill="white"/>
<path d="M26.6599 19.4704C28.0132 18.4554 28.0555 17.2121 26.8206 15.5628L24.9429 13.0591L23.708 13.9811L25.6957 16.6369C26.347 17.4997 26.3385 17.9902 25.831 18.3709C25.3235 18.7515 24.8668 18.6077 24.224 17.745L22.2279 15.0891L20.9507 16.0533L22.8284 18.5569C24.0717 20.2063 25.3066 20.4939 26.6599 19.4704Z" fill="white"/>
<path d="M31.1514 16.4761L30.1195 14.5223L31.8957 13.5834L31.2698 12.3993L29.4936 13.3297L28.9607 12.3147L31.0329 11.2236L30.407 10.031L26.9138 11.8749L29.7388 17.2204L31.1514 16.4761Z" fill="white"/>
<path d="M34.7376 14.7847L34.5854 13.4737L36.1755 12.8985L36.8945 14.0065L38.4846 13.4314L34.6953 8.37341L32.8768 9.02469L33.1982 15.3429L34.7376 14.7847ZM34.1709 9.82822C34.5177 10.3442 34.9068 10.987 35.2451 11.4776L35.4819 11.8328L34.4331 12.2134L34.3908 11.7905C34.3316 11.19 34.2217 10.4626 34.1371 9.83667L34.1709 9.82822Z" fill="white"/>
<path d="M41.631 12.9413C42.3584 12.7975 42.9843 12.3661 43.3733 11.681L42.3245 10.9029C42.13 11.2327 41.834 11.4949 41.3772 11.588C40.616 11.7402 39.9816 11.2158 39.7617 10.1078C39.5502 9.02515 40.0239 8.27238 40.7344 8.12859C41.115 8.05247 41.4026 8.14551 41.7494 8.3485L42.4091 7.20665C41.9101 6.86832 41.1996 6.6315 40.4468 6.78374C38.9159 7.08824 37.774 8.48383 38.1631 10.48C38.5691 12.5015 40.0831 13.2458 41.631 12.9413Z" fill="white"/>
<path d="M45.2849 7.63732L45.5048 12.34L47.1034 12.2639L46.8835 7.56119L48.4821 7.48507L48.4144 6.14868L43.6187 6.37705L43.6863 7.71344L45.2849 7.63732Z" fill="white"/>
<path d="M52.0768 12.6027C53.7599 12.7972 54.648 11.926 54.8764 9.87069L55.2317 6.76655L53.6923 6.59739L53.3201 9.87915C53.2017 10.9533 52.8634 11.3086 52.2375 11.2409C51.6031 11.1648 51.3747 10.7503 51.4931 9.67615L51.8653 6.38593L50.2752 6.20831L49.9284 9.31245C49.6916 11.3593 50.3936 12.4166 52.0768 12.6027Z" fill="white"/>
<path d="M57.9552 11.5534L58.5473 11.731L58.9786 13.9724L60.6872 14.4714L60.0867 11.8494C60.7379 11.7141 61.2708 11.2742 61.5161 10.4453C61.939 8.99901 60.9917 8.25469 59.7399 7.89099L57.5492 7.24817L55.8491 13.0589L57.3885 13.5072L57.9552 11.5534ZM58.7249 8.91442L59.2831 9.07513C59.8837 9.25275 60.1628 9.5065 60.019 10.0055C59.8667 10.5046 59.4692 10.6822 58.8602 10.5046L58.3104 10.3439L58.7249 8.91442Z" fill="white"/>
<path d="M62.971 15.5296L65.3731 9.9895L63.9098 9.34668L61.4993 14.8952L62.971 15.5296Z" fill="white"/>
<path d="M65.593 16.8745L66.498 15.3774C66.8871 14.743 67.2254 13.9226 67.513 13.2967L67.5468 13.3136L67.3438 14.7684L67.0985 17.7795L68.5026 18.6253L71.6236 13.4405L70.3126 12.6539L69.4076 14.1509C69.027 14.7938 68.6633 15.6396 68.3926 16.2317L68.3588 16.2147L68.5702 14.7515L68.8155 11.7488L67.4115 10.903L64.2904 16.0879L65.593 16.8745Z" fill="white"/>
<path d="M71.6067 21.3227C72.258 21.8809 73.0869 22.1093 73.6705 22.1262L75.5567 19.944L73.8143 18.43L72.96 19.4196L73.6367 20.0032L73.0869 20.6376C72.96 20.6206 72.7909 20.5276 72.664 20.4177C71.852 19.7072 71.8858 18.9036 72.6302 18.0409C73.3491 17.212 74.2372 17.119 74.8547 17.6603C75.2184 17.9732 75.3199 18.2608 75.3791 18.6499L76.6816 18.4807C76.6393 17.8717 76.3856 17.1613 75.7428 16.603C74.491 15.5204 72.6809 15.4781 71.353 17.009C69.9997 18.5738 70.3549 20.24 71.6067 21.3227Z" fill="white"/>
<path d="M75.506 25.0779L76.4533 26.372L78.0011 25.2302L78.441 25.8307C79.1853 26.8541 80.3863 27.4039 81.5789 26.5243C82.8138 25.6192 82.5432 24.4351 81.765 23.3863L80.3779 21.5001L75.506 25.0779ZM80.657 25.264C80.2256 25.5854 79.7943 25.5347 79.4136 25.0272L79.0161 24.4858L80.3102 23.5385L80.7077 24.0799C81.0545 24.5535 81.0884 24.951 80.657 25.264Z" fill="white"/>
<path d="M79.5742 31.2441L81.3842 30.3222L81.6634 30.8635L80.327 32.7158L81.139 34.306L82.636 32.073C83.1858 32.4536 83.8625 32.5467 84.6406 32.1576C85.9855 31.4725 85.8755 30.2714 85.2835 29.1127L84.2431 27.0658L78.8468 29.8147L79.5742 31.2441ZM83.8456 29.0704L84.1078 29.5863C84.3869 30.153 84.3953 30.5252 83.9302 30.762C83.465 30.9988 83.0674 30.8212 82.7798 30.263L82.5176 29.747L83.8456 29.0704Z" fill="white"/>
<path d="M82.9575 35.7531L83.4819 37.3686L82.3486 38.0452L82.873 39.6523L88.0578 36.0407L87.4573 34.1968L81.139 34.3067L81.6465 35.863L82.9575 35.7531ZM84.6492 35.6177C85.2497 35.5839 85.9856 35.4993 86.6115 35.4317L86.6199 35.4655C86.0871 35.7954 85.4358 36.1675 84.9367 36.4805L84.5646 36.7088L84.2263 35.6516L84.6492 35.6177Z" fill="white"/>
<path d="M85.8417 39.4576C83.8033 39.796 83.0083 41.2846 83.262 42.8409C83.3804 43.5768 83.7864 44.2196 84.4546 44.6256L85.275 43.6106C84.9536 43.3991 84.6999 43.1031 84.6238 42.6379C84.4969 41.8682 85.0382 41.2508 86.1632 41.0731C87.2458 40.8955 87.9817 41.3945 88.1001 42.1135C88.1677 42.4941 88.0578 42.7817 87.8463 43.1116L88.9628 43.822C89.318 43.3315 89.5802 42.621 89.4618 41.8682C89.2081 40.3288 87.8463 39.1362 85.8417 39.4576Z" fill="white"/>
<path d="M88.4299 46.6294L83.7188 46.714L83.7441 48.3126L88.4553 48.228L88.4807 49.835L89.8255 49.8097L89.7409 45.0054L88.4046 45.0308L88.4299 46.6294Z" fill="white"/>
<path d="M83.465 52.5079L89.4787 53.1254L89.6394 51.5352L83.6257 50.9178L83.465 52.5079Z" fill="white"/>
<path d="M86.2647 54.3355C84.2517 53.8787 82.9576 54.9614 82.6108 56.5008C82.4501 57.2282 82.5854 57.9725 83.0506 58.6068L84.184 57.964C83.9726 57.6511 83.8457 57.2789 83.9472 56.8222C84.1248 56.0609 84.8522 55.6888 85.9602 55.9425C87.0344 56.1878 87.5334 56.9237 87.3727 57.6341C87.2881 58.0148 87.0852 58.2347 86.7637 58.4715L87.5334 59.5372C88.0409 59.2158 88.5484 58.666 88.7176 57.9217C89.0644 56.3993 88.2439 54.7837 86.2647 54.3355Z" fill="white"/>
<path d="M80.5215 62.9964L81.7648 63.4785L82.6445 61.2456L83.6425 61.6431L82.9236 63.4785L84.1754 63.9691L84.8944 62.1337L85.774 62.472L84.9366 64.6204L86.18 65.1109L87.6094 61.4739L81.9763 59.2664L80.5215 62.9964Z" fill="white"/>
<path d="M28.8169 77.8828C27.5228 77.0117 25.7212 77.1977 24.5963 78.8809C23.446 80.5979 23.9873 82.1965 25.2983 83.0762C25.9158 83.4906 26.6685 83.6259 27.4213 83.4229L27.2352 82.1288C26.8631 82.2134 26.4655 82.1965 26.0849 81.9428C25.4336 81.5029 25.3491 80.691 25.9834 79.7436C26.5924 78.8386 27.4636 78.6356 28.0726 79.0416C28.394 79.2531 28.5293 79.5237 28.6308 79.9043L29.908 79.5745C29.7896 78.9824 29.4513 78.3058 28.8169 77.8828Z" fill="white"/>
<path d="M29.1637 85.2155L32.8092 86.8564L33.3589 85.63L31.1767 84.6488L31.6166 83.6677L33.4097 84.4712L33.9679 83.2532L32.1663 82.4412L32.5554 81.5785L34.6615 82.5258L35.2113 81.3078L31.6504 79.7008L29.1637 85.2155Z" fill="white"/>
<path d="M39.2627 82.5264L37.0466 81.9682L35.558 87.8297L37.1143 88.2272L37.6049 86.2565L38.2054 86.4087L38.7129 88.6332L40.4468 89.073L39.7532 86.4764C40.396 86.3072 40.9205 85.859 41.1319 85.0216C41.4956 83.5583 40.5229 82.8478 39.2627 82.5264ZM39.6094 84.6325C39.4826 85.14 39.0935 85.3261 38.476 85.1738L37.9178 85.03L38.2815 83.5837L38.8482 83.7275C39.4572 83.8797 39.7448 84.125 39.6094 84.6325Z" fill="white"/>
<path d="M42.646 84.6403L44.2446 84.7672L43.8724 89.4615L45.471 89.5884L45.8432 84.8941L47.4333 85.021L47.5433 83.6846L42.756 83.304L42.646 84.6403Z" fill="white"/>
<path d="M50.5246 83.5328L48.9277 83.6089L49.2156 89.6498L50.8124 89.5737L50.5246 83.5328Z" fill="white"/>
<path d="M56.2975 85.241L54.3183 85.5793L54.1153 84.446L56.4244 84.0484L56.196 82.7289L52.3137 83.3971L53.3456 89.3601L54.9188 89.081L54.5467 86.8988L56.5259 86.5605L56.2975 85.241Z" fill="white"/>
<path d="M57.6423 82.2983L59.4016 88.0837L60.941 87.6185L59.1733 81.8331L57.6423 82.2983Z" fill="white"/>
<path d="M64.3074 84.8862L63.8591 83.8966L65.6607 83.0846L65.1109 81.8666L63.3093 82.6786L62.9203 81.8159L65.0263 80.8601L64.4681 79.6422L60.9072 81.2492L63.4024 86.7639L67.0478 85.1146L66.4981 83.8966L64.3074 84.8862Z" fill="white"/>
<path d="M67.6484 77.705L66.1766 78.7115L69.5937 83.7103L71.1416 82.6446C72.5879 81.655 73.1123 80.1917 71.9113 78.4239C70.7017 76.6562 69.1708 76.6646 67.6484 77.705ZM70.2619 81.6888L70.1858 81.7395L68.2235 78.8722L68.2996 78.8215C69.0186 78.3224 69.7544 78.1787 70.558 79.3459C71.353 80.5131 70.9893 81.1982 70.2619 81.6888Z" fill="white"/>
<path d="M20.494 71.5393L18.8954 71.2941L18.1765 69.7631C18.1257 69.6532 17.9397 69.6532 17.8804 69.7631L17.1615 71.2856L15.5629 71.5309C15.4276 71.5478 15.3768 71.7085 15.4699 71.8015L16.6286 72.9941L16.358 74.6773C16.3326 74.8126 16.4764 74.9141 16.5948 74.8465L18.0242 74.0599L19.4537 74.8465C19.5721 74.9141 19.7159 74.8126 19.6905 74.6773L19.4198 72.9941L20.5786 71.8015C20.6801 71.7254 20.6293 71.5647 20.494 71.5393Z" fill="white"/>
<path d="M80.547 71.5393L78.9484 71.2941L78.2295 69.7631C78.1787 69.6532 77.9926 69.6532 77.9334 69.7631L77.2145 71.2856L75.6159 71.5309C75.4806 71.5478 75.4298 71.7085 75.5229 71.8015L76.6816 72.9941L76.411 74.6773C76.3856 74.8126 76.5294 74.9141 76.6478 74.8465L78.0772 74.0599L79.5066 74.8465C79.6251 74.9141 79.7688 74.8126 79.7435 74.6773L79.4728 72.9941L80.6316 71.8015C80.7331 71.7254 80.6823 71.5647 80.547 71.5393Z" fill="white"/>
<path d="M79.5066 48.0001C79.5066 30.6017 65.3984 16.4935 48 16.4935C30.6016 16.4935 16.4934 30.6017 16.4934 48.0001C16.4934 65.3986 30.6016 79.5067 48 79.5067C65.3984 79.5067 79.5066 65.3986 79.5066 48.0001ZM38.5692 55.2488C37.6642 56.12 36.6069 56.8474 35.3974 57.4225C34.1794 58.0061 32.7838 58.2937 31.2275 58.2937C29.908 58.2937 28.6816 58.0484 27.5651 57.5494C26.4487 57.0588 25.476 56.3652 24.6555 55.4687C23.8351 54.5806 23.1923 53.5149 22.7355 52.2715C22.2788 51.0366 22.0504 49.6749 22.0504 48.1862V48.127C22.0504 46.7145 22.2788 45.3866 22.7355 44.1517C23.1923 42.9168 23.8266 41.8341 24.6301 40.9122C25.4337 39.9903 26.3979 39.2713 27.5059 38.7554C28.6139 38.231 29.8235 37.9688 31.126 37.9688C32.6316 37.9688 33.9172 38.2141 35.0083 38.7131C36.0909 39.2037 37.089 39.8972 37.994 40.7853L35.2367 44.6423C34.6277 44.0417 34.0018 43.5934 33.3759 43.272C32.75 42.9591 32.0057 42.7984 31.1514 42.7984C30.5424 42.7984 29.9757 42.9422 29.4513 43.2213C28.9269 43.5004 28.4701 43.8726 28.0895 44.3462C27.7005 44.8199 27.396 45.3866 27.1676 46.0378C26.9392 46.6891 26.8293 47.3827 26.8293 48.127V48.1862C26.8293 48.9897 26.9392 49.7171 27.1676 50.3769C27.396 51.0366 27.7089 51.6118 28.1234 52.0939C28.5294 52.576 29.0199 52.9566 29.5697 53.2273C30.1279 53.4979 30.7454 53.6333 31.422 53.6333C31.9972 53.6333 32.5131 53.5571 32.953 53.4218C33.3928 53.278 33.7903 53.0835 34.1286 52.8213V50.4445H30.8131V46.4861H38.5692V55.2488ZM57.9468 57.9046H53.2779V46.6807L48.9558 54.3268H48.8627L44.5575 46.706V57.9046H39.9732V38.3578H44.9212L48.9558 45.9279L52.9903 38.3578H57.9468V57.9046ZM66.7602 52.3138H64.4173V57.9046H59.7315V38.3578H67.0055C68.0627 38.3578 69.027 38.5101 69.8897 38.823C70.7524 39.1275 71.4883 39.5758 72.0973 40.1594C72.7147 40.743 73.1799 41.462 73.5098 42.3078C73.8481 43.1536 74.0088 44.1179 74.0088 45.2005V45.2512C74.0088 46.41 73.8312 47.425 73.4675 48.3131C73.1038 49.1927 72.5963 49.9371 71.9535 50.5291C71.3107 51.1297 70.5494 51.5779 69.6613 51.874C68.7732 52.17 67.809 52.3138 66.7602 52.3138Z" fill="white"/>
<path d="M66.6417 42.9078H64.4172V48.0758H66.6671C67.4875 48.0758 68.1388 47.8389 68.6209 47.3737C69.103 46.9085 69.3483 46.2911 69.3483 45.5045V45.4537C69.3483 44.6164 69.103 43.982 68.6209 43.5507C68.1388 43.1278 67.4791 42.9078 66.6417 42.9078Z" fill="white"/>
</svg>
