<svg width="97" height="96" viewBox="0 0 97 96" fill="none" xmlns="http://www.w3.org/2000/svg">
<path d="M48.5646 0C22.099 0 0.564575 21.5344 0.564575 48C0.564575 74.4656 22.099 96 48.5646 96C75.0301 96 96.5646 74.4656 96.5646 48C96.5646 21.5344 75.0301 0 48.5646 0ZM48.5646 94.3084C23.0294 94.3084 2.25621 73.5352 2.25621 48C2.25621 22.4648 23.0294 1.69163 48.5646 1.69163C74.0997 1.69163 94.8729 22.4648 94.8729 48C94.8729 73.5352 74.0997 94.3084 48.5646 94.3084Z" fill="white"/>
<path d="M47.2367 15.5876L46.966 17.2707C46.9407 17.4061 47.0845 17.5076 47.2029 17.4399L48.6323 16.6533L50.0617 17.4399C50.1801 17.5076 50.3239 17.4061 50.2986 17.2707L50.0279 15.5876L51.1867 14.395C51.2797 14.3019 51.229 14.1412 51.0936 14.1243L49.495 13.879L48.7761 12.3481C48.7253 12.2381 48.5393 12.2381 48.48 12.3481L47.7611 13.8706L46.1625 14.1158C46.0272 14.1328 45.9764 14.2935 46.0695 14.3865L47.2367 15.5876Z" fill="white"/>
<path d="M40.6055 16.8054L40.4279 17.905C40.4109 17.9896 40.504 18.0573 40.5801 18.015L41.5105 17.499L42.4409 18.015C42.517 18.0573 42.6101 17.9896 42.5931 17.905L42.4155 16.8054L43.1683 16.0273C43.2275 15.9681 43.1937 15.8581 43.1091 15.8497L42.0687 15.689L41.6035 14.6994C41.5697 14.6232 41.4428 14.6232 41.409 14.6994L40.9438 15.689L39.9034 15.8497C39.8189 15.8666 39.785 15.9681 39.8442 16.0273L40.6055 16.8054Z" fill="white"/>
<path d="M54.8491 16.8054L54.6715 17.905C54.6546 17.9896 54.7476 18.0573 54.8238 18.015L55.7542 17.499L56.6846 18.015C56.7607 18.0573 56.8537 17.9896 56.8368 17.905L56.6592 16.8054L57.412 16.0273C57.4712 15.9681 57.4373 15.8581 57.3527 15.8497L56.3124 15.689L55.8472 14.6994C55.8134 14.6232 55.6865 14.6232 55.6527 14.6994L55.1875 15.689L54.1471 15.8497C54.0625 15.8666 54.0287 15.9681 54.0879 16.0273L54.8491 16.8054Z" fill="white"/>
<path d="M64.8296 43.8047L78.1935 66.3034L80.0712 63.1992L68.1114 43.8047H64.8296Z" fill="white"/>
<path d="M55.3143 53.8107C55.3143 53.8107 53.5635 43.8047 42.4326 43.8047H17.0581V69.3906H19.9423V46.7904H43.3291C45.6213 46.7904 52.5908 49.0826 52.5908 56.3989C52.5908 63.7152 46.0696 66.3034 43.0331 66.3034H36.1651V54.1575H33.1793V69.3821H42.6017C48.6831 69.3821 52.2356 65.1023 54.1302 62.1166C56.0248 59.1309 64.8297 43.8047 64.8297 43.8047H61.5649L55.3143 53.8107Z" fill="white"/>
<path d="M60.5498 69.3817H76.3243L78.1935 66.3029H60.5498V69.3817Z" fill="white"/>
<path d="M23.926 50.8838H42.7031C45.5197 50.8838 48.5054 53.1675 48.5054 56.5C48.5054 59.8325 45.4859 62.1247 43.329 62.1247H40.4025V54.1571H37.3238V65.1104H43.329C47.1437 65.1104 51.5419 61.8032 51.5419 56.6015C51.5419 51.442 47.5412 47.8896 42.7539 47.8896H20.9403V57.2443H32.0882V54.1571H23.926V50.8838Z" fill="white"/>
<path d="M20.9403 69.3901H23.926V61.5241H32.0882V58.5383H20.9403V69.3901Z" fill="white"/>
<path d="M70.598 62.1243H60.5497V65.11H76.0705L64.8296 46.7981L51.1443 69.3898H55.3226L64.8296 52.7188L70.598 62.1243Z" fill="white"/>
<path d="M37.882 29.8993C39.7343 29.8993 40.5802 28.842 40.5802 26.5922V23.1835H38.897V26.7952C38.897 27.9708 38.5756 28.3938 37.882 28.3938C37.1969 28.3938 36.8924 27.9708 36.8924 26.7952V23.1835H35.15V26.5922C35.15 28.842 36.0381 29.8993 37.882 29.8993Z" fill="white"/>
<path d="M41.7474 25.1122C41.7474 26.068 42.3648 26.6601 43.0753 26.9477L43.8957 27.2944C44.454 27.5144 44.7838 27.6159 44.7838 27.9288C44.7838 28.2248 44.5639 28.394 44.0395 28.394C43.5489 28.394 42.9569 28.1318 42.4917 27.7596L41.5021 28.9522C42.2126 29.5951 43.1599 29.8996 43.9972 29.8996C45.6381 29.8996 46.5685 28.9015 46.5685 27.7935C46.5685 26.88 46.1033 26.3048 45.2829 25.9834L44.4793 25.6705C43.8873 25.4336 43.5067 25.3237 43.5067 25.0107C43.5067 24.7147 43.7689 24.5625 44.2002 24.5625C44.6823 24.5625 45.0714 24.7232 45.5197 25.0361L46.3909 23.945C45.7819 23.3445 44.953 23.0654 44.2002 23.0654C42.7623 23.0654 41.7474 23.9873 41.7474 25.1122Z" fill="white"/>
<path d="M49.3767 23.1835H47.6343V29.7809H49.3767V23.1835Z" fill="white"/>
<path d="M50.8401 29.7809H52.4979V27.8693C52.4979 27.0574 52.3626 26.1016 52.278 25.3573H52.3203L52.9462 26.829L54.4094 29.7809H56.1941V23.1835H54.5278V25.0866C54.5278 25.8986 54.6716 26.8967 54.7562 27.6071H54.7139L54.088 26.127L52.6248 23.1835H50.8401V29.7809Z" fill="white"/>
<path d="M62.0216 28.3176H59.3996V27.1419H61.5564V25.6787H59.3996V24.6468H61.9201V23.1835H57.6572V29.7809H62.0216V28.3176Z" fill="white"/>
<path d="M22.6742 38.526H24.5181L24.8395 39.9301H26.6919L24.6788 33.3327H22.5727L20.5597 39.9301H22.3444L22.6742 38.526ZM23.0971 36.7244C23.2578 36.0901 23.4185 35.3035 23.5623 34.6268H23.6046C23.7653 35.2865 23.926 36.0901 24.0952 36.7244L24.2052 37.1812H22.9872L23.0971 36.7244Z" fill="white"/>
<path d="M29.0686 37.8324H29.8806C31.2592 37.8324 32.5111 37.1389 32.5111 35.5234C32.5111 33.8571 31.3015 33.3327 29.8806 33.3327H27.3177V39.9301H29.0686V37.8324ZM29.0686 34.7114H29.796C30.4473 34.7114 30.811 34.9398 30.811 35.5234C30.811 36.1154 30.4895 36.4538 29.796 36.4538H29.0686V34.7114Z" fill="white"/>
<path d="M35.3361 37.8324H36.1481C37.5268 37.8324 38.7871 37.1389 38.7871 35.5234C38.7871 33.8571 37.5691 33.3327 36.1481 33.3327H33.5938V39.9301H35.3361V37.8324ZM35.3361 34.7114H36.072C36.7148 34.7114 37.087 34.9398 37.087 35.5234C37.087 36.1154 36.7571 36.4538 36.072 36.4538H35.3361V34.7114Z" fill="white"/>
<path d="M44.9954 35.4642C44.9954 33.8233 43.7859 33.3327 42.3649 33.3327H39.8698V39.9301H41.6121V37.714H42.2803L43.4137 39.9301H45.3675L43.9381 37.3672C44.5725 37.0289 44.9954 36.403 44.9954 35.4642ZM42.238 36.3353H41.6121V34.7114H42.238C42.9316 34.7114 43.2953 34.8975 43.2953 35.4642C43.2953 36.0309 42.9316 36.3353 42.238 36.3353Z" fill="white"/>
<path d="M45.9767 36.5978C45.9767 38.7715 47.2116 40.0487 49.0385 40.0487C50.8655 40.0487 52.1004 38.7715 52.1004 36.5978C52.1004 34.441 50.8655 33.2145 49.0385 33.2145C47.2116 33.2145 45.9767 34.4325 45.9767 36.5978ZM49.0385 34.7116C49.8336 34.7116 50.3157 35.4052 50.3157 36.5978C50.3157 37.7989 49.8336 38.5432 49.0385 38.5432C48.2519 38.5432 47.7614 37.7989 47.7614 36.5978C47.7614 35.4052 48.2519 34.7116 49.0385 34.7116Z" fill="white"/>
<path d="M53.2419 33.3327V36.7413C53.2419 38.9912 54.1385 40.0485 55.9824 40.0485C57.8263 40.0485 58.6805 38.9912 58.6805 36.7413V33.3327H56.9974V36.9443C56.9974 38.12 56.676 38.5429 55.9824 38.5429C55.2888 38.5429 54.9843 38.12 54.9843 36.9443V33.3327H53.2419Z" fill="white"/>
<path d="M61.0153 33.3327H59.1714L61.1168 39.9301H63.2313L65.1767 33.3327H63.392L62.7238 36.2169C62.5462 36.9105 62.4193 37.5956 62.2332 38.3061H62.191C62.0133 37.5956 61.8865 36.9105 61.7088 36.2169L61.0153 33.3327Z" fill="white"/>
<path d="M69.7862 31.5649H67.9592L67.1726 32.8251H68.5513L69.7862 31.5649Z" fill="white"/>
<path d="M70.167 38.4668H67.5534V37.2911H69.7018V35.8279H67.5534V34.796H70.0739V33.3327H65.811V39.9301H70.167V38.4668Z" fill="white"/>
<path d="M75.8166 38.4668H73.1945V37.2911H75.3514V35.8279H73.1945V34.796H75.7151V33.3327H71.4521V39.9301H75.8166V38.4668Z" fill="white"/>
<path d="M48.5646 5.92029C25.3639 5.92029 6.48535 24.7989 6.48535 47.9996C6.48535 71.2003 25.3639 90.0789 48.5646 90.0789C71.7654 90.0789 90.6439 71.2003 90.6439 47.9996C90.6439 24.7989 71.7654 5.92029 48.5646 5.92029ZM48.5646 89.4445C25.7107 89.4445 7.11971 70.8535 7.11971 47.9996C7.11971 25.1457 25.7107 6.55465 48.5646 6.55465C71.4186 6.55465 90.0096 25.1457 90.0096 47.9996C90.0096 70.8535 71.4186 89.4445 48.5646 89.4445Z" fill="white"/>
</svg>
