<svg width="97" height="96" viewBox="0 0 97 96" fill="none" xmlns="http://www.w3.org/2000/svg">
<path d="M95.9431 43.7709C95.6555 40.413 94.9958 37.0552 93.9808 33.7903C87.7387 13.5838 69.3084 0 48.1292 0C26.9499 0 8.51964 13.5838 2.27753 33.7903C1.26255 37.0552 0.602808 40.413 0.315231 43.7709C0.196817 45.1242 0.12915 46.5537 0.12915 48C0.12915 52.8381 0.848092 57.6169 2.26906 62.2012C8.52809 82.4162 26.9499 96 48.1292 96C69.3084 96 87.7302 82.4162 93.9808 62.2012C95.4102 57.6169 96.1292 52.8381 96.1292 48C96.1292 46.5537 96.0615 45.1327 95.9431 43.7709ZM12.9602 51.2902V50.6982H16.631V67.1323H12.2159C12.0213 65.7283 10.8625 58.1498 10.7864 57.6085H10.5919C10.7103 59.4354 11.0317 64.8402 11.0317 66.7433V67.1323H7.55541V50.6982H11.6491C12.0467 52.4997 13.2731 58.9702 13.3746 59.6553H13.5522C13.2731 57.0671 12.9602 52.8211 12.9602 51.2902ZM46.4967 30.4832C46.4883 30.5085 46.4798 30.5339 46.4714 30.5508C45.1857 31.0668 44.0439 31.8196 43.0289 32.8176C42.7582 32.5639 42.4791 32.3355 42.2254 32.0818C40.9482 30.813 40.1024 29.2906 39.5695 27.582C39.2566 26.6093 38.9436 25.6367 38.6222 24.6724C38.5207 24.3764 38.3769 24.0973 38.2754 23.8012C38.25 23.7082 38.3008 23.5475 38.3769 23.4883C38.4361 23.4375 38.6053 23.4545 38.6729 23.5052C39.7218 24.3003 40.9482 24.7063 42.1831 25.1038C43.3334 25.4759 44.4837 25.8566 45.6171 26.3048C47.1903 26.9223 48.3913 27.9965 49.2033 29.4936C49.2456 29.5612 49.2795 29.6374 49.3218 29.7135C49.3302 29.7304 49.3302 29.7558 49.3387 29.7981C49.0511 29.8573 48.7635 29.908 48.4844 29.9757C48.053 30.0772 47.6301 30.1871 47.2072 30.3056C47.0634 30.3478 46.9704 30.3225 46.8604 30.2463C45.8793 29.6458 44.8897 29.0537 43.9085 28.4617C43.8493 28.4278 43.7901 28.4025 43.7055 28.3686C44.6528 29.0876 45.5748 29.7811 46.4967 30.4832ZM40.1869 42.6629C41.3203 40.1593 43.1304 38.2478 45.4056 36.7507C47.2326 35.5411 49.2456 34.7038 51.284 33.9341C51.4448 33.8664 51.6054 33.8072 51.7746 33.748C51.7662 33.7226 51.7662 33.7057 51.7577 33.6888C51.3686 33.7734 50.9796 33.8495 50.5989 33.9426C49.0934 34.3401 47.6047 34.8307 46.1669 35.4312C45.0504 35.8964 44.027 36.5477 43.0627 37.2751C42.4537 37.7318 41.8701 38.2139 41.2696 38.6876C41.2019 38.7383 41.1258 38.8144 41.0582 38.8144C40.9482 38.8229 40.8129 38.7975 40.7283 38.7383C40.5929 38.6368 40.6183 38.4761 40.6606 38.3239C40.9144 37.385 41.2781 36.48 41.7686 35.6342C42.7075 34.0187 43.9508 32.7077 45.5832 31.7773C46.649 31.1683 47.8077 30.8469 48.9919 30.6016C50.5397 30.2886 52.1045 30.1702 53.6608 30.0434C55.0479 29.9334 56.4351 29.8488 57.7714 29.4851C58.355 29.3329 58.9218 29.113 59.48 28.9015C59.793 28.7915 59.8944 28.8085 60.0805 29.0622V29.2821C59.3277 30.2548 58.7187 31.3205 58.1098 32.3863C57.4839 33.4689 56.858 34.5515 56.1644 35.5834C55.3355 36.8437 54.2275 37.8502 53.0095 38.7299C51.7746 39.618 50.4213 40.2777 48.9327 40.6414C48.1207 40.8359 47.3087 40.9205 46.4798 40.9544C45.5494 41.0051 44.6106 41.022 43.6717 41.0982C43.1219 41.1489 42.5806 41.2842 42.0393 41.3942C41.9632 41.4111 41.8955 41.4957 41.8448 41.5718C41.3542 42.2823 40.9736 43.0435 40.7029 43.847C40.6099 44.1008 40.5337 44.3545 40.4661 44.6167C40.4576 44.659 40.4491 44.7013 40.4322 44.7436C40.3476 45.0143 40.1108 45.1581 39.8655 45.0989C39.6203 45.0312 39.4596 44.769 39.5441 44.5068C39.6118 44.2869 39.6795 44.067 39.7556 43.847C39.874 43.4411 40.0093 43.0435 40.1869 42.6629ZM84.4992 64.3242C84.8375 64.3242 84.9644 63.9775 84.9644 63.36C84.9644 62.1251 84.8206 61.753 83.3151 60.3489C81.3105 58.4712 80.3716 57.5154 80.3716 55.1218C80.3716 52.4744 81.3612 50.4529 84.5415 50.4529C88.0516 50.4529 88.6691 52.6012 88.6691 54.8173V55.8322H85.2097V54.572C85.2097 53.7346 85.0659 53.5147 84.6937 53.5147C84.3977 53.5147 84.2285 53.76 84.2285 54.5043C84.2285 55.3671 84.3723 55.7138 85.6072 56.8219C87.8486 58.818 88.9144 59.8583 88.9144 62.4719C88.9144 65.483 88.0009 67.3861 84.5246 67.3861C81.412 67.3861 80.2278 65.6775 80.2278 62.7426V61.753H83.9494V63.0893C83.9494 64.0789 84.127 64.3242 84.4992 64.3242ZM34.207 85.4189H31.2721L31.1283 82.9068H30.1979L30.0541 85.4189H27.1445L28.4217 73.476H29.5889H32.9552L33.1921 75.7427L34.207 85.4189ZM28.9461 53.9376V50.6982H36.7445V53.9376H34.7991V67.1323H30.8999V53.9376H28.9461ZM30.5362 71.0569L32.1179 72.7993H29.6058L27.2206 71.0569H30.5362ZM38.8675 78.1279V76.2756C38.4953 76.2418 38.3346 76.2248 38.0809 76.1487V74.2287C38.656 74.1611 39.2481 73.8904 39.5357 73.476H41.6671V78.8384V85.4189H38.8675V78.1279ZM43.2572 64.2989C43.7055 64.2989 43.8324 64.0028 43.8324 63.3854V50.6982H47.85V62.8863C47.85 66.3711 46.2176 67.3353 43.215 67.3353C40.077 67.3353 38.766 66.0497 38.766 62.8187V50.6982H42.7413V63.3854C42.7413 63.9774 42.8935 64.2989 43.2572 64.2989ZM43.4095 79.1514V76.5801C43.4095 74.1272 44.8051 73.2814 46.6151 73.2814C48.5182 73.2814 49.9646 74.1103 49.9646 76.5632V79.4474V82.1709C49.9646 84.3447 48.9411 85.5965 46.5982 85.5965C44.12 85.5965 43.4095 84.1671 43.4095 82.1709V79.1514ZM68.581 56.8726V60.1036H65.5699V63.9013H69.1984L68.7501 67.1323H61.6453V50.6982H68.7248V53.9376H65.5699V56.8726H68.581ZM68.877 81.4604V83.2705C68.877 84.6999 68.2173 85.5627 66.7625 85.5627C65.3077 85.5627 64.6817 84.7168 64.6479 83.3212V81.4774C64.6479 80.437 65.0962 79.3205 66.7625 79.3205C68.268 79.3205 68.877 80.3609 68.877 81.4604ZM67.3714 73.8397L62.1358 85.4189H60.8671L66.1281 73.865V73.8566C66.145 73.8566 66.1535 73.8481 66.1619 73.8397H67.3714ZM63.6583 75.4129C63.6752 75.5313 63.6837 75.6497 63.6837 75.7766V77.5866C63.6837 79.016 63.0155 79.8788 61.5607 79.8788C60.1144 79.8788 59.4885 79.0752 59.4462 77.6374V77.4174V75.7935C59.4462 74.6939 59.8944 73.6367 61.5607 73.6367C62.9055 73.6367 63.5399 74.4571 63.6583 75.4129ZM59.3277 55.5108C59.3277 57.3632 58.7103 58.302 57.7461 58.7926C58.9302 59.3339 59.2516 60.2474 59.2516 62.6411C59.2516 64.6203 59.2262 66.4895 59.3024 67.1323H55.4962C55.327 66.8363 55.2763 65.7029 55.2763 61.9559C55.2763 60.3235 55.1325 60.2051 54.3374 60.2051H54.1429V67.1323H50.2437V50.6982H55.1071C58.3128 50.6982 59.3277 52.3306 59.3277 54.9188V55.5108ZM51.4194 76.5801C51.4194 74.1272 52.815 73.2814 54.625 73.2814C56.5281 73.2814 57.9829 74.1103 57.9829 76.5632V77.9334V82.1709C57.9829 84.3447 56.9595 85.5965 54.6081 85.5965C52.1383 85.5965 51.4194 84.1671 51.4194 82.1709V79.3374V76.5801ZM78.7223 63.8083L78.3248 67.1323H73.1653H71.1184V50.6982H75.043V63.8083H75.3813H78.7223ZM20.3103 50.6982H26.5524L28.2779 67.1323H24.2349L24.0403 63.6814H22.7547L22.594 66.4557L22.5517 67.1323H18.5595L19.253 60.6196L20.3103 50.6982ZM3.89304 34.2893C9.9237 14.7933 27.6943 1.69163 48.1292 1.69163C68.564 1.69163 86.3346 14.7933 92.3653 34.2893C93.338 37.4189 93.9723 40.6245 94.243 43.847H79.3651C77.3351 28.4109 64.1235 16.4934 48.1292 16.4934C32.1348 16.4934 18.9232 28.4109 16.8932 43.847H2.01533C2.28599 40.633 2.92035 37.4104 3.89304 34.2893Z" fill="white"/>
<path d="M19.2615 26.9473L14.2965 23.4964L13.3831 24.8074L18.348 28.2668L19.2615 26.9473Z" fill="white"/>
<path d="M22.1119 23.5136L20.8685 22.2872C20.3357 21.7628 19.6252 21.2384 19.0839 20.807L19.1092 20.7816L20.471 21.323L23.3383 22.2787L24.4886 21.1115L20.2003 16.8571L19.1261 17.9397L20.3695 19.1746C20.8939 19.6905 21.6382 20.2403 22.1457 20.6463L22.1203 20.6717L20.7501 20.1304L17.8913 19.183L16.741 20.3418L21.0377 24.5963L22.1119 23.5136Z" fill="white"/>
<path d="M29.0986 17.9063C29.8091 17.4411 30.2658 16.7053 30.435 16.147L28.8618 13.728L26.9333 14.9883L27.6438 16.0794L28.3881 15.5888L28.8449 16.2908C28.7941 16.4177 28.6588 16.553 28.515 16.6376C27.61 17.2297 26.8487 16.9759 26.2313 16.0202C25.6307 15.0982 25.7915 14.2186 26.4766 13.7788C26.8826 13.5166 27.1786 13.4912 27.5677 13.5504L27.7622 12.2478C27.1786 12.121 26.4258 12.1633 25.7069 12.6285C24.3197 13.5335 23.7784 15.2589 24.8864 16.959C26.0114 18.6929 27.7115 18.8114 29.0986 17.9063Z" fill="white"/>
<path d="M34.7315 14.8776L34.0041 12.9915L34.5792 12.7716L36.2793 14.2856L37.9456 13.6512L35.8818 11.9257C36.3131 11.4267 36.4739 10.7585 36.1609 9.94653C35.6281 8.54248 34.4185 8.52556 33.209 8.99076L31.0691 9.8112L33.2344 15.4528L34.7315 14.8776ZM33.5558 10.2087C34.1479 9.98882 34.52 10.0227 34.7061 10.5048C34.8922 10.9953 34.6807 11.376 34.0887 11.6043L33.5558 11.8073L33.0145 10.4202L33.5558 10.2087Z" fill="white"/>
<path d="M44.2045 12.4424L43.9762 11.1229L41.6079 11.5205L41.4302 10.4548L43.3756 10.1249L43.1557 8.80541L41.2103 9.13528L41.0496 8.19643L43.3249 7.81581L43.105 6.49634L39.248 7.13916L40.2546 13.1106L44.2045 12.4424Z" fill="white"/>
<path d="M42.5807 4.94L40.9313 5.21912L40.3984 6.47093L41.6503 6.26793L42.5807 4.94Z" fill="white"/>
<path d="M51.9268 9.33739C51.9945 7.19747 50.7512 6.30091 48.9073 6.2417L47.1226 6.1825L46.9365 12.2301L48.8142 12.2893C50.5651 12.3485 51.8592 11.4688 51.9268 9.33739ZM48.5774 10.9952L48.6874 7.51888H48.7804C49.6516 7.55272 50.3282 7.86567 50.2859 9.28664C50.2437 10.6991 49.5416 11.029 48.6705 11.0036L48.5774 10.9952Z" fill="white"/>
<path d="M57.2472 7.23187L55.674 6.91046L54.4729 12.8396L56.0461 13.161L57.2472 7.23187Z" fill="white"/>
<path d="M63.134 14.0486L60.8926 13.2028L61.2732 12.1878L63.1171 12.8814L63.5908 11.6295L61.7384 10.936L62.0767 10.0479L64.2336 10.8599L64.7072 9.60805L61.0533 8.22937L58.9219 13.8879L62.6604 15.3004L63.134 14.0486Z" fill="white"/>
<path d="M67.3546 15.8163C67.7522 15.1904 68.1074 14.3868 68.4119 13.7609L68.4457 13.7778L68.2089 15.2326L67.8959 18.2353L69.2831 19.1065L72.5141 13.9978L71.22 13.1858L70.2896 14.6575C69.8921 15.2919 69.5115 16.1292 69.2323 16.7213L69.1985 16.6959L69.4353 15.2411L69.7483 12.2469L68.3611 11.3757L65.1301 16.4845L66.4242 17.2964L67.3546 15.8163Z" fill="white"/>
<path d="M72.3618 21.737L73.5206 22.8535L76.7854 19.4618L77.9357 20.5698L78.8661 19.6056L75.4068 16.2731L74.4764 17.2373L75.6351 18.3538L72.3618 21.737Z" fill="white"/>
<path d="M78.8748 25.1041L79.0525 25.8991C79.1878 26.432 79.2893 26.7365 79.0525 26.9056C78.8325 27.0663 78.5873 26.9902 78.3081 26.5927C78.0459 26.229 77.9275 25.6538 77.9613 25.1041L76.5404 24.9941C76.4389 25.8653 76.718 26.7365 77.1578 27.3624C78.0375 28.5888 79.2724 28.758 80.1097 28.1659C80.7948 27.6838 80.964 27.0325 80.7695 26.2374L80.5834 25.4762C80.4396 24.9011 80.3212 24.5627 80.558 24.402C80.7779 24.2413 81.0317 24.3597 81.26 24.6727C81.5138 25.0364 81.5984 25.417 81.5984 25.916L82.884 25.9837C83.0109 25.214 82.774 24.4359 82.3765 23.8776C81.6153 22.8034 80.3804 22.5328 79.543 23.1333C78.8326 23.6408 78.7141 24.4189 78.8748 25.1041Z" fill="white"/>
<path d="M46.6321 83.431C46.9704 83.431 47.0804 83.1603 47.0804 82.6613V79.4895V76.1654C47.0804 75.7595 46.9704 75.455 46.6321 75.455C46.3107 75.455 46.1838 75.7341 46.1838 76.1654V79.4472V82.6613C46.1838 83.1434 46.2938 83.431 46.6321 83.431Z" fill="white"/>
<path d="M54.6503 83.431C54.9887 83.431 55.0902 83.1603 55.0902 82.6613V78.7367V76.1654C55.0902 75.7595 54.9887 75.455 54.6503 75.455C54.3205 75.455 54.1936 75.7341 54.1936 76.1654V78.9228V82.6613C54.1936 83.1434 54.3035 83.431 54.6503 83.431Z" fill="white"/>
<path d="M30.5533 75.8612C30.5364 76.3856 30.3588 79.3798 30.2996 80.5386H31.0016C30.9508 79.6251 30.7309 76.5125 30.6802 75.8612H30.5533Z" fill="white"/>
<path d="M66.4751 81.3508V83.4315C66.4751 83.7698 66.5851 83.9136 66.7627 83.9136C66.9403 83.9136 67.0333 83.8037 67.0333 83.4146V81.3508C67.0333 81.0125 66.9234 80.9025 66.7627 80.9025C66.5851 80.9025 66.4751 81.0125 66.4751 81.3508Z" fill="white"/>
<path d="M61.2815 75.6669V76.6396V77.7476C61.2815 78.0859 61.383 78.2297 61.5606 78.2297C61.7467 78.2297 61.8313 78.1198 61.8313 77.7307V76.3774V75.6669C61.8313 75.3286 61.7298 75.2186 61.5606 75.2186C61.383 75.2186 61.2815 75.3286 61.2815 75.6669Z" fill="white"/>
<path d="M23.4231 53.9797H23.2454C23.2201 54.6986 22.9748 58.8177 22.8987 60.4248H23.8629C23.7868 59.1645 23.4907 54.8678 23.4231 53.9797Z" fill="white"/>
<path d="M54.3884 53.6162H54.1685V57.2871H54.4645C55.1073 57.2871 55.378 57.0671 55.378 56.0268V54.7242C55.378 53.8107 55.158 53.6162 54.3884 53.6162Z" fill="white"/>
</svg>
