<svg width="96" height="96" viewBox="0 0 96 96" fill="none" xmlns="http://www.w3.org/2000/svg">
<path d="M48 0C21.5344 0 0 21.5344 0 48C0 74.474 21.5344 96 48 96C74.4656 96 96 74.474 96 48C96 21.5344 74.4656 0 48 0ZM48 94.3084C22.4648 94.3084 1.69163 73.5352 1.69163 48C1.69163 22.4733 22.4648 1.69163 48 1.69163C73.5352 1.69163 94.3084 22.4733 94.3084 48C94.3084 73.5352 73.5352 94.3084 48 94.3084Z" fill="white"/>
<path d="M12.366 51.0537L10.5813 51.1299C9.96387 51.1552 9.03347 51.3328 8.43294 51.4259V51.3921L9.82007 50.8507L11.8247 49.9203L11.7993 49.3283L9.72704 48.5839L8.28914 48.1357V48.1018C8.89813 48.1526 9.83698 48.2372 10.4544 48.2118L12.2391 48.1357L12.1715 46.647L6.13232 46.9092L6.20844 48.567L8.75436 49.3706L9.75241 49.6581V49.692L8.77973 50.0726L6.3184 51.1299L6.38606 52.7876L12.4252 52.5254L12.366 51.0537Z" fill="white"/>
<path d="M12.831 41.5372L13.0762 39.8625L6.82566 40.7929L6.53809 42.7044L12.2473 45.4195L12.4842 43.804L11.2662 43.3219L11.5115 41.6472L12.831 41.5372ZM10.0821 42.8482L9.68452 42.6875C9.13474 42.4507 8.44116 42.1969 7.84909 41.977L7.85756 41.9432C8.475 41.884 9.22776 41.8417 9.81983 41.7825L10.2427 41.7487L10.0821 42.8482Z" fill="white"/>
<path d="M11.4863 35.9472L14.4804 35.5666L15.0133 34.0187L9.30406 32.048L8.80504 33.4859L10.4544 34.061C11.1564 34.2978 12.0614 34.4755 12.7042 34.6193L12.6873 34.6531L11.2156 34.7546L8.22989 35.1352L7.69702 36.683L13.4147 38.6538L13.9053 37.2159L12.256 36.6492C11.5539 36.4039 10.6827 36.2432 10.0061 36.0825L10.023 36.0487L11.4863 35.9472Z" fill="white"/>
<path d="M15.7913 26.4738L13.0847 24.9006L12.3065 26.237L15.1738 27.9033C16.1127 28.4446 16.2988 28.9013 15.9858 29.4427C15.6644 29.9924 15.1823 30.0347 14.2519 29.4934L11.3846 27.8356L10.5811 29.2227L13.2876 30.7875C15.0723 31.8279 16.3241 31.5995 17.1699 30.1362C18.0242 28.673 17.5759 27.5057 15.7913 26.4738Z" fill="white"/>
<path d="M18.8449 23.7085L20.139 22.1691L19.1156 21.3064L17.8215 22.8457L16.9418 22.1014L18.4558 20.3083L17.4324 19.4456L14.8865 22.4567L19.5046 26.3559L20.5365 25.1379L18.8449 23.7085Z" fill="white"/>
<path d="M21.3315 15.817L19.8767 17.0857L22.448 22.8626L23.6913 21.7884L23.0739 20.6212L24.3511 19.5132L25.4168 20.2829L26.694 19.1748L21.3315 15.817ZM22.4734 19.4962L22.2788 19.1156C22.0082 18.5828 21.6445 17.9399 21.34 17.3902L21.3738 17.3648C21.8813 17.72 22.4734 18.1768 22.9639 18.5151L23.3192 18.7688L22.4734 19.4962Z" fill="white"/>
<path d="M29.959 15.0981C29.8745 15.4702 29.6968 15.8255 29.2993 16.0623C28.6311 16.4683 27.8614 16.2061 27.2693 15.2334C26.6942 14.2946 26.8802 13.4149 27.5062 13.0427C27.836 12.8398 28.1321 12.8313 28.5296 12.899L28.758 11.5964C28.1744 11.4526 27.4216 11.478 26.7703 11.8755C25.4339 12.6875 24.8418 14.3961 25.8991 16.13C26.9733 17.8977 28.648 18.0753 30.0013 17.2549C30.6357 16.8658 31.0755 16.2484 31.2024 15.4702L29.959 15.0981Z" fill="white"/>
<path d="M33.7142 10.1491L35.1943 9.55707L34.6953 8.31372L30.2463 10.0984L30.7369 11.3417L32.2255 10.7497L33.9764 15.1141L35.465 14.522L33.7142 10.1491Z" fill="white"/>
<path d="M42.7135 9.62496L42.0961 6.56311L40.5821 6.87606L41.2334 10.1155C41.4533 11.1728 41.2334 11.6126 40.6159 11.7395C39.9985 11.8664 39.6432 11.5365 39.4318 10.4792L38.772 7.23976L37.2073 7.55271L37.8332 10.6146C38.2392 12.6445 39.2288 13.4227 40.8866 13.0928C42.5528 12.7545 43.1195 11.6549 42.7135 9.62496Z" fill="white"/>
<path d="M48.9389 9.90403C49.5225 9.57417 49.9031 8.99901 49.8862 8.13628C49.8693 6.63073 48.7444 6.19936 47.4418 6.22474L45.1497 6.25857L45.2512 12.3061L46.8498 12.2808L46.8159 10.2508L47.4333 10.2424L48.5075 12.2554L50.2922 12.2216L48.9389 9.90403ZM47.3742 8.97364L46.799 8.9821L46.7736 7.50192L47.3488 7.485C47.9831 7.47654 48.3215 7.63725 48.3299 8.16165C48.3384 8.6776 48.0085 8.96518 47.3742 8.97364Z" fill="white"/>
<path d="M56.3653 8.37349L56.5767 7.05402L52.7198 6.43658L51.7725 12.408L55.7224 13.0424L55.9339 11.7145L53.5571 11.3423L53.7263 10.2766L55.6801 10.5811L55.8916 9.2616L53.9377 8.94865L54.09 8.00979L56.3653 8.37349ZM54.9189 5.15094L54.0223 6.17438L55.2741 6.37737L56.5767 5.41314L54.9189 5.15094Z" fill="white"/>
<path d="M63.5546 9.19482L59.4778 14.0329L60.9833 14.6757L61.7615 13.6184L63.3178 14.2866L63.0894 15.5807L64.6457 16.2489L65.3308 9.96452L63.5546 9.19482ZM63.6138 12.6035L63.5462 13.0348L62.5143 12.595L62.7765 12.2482C63.1402 11.7746 63.5631 11.1656 63.9268 10.6496L63.9606 10.6665C63.8591 11.284 63.7068 12.0198 63.6138 12.6035Z" fill="white"/>
<path d="M71.4376 13.3974L69.5007 15.292C69.0185 15.7403 68.5787 16.2055 68.0881 16.6622L68.0543 16.6453C68.2657 16.0025 68.511 15.4189 68.714 14.7845L69.6106 12.2217L68.1812 11.3082L66.4219 17.3643L68.0543 18.4046L72.8247 14.277L71.4376 13.3974Z" fill="white"/>
<path d="M76.5631 19.3012L77.4597 18.3116L74.5585 15.6896L70.5071 20.1809L73.4759 22.8621L74.3725 21.864L72.5878 20.257L73.3152 19.4535L74.7785 20.7729L75.675 19.7833L74.2118 18.4638L74.8461 17.7534L76.5631 19.3012Z" fill="white"/>
<path d="M81.2575 22.5075C80.2848 21.2895 78.517 20.9089 76.9269 22.1691C75.3114 23.4548 75.3368 25.138 76.3179 26.3813C76.7831 26.9649 77.4513 27.3202 78.2379 27.354L78.4493 26.0684C78.0687 26.0345 77.705 25.8992 77.409 25.5355C76.9269 24.9265 77.0961 24.123 77.9842 23.4209C78.8469 22.7358 79.7434 22.812 80.1917 23.3787C80.437 23.6832 80.4793 23.9876 80.4624 24.3767L81.7734 24.4528C81.8495 23.8523 81.7311 23.108 81.2575 22.5075Z" fill="white"/>
<path d="M86.2646 30.9317C85.7149 29.7222 84.5645 29.2232 83.6257 29.6461C82.8306 30.0098 82.56 30.7541 82.5938 31.4477L82.6107 32.2681C82.6361 32.8179 82.6784 33.1393 82.4162 33.2577C82.1709 33.3677 81.9425 33.2408 81.7395 32.801C81.5535 32.395 81.5534 31.8029 81.6972 31.27L80.3186 30.8894C80.0564 31.7268 80.1579 32.6403 80.4708 33.3338C81.0883 34.7041 82.2724 35.11 83.2028 34.6956C83.964 34.3488 84.2685 33.7483 84.2262 32.9363L84.1924 32.1497C84.1586 31.5576 84.1078 31.2024 84.37 31.084C84.6153 30.974 84.8437 31.1347 85.0044 31.4984C85.1905 31.9044 85.1989 32.285 85.1059 32.7756L86.3492 33.0885C86.6199 32.3611 86.5438 31.5576 86.2646 30.9317Z" fill="white"/>
<path d="M88.6836 37.9768C88.2861 36.3528 86.9328 35.5154 84.9959 35.9891C83.0674 36.4628 82.1962 37.8499 82.5938 39.4739C82.9998 41.0978 84.4038 41.9267 86.3407 41.4446C88.2607 40.9794 89.0896 39.6007 88.6836 37.9768ZM85.9516 39.8545C84.8859 40.1167 84.1078 39.8545 83.9302 39.144C83.761 38.442 84.3192 37.8414 85.3934 37.5792C86.4507 37.317 87.1781 37.6046 87.3473 38.3066C87.5249 39.0087 87.0174 39.5923 85.9516 39.8545Z" fill="white"/>
<path d="M89.5464 43.4405L83.5242 43.9734L83.6595 45.5719L89.6817 45.0306L89.5464 43.4405Z" fill="white"/>
<path d="M86.9919 50.782L89.7662 49.5979L89.8593 47.9654L83.8201 47.6187L83.7271 49.1411L85.4779 49.2426C86.2223 49.2849 87.1019 49.2003 87.7955 49.1665L87.787 49.2088L86.4083 49.7078L83.6341 50.892L83.541 52.5244L89.5801 52.8712L89.6647 51.3402L87.9139 51.2472C87.178 51.2049 86.2561 51.281 85.6048 51.3149V51.281L86.9919 50.782Z" fill="white"/>
<path d="M28.4112 77.7653L23.6577 81.9351L25.0533 82.7979L25.9837 81.859L27.4216 82.7556L26.9987 83.9989L28.4281 84.8955L30.0521 78.7887L28.4112 77.7653ZM27.9629 81.1401L27.8276 81.5545L26.8803 80.9624L27.1848 80.6579C27.6161 80.252 28.1236 79.7106 28.555 79.2623L28.5888 79.2793C28.4027 79.8713 28.1405 80.5734 27.9629 81.1401Z" fill="white"/>
<path d="M36.8524 81.8495L35.7359 84.9706C35.3722 85.9855 34.9577 86.2477 34.3572 86.0363C33.7651 85.8248 33.6383 85.3596 34.002 84.3447L35.1184 81.2321L33.6129 80.6907L32.5556 83.6257C31.8621 85.5711 32.3019 86.7552 33.892 87.3304C35.4906 87.9055 36.5479 87.2543 37.2499 85.3173L38.3072 82.3739L36.8524 81.8495Z" fill="white"/>
<path d="M45.7419 83.6344L44.0418 83.4145L43.5597 84.3364C43.4159 84.5986 43.2383 84.9201 43.0607 85.2838H43.0183C42.9084 84.8693 42.8238 84.5225 42.7308 84.2265L42.4601 83.1946L40.6839 82.9578L41.8258 86.0788L39.7874 88.9377L41.4874 89.166L42.071 88.1595C42.2402 87.8635 42.4178 87.5675 42.5954 87.2122L42.6293 87.2207C42.7308 87.6097 42.8154 87.9396 42.9169 88.2695L43.2552 89.4029L45.023 89.6397L43.805 86.4171L45.7419 83.6344Z" fill="white"/>
<path d="M56.983 85.7746L56.4586 82.6874L54.9362 82.9496L55.4944 86.2144C55.672 87.2802 55.4436 87.7115 54.8177 87.8215C54.2003 87.923 53.8535 87.5846 53.6759 86.5189L53.1176 83.2541L51.5444 83.5247L52.0688 86.6035C52.4156 88.6419 53.3798 89.4624 55.0546 89.1748C56.7208 88.8957 57.3298 87.8046 56.983 85.7746Z" fill="white"/>
<path d="M64.7982 84.2097C64.4853 83.4315 63.9017 83.1017 63.0897 83.1017H62.3031C61.711 83.1101 61.3558 83.1355 61.2458 82.8733C61.1443 82.6196 61.3219 82.3996 61.6856 82.2559C62.1001 82.0952 62.4807 82.1036 62.9713 82.222L63.3434 80.9871C62.6245 80.6826 61.8209 80.7249 61.1781 80.9787C59.9517 81.4608 59.3935 82.5942 59.7741 83.55C60.0955 84.3619 60.8313 84.6664 61.5249 84.6664L62.3454 84.6834C62.8951 84.6918 63.2165 84.658 63.318 84.9286C63.4195 85.1824 63.2842 85.4023 62.8359 85.5799C62.4215 85.7406 61.8294 85.7152 61.305 85.5545L60.8652 86.9078C61.6856 87.2208 62.5991 87.1531 63.3096 86.874C64.7136 86.3242 65.1704 85.157 64.7982 84.2097Z" fill="white"/>
<path d="M68.122 77.4093L66.498 78.4581L68.232 84.5311L69.6022 83.643L69.1539 82.4081L70.5749 81.4861L71.5222 82.4081L72.9432 81.4861L68.122 77.4093ZM68.731 81.2155L68.5872 80.8095C68.4011 80.2428 68.1305 79.5492 67.9106 78.9656L67.9359 78.9487C68.3927 79.3716 68.9171 79.9045 69.3484 80.3104L69.6614 80.6065L68.731 81.2155Z" fill="white"/>
<path d="M13.22 64.0784L12.5011 62.5474C12.4503 62.4375 12.2642 62.4375 12.205 62.5474L11.4861 64.0699L9.88751 64.3152C9.75218 64.3321 9.70142 64.4928 9.79446 64.5859L10.9532 65.7784L10.6826 67.4616C10.6572 67.597 10.801 67.6984 10.9194 67.6308L12.3488 66.8442L13.7783 67.6308C13.8967 67.6984 14.0405 67.597 14.0151 67.4616L13.7444 65.7784L14.9032 64.5859C14.9962 64.4928 14.9455 64.3321 14.8102 64.3152L13.22 64.0784Z" fill="white"/>
<path d="M83.9813 63.9854L83.2623 62.4545C83.2116 62.3445 83.0255 62.3445 82.9663 62.4545L82.2473 63.9769L80.6487 64.2222C80.5134 64.2391 80.4626 64.3999 80.5557 64.4929L81.7144 65.6855L81.4438 67.3687C81.4184 67.504 81.5622 67.6055 81.6806 67.5378L83.1101 66.7512L84.5395 67.5378C84.6579 67.6055 84.8017 67.504 84.7763 67.3687L84.5057 65.6855L85.6644 64.4929C85.7575 64.3999 85.7067 64.2391 85.5714 64.2222L83.9813 63.9854Z" fill="white"/>
<mask id="mask0_3_2295" style="mask-type:luminance" maskUnits="userSpaceOnUse" x="16" y="16" width="64" height="63">
<path d="M79.5061 47.5602C78.7957 88.9798 17.1949 88.9713 16.4929 47.5602C17.2034 6.14066 78.8041 6.14912 79.5061 47.5602Z" fill="white"/>
</mask>
<g mask="url(#mask0_3_2295)">
<path d="M118.329 54.8242V59.8146H-2.02159V54.8242H118.329ZM-2.02159 69.5753H118.329V64.585H-2.02159V69.5753ZM-2.02159 79.0991V79.3275H118.329V79.0991V74.3372H-2.02159V79.0991ZM46.0292 50.0623H-2.03003C-2.03003 38.8468 -2.03003 26.9885 -2.03003 15.7814C26.1864 15.7814 89.5971 15.7814 118.321 15.7814V16.0098V20.7717H46.0292V25.5337H118.321V30.524H46.0292V35.2859H118.321V40.2762H46.0292V45.0551H118.321V50.0285H46.0292V50.0623ZM9.26161 39.9633C9.17702 40.1747 8.88098 41.122 8.80486 41.3589L9.98899 40.4961L11.1731 41.3589C11.097 41.1136 10.801 40.1832 10.7164 39.9633L11.9005 39.1006H10.4457L9.98899 37.705L9.54918 39.1006H8.07744L9.26161 39.9633ZM8.30583 25.5421L9.26161 26.2272L8.80486 27.6228L9.98899 26.7601L11.1731 27.6228L10.7164 26.2272C10.8856 26.1004 11.7568 25.4829 11.9005 25.3645H10.4457L9.98899 23.952L9.54918 25.3645H8.07744L8.30583 25.5421ZM10.7164 19.3592L11.9005 18.4796H10.4457L9.98899 17.084L9.54918 18.4796H8.07744L9.26161 19.3592L8.80486 20.7548L9.98899 19.8752L11.1731 20.7548L10.7164 19.3592ZM18.8447 19.3592L20.0288 18.4796H18.574L18.1173 17.084L17.6775 18.4796H16.2226L17.3899 19.3592L16.9501 20.7548L18.1173 19.8752L19.3014 20.7548L18.8447 19.3592ZM26.8207 19.3592L28.0048 18.4965H26.5501L26.0933 17.1009L25.6535 18.4965H24.1987L25.3659 19.3592L24.9261 20.7548L26.0933 19.8921L27.2775 20.7548L26.8207 19.3592ZM34.7968 19.3592L35.9809 18.4965H34.5261L34.0693 17.1009L33.6295 18.4965H32.1747L33.342 19.3592L32.9021 20.7548L34.0693 19.8921L35.2535 20.7548L34.7968 19.3592ZM35.9809 25.3645H34.5261L34.0693 23.9689L33.6295 25.3645H32.1747C32.3185 25.4745 33.1728 26.1004 33.342 26.2272L32.9021 27.6228L34.0693 26.7601L35.2535 27.6228L34.7968 26.2272C34.9744 26.1004 35.8371 25.4829 35.9809 25.3645ZM34.247 45.072L34.0778 44.573C33.9848 44.8859 33.7395 45.6556 33.638 45.9686H32.1832L33.3504 46.8313L32.9106 48.2269L34.0778 47.3642L35.262 48.2269L34.8052 46.8313L35.9893 45.9686H34.5345L34.247 45.072ZM26.2625 45.072H25.9411L25.6535 45.9686H24.1987L25.3659 46.8313L24.9261 48.2269L26.0933 47.3642L27.2775 48.2269L26.8207 46.8313L28.0048 45.9686H26.5501L26.2625 45.072ZM18.2864 45.072L18.1173 44.573C18.0243 44.8859 17.7789 45.6556 17.6775 45.9686H16.2226L17.3899 46.8313L16.9501 48.2269L18.1173 47.3642L19.3014 48.2269L18.8447 46.8313L20.0288 45.9686H18.574L18.2864 45.072ZM17.3899 39.9633C17.3307 40.1832 17.0262 41.1305 16.9501 41.3589L18.1173 40.4961L19.3014 41.3589C19.2253 41.1136 18.9293 40.1832 18.8447 39.9633L20.0288 39.1006H18.574L18.1173 37.705L17.6775 39.1006H16.2226L17.3899 39.9633ZM16.451 25.5421L17.3899 26.2272L16.9501 27.6228L18.1173 26.7601L19.3014 27.6228L18.8447 26.2272C19.0138 26.1004 19.885 25.4829 20.0288 25.3645H18.574L18.1173 23.952L17.6775 25.3645H16.2226L16.451 25.5421ZM24.4271 25.5421L25.3659 26.2272L24.9261 27.6228L26.0933 26.7601L27.2775 27.6228L26.8207 26.2272C26.9983 26.1004 27.8611 25.4829 28.0048 25.3645H26.5501L26.0933 23.952L25.6535 25.3645H24.1987L24.4271 25.5421ZM30.8383 43.4819L32.0225 42.6191H30.5677L30.1109 41.2235L29.6711 42.6191H28.2163L29.3835 43.4819L28.9437 44.8775L30.1109 44.0147L31.2951 44.8775L30.8383 43.4819ZM26.8207 39.9633L28.0048 39.1006H26.5501L26.0933 37.705L25.6535 39.1006H24.1987L25.3659 39.9633C25.3067 40.1832 25.0022 41.1305 24.9261 41.3589L26.0933 40.4961L27.2775 41.3589C27.2013 41.122 26.9053 40.1832 26.8207 39.9633ZM22.82 43.4819L23.9872 42.6191H22.5324L22.0757 41.2235L21.6359 42.6191H20.1811L21.3483 43.4819L20.9085 44.8775L22.0757 44.0147L23.2598 44.8775L22.82 43.4819ZM26.8207 33.0953L28.0048 32.2325H26.5501L26.0933 30.8369L25.6535 32.2325H24.1987L25.3659 33.0953L24.9261 34.4909L26.0933 33.6281L27.2775 34.4909L26.8207 33.0953ZM21.3483 29.7458C21.2383 30.0926 21.01 30.8031 20.9085 31.1414C21.1538 30.9554 21.8304 30.4309 22.0757 30.2618C22.3125 30.4309 23.0145 30.9554 23.2598 31.1414C23.1583 30.8031 22.93 30.0842 22.82 29.7458L23.9872 28.8662H22.5324L22.0757 27.4706L21.6359 28.8662H20.1811L21.3483 29.7458ZM16.2226 32.2325L17.3899 33.0953L16.9501 34.4909L18.1173 33.6281L19.3014 34.4909L18.8447 33.0953L20.0288 32.2325H18.574L18.1173 30.8369L17.6775 32.2325H16.2226ZM21.7712 35.2944L21.6359 35.7511H20.1811L21.3483 36.6139L20.9085 38.0094L22.0757 37.1467L23.2598 38.0094L22.82 36.6139L23.9872 35.7511H22.5324C22.4309 35.4551 22.1687 34.6431 22.0757 34.3386L21.7712 35.2944ZM12.1458 42.6191L13.33 43.4819L12.8732 44.8775L14.0574 44.0147L15.2246 44.8775L14.7848 43.4819L15.952 42.6191H14.4972L14.0574 41.2235L13.6006 42.6191H12.1458ZM38.8736 43.4819L40.0577 42.6191H38.6029L38.1462 41.2235L37.7063 42.6191H36.2346L37.4188 43.4819L36.962 44.8775L38.1462 44.0147L39.3303 44.8775L38.8736 43.4819ZM34.7968 39.9633L35.9809 39.1006H34.5261L34.0693 37.705L33.6295 39.1006H32.1747L33.342 39.9633C33.2828 40.1832 32.9782 41.1305 32.9021 41.3589L34.0693 40.4961L35.2535 41.3589C35.1774 41.122 34.8813 40.1832 34.7968 39.9633ZM30.4154 35.2944L30.1109 34.3386C30.0094 34.6431 29.7472 35.4551 29.6711 35.7511H28.2163L29.3835 36.6139L28.9437 38.0094L30.1109 37.1467L31.2951 38.0094L30.8383 36.6139L32.0225 35.7511H30.5677L30.4154 35.2944ZM34.7968 33.0953L35.9809 32.2325H34.5261L34.0693 30.8369L33.6295 32.2325H32.1747L33.342 33.0953L32.9021 34.4909L34.0693 33.6281L35.2535 34.4909L34.7968 33.0953ZM31.0836 30.5324L30.8383 29.7458L32.0225 28.8662H30.5677L30.1109 27.4706L29.6711 28.8662H28.2163L29.3835 29.7458C29.2736 30.0926 29.0452 30.8031 28.9437 31.1414C29.189 30.9554 29.8657 30.4309 30.1109 30.2618C30.3478 30.4309 31.0498 30.9554 31.2951 31.1414L31.0836 30.5324ZM30.0517 20.7717L29.6711 22.0151H28.1994L29.3835 22.8778L28.9268 24.2734L30.1109 23.4107L31.2951 24.2734L30.8383 22.8778L32.0225 22.0151H30.5677L30.1617 20.7717H30.0517ZM22.1349 20.7717L22.0757 20.6026C22.0503 20.6702 21.6697 21.8967 21.6359 21.9982H20.1811L21.3483 22.8609L20.9085 24.2565L22.0757 23.3938L23.2598 24.2565L22.82 22.8609L23.9872 21.9982H22.5324L22.1349 20.7717ZM14.1166 20.7717L14.0574 20.6026C14.032 20.6702 13.6344 21.8967 13.6006 21.9982H12.1458L13.33 22.8609L12.8732 24.2565L14.0574 23.3938L15.2246 24.2565L14.7848 22.8609L15.952 21.9982H14.4972L14.1166 20.7717ZM13.33 29.7458C13.22 30.0926 12.9916 30.8031 12.8732 31.1414C13.1185 30.9554 13.8205 30.4394 14.0574 30.2618C14.2942 30.4309 14.9793 30.9554 15.2246 31.1414C15.1231 30.8031 14.8947 30.0842 14.7848 29.7458L15.952 28.8662H14.4972L14.0574 27.4706L13.6006 28.8662H12.1458L13.33 29.7458ZM8.069 32.2325L9.25314 33.0953L8.79639 34.4909L9.98053 33.6281L11.1647 34.4909L10.7079 33.0953L11.8921 32.2325H10.4373L9.98053 30.8369L9.54071 32.2325H8.069ZM13.7529 35.2944L13.6006 35.7511H12.1458L13.33 36.6139L12.8732 38.0094L14.0574 37.1467L15.2246 38.0094L14.7848 36.6139L15.952 35.7511H14.4972C14.4211 35.4551 14.1589 34.6346 14.0574 34.3386L13.7529 35.2944ZM4.11057 42.6191L5.29473 43.4819L4.83798 44.8775L6.02212 44.0147L7.20626 44.8775L6.74953 43.4819L7.93367 42.6191H6.46196L6.02212 41.2235L5.56537 42.6191H4.11057ZM8.069 45.9686L9.25314 46.8313L8.79639 48.2269L9.98053 47.3642L11.1647 48.2269L10.7079 46.8313L11.8921 45.9686H10.4373C10.3358 45.6472 10.0905 44.8775 9.98053 44.573C9.88749 44.8859 9.64221 45.6556 9.54071 45.9686H8.069ZM42.3753 45.072L42.223 44.573C42.1131 44.8775 41.8678 45.6472 41.7663 45.9686H40.3115L41.4956 46.8313L41.0389 48.2269L42.223 47.3642L43.3902 48.2269L42.9504 46.8313L44.1176 45.9686H42.6628L42.3753 45.072ZM43.0435 40.2931L42.9504 39.9717L44.1176 39.109H42.6628L42.223 37.7134L41.7663 39.109H40.3115L41.4956 39.9717C41.411 40.1832 41.115 41.1305 41.0389 41.3673L42.223 40.5046L43.3902 41.3673L43.0435 40.2931ZM38.4507 35.2944L38.1462 34.3386C38.0447 34.6431 37.7825 35.4551 37.7063 35.7511H36.2346L37.4188 36.6139L36.962 38.0094L38.1462 37.1467L39.3303 38.0094L38.8736 36.6139L40.0577 35.7511H38.6029L38.4507 35.2944ZM42.9504 33.0953L44.1176 32.2325H42.6628L42.223 30.8369L41.7663 32.2325H40.3115L41.4956 33.0953L41.0389 34.4909L42.223 33.6281L43.3902 34.4909L42.9504 33.0953ZM39.1189 30.5324L38.8736 29.7458L40.0577 28.8662H38.6029L38.1462 27.4706L37.7063 28.8662H36.2346L37.4188 29.7458C37.3088 30.0926 37.0805 30.8031 36.962 31.1414C37.2073 30.9554 37.9094 30.4394 38.1462 30.2618C38.383 30.4309 39.085 30.9554 39.3303 31.1414L39.1189 30.5324ZM42.9504 26.2272C43.1196 26.1004 43.9654 25.4829 44.1176 25.3645H42.6628L42.2061 23.9689L41.7663 25.3645H40.3115C40.4553 25.4745 41.3095 26.1004 41.4787 26.2272L41.0389 27.6228L42.2061 26.7601L43.3902 27.6228L42.9504 26.2272ZM38.2054 20.7717H38.087L37.6894 22.0151H36.2346L37.4188 22.8778L36.962 24.2734L38.1462 23.4107L39.3134 24.2734L38.8736 22.8778L40.0408 22.0151H38.586L38.2054 20.7717ZM42.9504 19.3592L44.1176 18.4965H42.6628L42.2061 17.1009L41.7663 18.4965H40.3115L41.4787 19.3592L41.0389 20.7548L42.2061 19.8921L43.3902 20.7548L42.9504 19.3592ZM2.7911 19.3592L3.95833 18.4796H2.50353L2.06371 17.084L1.60696 18.4796H0.152162L1.3363 19.3592L0.879576 20.7548L2.06371 19.8752L3.23094 20.7548L2.7911 19.3592ZM5.97137 20.7717L5.56537 21.9982H4.11057L5.29473 22.8609L4.83798 24.2565L6.02212 23.3938L7.20626 24.2565L6.74953 22.8609L7.93367 21.9982H6.46196C6.42813 21.8882 6.04749 20.6702 6.02212 20.6026L5.97137 20.7717ZM0.380549 25.5421L1.3363 26.2272L0.879576 27.6228L2.06371 26.7601L3.23094 27.6228L2.7911 26.2272C2.96026 26.1004 3.80608 25.4829 3.95833 25.3645H2.50353L2.06371 23.952L1.60696 25.3645H0.152162L0.380549 25.5421ZM5.29473 29.7458C5.18478 30.0926 4.9564 30.8031 4.83798 31.1414C5.08327 30.9554 5.78529 30.4394 6.02212 30.2618C6.25895 30.4309 6.96097 30.9554 7.20626 31.1414C7.08784 30.8031 6.85103 30.0926 6.74953 29.7458L7.93367 28.8662H6.46196L6.02212 27.4706L5.56537 28.8662H4.11057L5.29473 29.7458ZM2.7911 33.0953L3.95833 32.2325H2.50353L2.06371 30.8369L1.60696 32.2325H0.152162L1.3363 33.0953L0.879576 34.4909L2.06371 33.6281L3.23094 34.4909L2.7911 33.0953ZM5.71764 35.2944L5.56537 35.7511H4.11057L5.29473 36.6139L4.83798 38.0094L6.02212 37.1467L7.20626 38.0094L6.74953 36.6139L7.93367 35.7511H6.46196C6.38584 35.4551 6.12362 34.6346 6.02212 34.3386L5.71764 35.2944ZM1.3363 39.9633C1.25172 40.1747 0.9557 41.122 0.879576 41.3589L2.06371 40.4961L3.23094 41.3589C3.15482 41.122 2.85031 40.1832 2.7911 39.9633L3.95833 39.1006H2.50353L2.06371 37.705L1.60696 39.1006H0.152162L1.3363 39.9633ZM1.89454 45.072L1.60696 45.9686H0.152162L1.3363 46.8313L0.879576 48.2269L2.06371 47.3642L3.23094 48.2269L2.7911 46.8313L3.95833 45.9686H2.50353C2.40203 45.6472 2.15675 44.8859 2.06371 44.573L1.89454 45.072Z" fill="white"/>
</g>
</svg>
