<svg width="96" height="96" viewBox="0 0 96 96" fill="none" xmlns="http://www.w3.org/2000/svg">
<path d="M96 47.0273C95.9154 42.5445 95.1542 38.0617 93.8855 33.748C87.6264 13.6176 69.1877 0 48.0423 0C26.8123 0 8.37357 13.6176 2.11454 33.748C0.845815 38.0617 0.0845815 42.5445 0 47.0273C0 47.4502 0 47.7885 0 48.2115C0 52.948 0.761234 57.6846 2.11454 62.1674C3.55242 66.904 5.75154 71.3868 8.62731 75.4467C17.593 88.3031 32.3101 96 47.9577 96C63.6053 96 78.3225 88.3031 87.2881 75.4467C90.1639 71.3868 92.2784 66.904 93.8009 62.1674C95.2388 57.6846 95.9154 52.948 95.9154 48.2115C96 47.8731 96 47.4502 96 47.0273ZM12.1797 64.1128C12.5181 64.1128 12.6026 63.7744 12.6026 63.1824C12.6026 62.0828 12.4335 61.6599 11.0802 60.3912C9.21938 58.6996 8.37357 57.7692 8.37357 55.57C8.37357 53.1172 9.30396 51.2564 12.2643 51.2564C15.4784 51.2564 16.0705 53.2018 16.0705 55.3163V56.2467H12.8564V55.0626C12.8564 54.3013 12.6872 54.0476 12.3489 54.0476C12.0952 54.0476 11.926 54.3013 11.926 54.978C11.926 55.7392 12.0952 56.0775 13.1947 57.0925C15.3093 58.9533 16.2396 59.8837 16.2396 62.3366C16.2396 65.1278 15.3938 66.904 12.1797 66.904C9.30396 66.904 8.20441 65.2969 8.20441 62.5903V61.7445H11.6722V63.0132C11.6722 63.859 11.8414 64.1128 12.1797 64.1128ZM41.7833 46.6044L37.3004 40.6837C37.2159 40.7683 37.0467 40.7683 36.9621 40.8529C36.793 40.9374 36.5392 40.8529 36.4546 40.6837C36.37 40.5145 36.4546 40.2608 36.6238 40.1762C38.5692 39.2458 40.6837 39.2458 42.4599 40.0916C42.2062 38.8229 42.3753 37.5542 42.8828 36.37C42.9674 36.2009 43.052 36.1163 43.2211 36.1163L43.5595 36.9621V37.0467C43.6441 37.2159 43.8132 37.3004 43.9824 37.3004C44.2361 37.3004 44.4053 37.0467 44.3207 36.8775L44.2361 35.6934C44.2361 35.6088 44.2361 35.6088 44.2361 35.5242L44.1515 35.2705L43.8132 34.6784C43.8132 34.6784 43.8132 34.5938 43.8978 34.5938C44.2361 34.1709 44.659 33.748 45.1665 33.4097C46.4352 32.4793 47.8731 31.9718 49.311 31.9718C49.6493 31.9718 49.9877 31.9718 50.4106 32.0564C51.0872 32.141 51.7639 32.3101 52.3559 32.6485C52.0176 30.7031 52.6097 28.6731 54.0476 27.0661C54.1322 26.9815 54.3013 26.8969 54.3859 26.8969C54.4705 26.8969 54.5551 26.9815 54.6396 27.0661C54.7242 27.2352 54.7242 27.4044 54.6396 27.5736C54.5551 27.6581 54.4705 27.7427 54.3859 27.8273L58.8687 33.748C58.8687 33.8326 58.9533 33.8326 58.9533 33.9172C59.1225 33.8326 59.207 33.8326 59.3762 33.748C59.5454 33.6634 59.7145 33.748 59.8837 33.8326L59.9683 33.9172C60.0529 34.0863 59.9683 34.3401 59.7991 34.4247C57.8537 35.3551 55.6546 35.3551 53.8784 34.4247C54.3013 36.793 53.2863 39.415 51.1718 41.022C49.0573 42.6291 46.1815 42.9674 44.067 41.7833C44.4053 43.4749 43.9824 45.4203 42.7982 46.9427C42.6291 47.1119 42.5445 47.2811 42.3753 47.4502L42.2907 47.5348C42.1216 47.704 41.8678 47.6194 41.6987 47.4502C41.6141 47.2811 41.6141 47.1119 41.6987 46.9427C41.7833 46.8582 41.8678 46.689 41.9524 46.6044C41.8678 46.689 41.7833 46.689 41.7833 46.6044ZM39.8379 25.459L40.3454 26.5586L40.43 26.8123C40.5145 26.8123 40.5991 26.8123 40.7683 26.8123C40.8529 26.8123 41.022 26.8123 41.1066 26.8969C41.1912 26.9815 41.3604 27.0661 41.4449 27.2352L41.6987 27.8273L41.1912 27.9965L41.3604 28.3348L41.8678 28.1656L42.1216 28.7577L41.2758 29.096L41.4449 29.4344L42.2907 29.096L42.5445 29.8573L42.037 30.0264L42.2062 30.4493L42.7137 30.2802L42.9674 30.8722L42.1216 31.2106L42.2907 31.6335L43.1366 31.2952C43.1366 31.3797 43.1366 31.5489 43.1366 31.6335C43.052 31.8026 43.052 31.8872 42.9674 31.9718C42.8828 32.0564 42.7982 32.141 42.7137 32.141L42.8828 32.5639C42.9674 32.733 42.9674 32.9022 42.8828 33.0714L44.067 35.778L44.1515 36.9621L42.2907 33.0714C42.1216 33.0714 42.037 32.9868 41.9524 32.8176L41.7833 32.3947C41.6141 32.3947 41.5295 32.4793 41.3604 32.3947C41.2758 32.3947 41.1066 32.3947 41.022 32.3101C40.9374 32.2256 40.7683 32.141 40.6837 31.9718L39.0767 28.0811C38.9921 27.9119 39.0767 27.7427 39.0767 27.5736C39.1612 27.489 39.1612 27.3198 39.2458 27.2352C39.3304 27.1507 39.415 27.0661 39.5841 26.9815L39.4996 26.8123L39.0767 25.7128L38.7383 25.8819C38.5692 25.9665 38.3154 25.8819 38.1463 25.7128C38.0617 25.5436 38.1463 25.2899 38.3154 25.1207L39.7533 24.5286C39.8379 24.5286 39.9225 24.4441 40.007 24.4441C40.1762 24.4441 40.2608 24.5286 40.3454 24.6978C40.43 24.867 40.3454 25.1207 40.1762 25.2053L39.8379 25.459ZM79.2529 58.1921H79.422C79.5912 56.0775 79.6758 54.6397 80.0141 51.5101H85.1736V66.7348H81.6211V63.0132C81.6211 60.9833 81.6211 57.5154 81.7057 55.4855H81.5366C81.2828 59.2071 80.7753 65.6352 80.6908 66.7348H78.0687C77.9841 65.2969 77.7304 62.1674 77.5612 59.3762C77.4767 57.8537 77.3075 56.5004 77.2229 55.4855H77.0537C77.0537 56.7542 77.1383 58.5304 77.1383 60.4758C77.1383 61.3216 77.1383 62.1674 77.1383 63.0132V66.8194H73.8397V66.3965V51.5101H78.6608C78.7454 52.1022 78.83 53.1172 78.9145 54.1322C79.0837 55.57 79.1683 57.0925 79.2529 58.1921ZM33.6634 52.0176V51.4256H37.0467V66.6502H32.9868C32.8176 65.3815 31.7181 58.3612 31.6335 57.8537H31.4643C31.5489 59.5454 31.8872 64.5357 31.8872 66.3119V66.6502H28.6731V51.4256H32.4793C32.8176 53.1172 34.0018 59.0379 34.0863 59.7145H34.2555C34.0018 57.3463 33.6634 53.4555 33.6634 52.0176ZM32.0564 75.193V74.6009C31.7181 74.6009 31.5489 74.5163 31.2952 74.5163V72.5709C31.8872 72.4864 32.4793 72.2326 32.733 71.8097H34.8476V76.6308V83.7357H32.0564V75.193ZM36.5392 77.3921V74.9392C36.5392 72.4863 37.9771 71.6405 39.7533 71.6405C41.6141 71.6405 43.1366 72.4863 43.1366 74.9392V79.1683V80.5216C43.1366 82.7207 42.1216 83.9048 39.7533 83.9048C37.3004 83.9048 36.5392 82.467 36.5392 80.5216V77.3921ZM42.9674 64.1128C43.3057 64.1128 43.3903 63.7744 43.3903 63.1824C43.3903 62.0828 43.2211 61.6599 41.8678 60.3912C40.007 58.6996 39.1612 57.7692 39.1612 55.57C39.1612 53.1172 40.0916 51.2564 43.052 51.2564C46.2661 51.2564 46.8582 53.2018 46.8582 55.3163V56.2467H43.6441V55.0626C43.6441 54.3013 43.4749 54.0476 43.1366 54.0476C42.8828 54.0476 42.7137 54.3013 42.7137 54.978C42.7137 55.7392 42.8828 56.0775 43.9824 57.0925C46.0969 58.9533 47.0273 59.8837 47.0273 62.3366C47.0273 65.1278 46.1815 66.904 42.9674 66.904C40.0916 66.904 38.9921 65.2969 38.9921 62.5903V61.7445H42.4599V63.0132C42.4599 63.859 42.6291 64.1128 42.9674 64.1128ZM44.5745 79.3374V74.9392C44.5745 72.4863 46.0123 71.6405 47.7885 71.6405C49.6493 71.6405 51.1718 72.4863 51.1718 74.9392V79.422V80.5216C51.1718 82.7207 50.1568 83.9048 47.7885 83.9048C45.3357 83.9048 44.5745 82.467 44.5745 80.5216V79.3374ZM71.5559 56.4159H67.8344V55.2317C67.8344 54.4705 67.8344 54.0476 67.3269 54.0476C66.904 54.0476 66.8194 54.3859 66.8194 55.2317V63.0978C66.8194 63.9436 67.1577 64.0282 67.3269 64.0282C67.6652 64.0282 67.9189 63.7745 67.9189 62.9286V60.7295H67.3269V57.7692H71.5559V66.7348H68.9339C68.8493 66.4811 68.8493 65.889 68.7648 65.5507C68.1727 66.8194 67.0731 66.9885 66.1427 66.9885C63.6053 66.9885 63.0978 64.9586 63.0978 62.7595V55.3163C63.0978 53.2863 64.1128 51.2564 67.2423 51.2564C71.0485 51.2564 71.4714 53.963 71.4714 55.4009V56.4159H71.5559ZM61.9982 79.7604V81.5366C61.9982 82.9745 61.3216 83.8203 59.8837 83.8203C58.4458 83.8203 57.7692 82.9744 57.7692 81.6211V79.7604C57.7692 78.7454 58.1921 77.6458 59.8837 77.6458C61.4062 77.6458 61.9982 78.6608 61.9982 79.7604ZM61.0678 62.6749C61.0678 65.8044 59.3762 66.904 56.7542 66.904C54.2167 66.904 52.6943 65.7198 52.6943 62.6749V55.2317C52.6943 52.4405 54.4705 51.1718 56.8388 51.1718C59.2916 51.1718 61.0678 52.4405 61.0678 55.4009V62.6749ZM54.7242 71.9789C56.2467 71.9789 56.8388 72.9938 56.8388 74.0934V75.8696C56.8388 77.3075 56.1621 78.1533 54.7242 78.1533C53.2863 78.1533 52.6097 77.3921 52.6097 75.9542V74.0934C52.6097 72.9938 53.0326 71.9789 54.7242 71.9789ZM59.2916 72.148H60.5604L57.9383 77.8996L55.3163 83.7357H54.0476L56.5004 78.3225L59.2916 72.148ZM19.4537 51.5101H25.2053L26.8123 66.7348H23.0907L22.837 63.5207H21.6529L21.5683 65.2123L21.4837 66.7348H17.7621L18.5233 59.3762L19.4537 51.5101ZM3.80617 34.2555C9.81145 14.8018 27.5736 1.69163 48.0423 1.69163C68.4264 1.69163 86.2731 14.8018 92.2784 34.3401C93.5471 38.4846 94.2238 42.7137 94.3084 47.1119H79.5066C78.9991 30.111 65.1278 16.578 48.0423 16.578C30.9568 16.578 17.0009 30.111 16.4934 47.0273H1.69163C1.77621 42.7137 2.45286 38.4 3.80617 34.2555Z" fill="white"/>
<path d="M11.4185 37.7237L10.1498 37.3854L9.72684 39.3307L8.5427 39.077L9.13477 36.7933L7.78147 36.455L6.85107 40.3457L12.7718 41.699L13.1101 40.1765L10.9956 39.6691L11.4185 37.7237Z" fill="white"/>
<path d="M8.6272 34.0023L13.6175 37.893L14.2096 36.3706L13.11 35.6093L13.7021 34.0023L14.9708 34.1714L15.5629 32.5644L9.30385 32.1415L8.6272 34.0023ZM10.0651 33.4948C10.6572 33.5794 11.4184 33.6639 12.0105 33.7485L12.4334 33.8331L12.0105 34.8481L11.6721 34.6789C11.2492 34.3406 10.5726 33.9177 10.0651 33.4948Z" fill="white"/>
<path d="M11.4185 27.827L10.6572 29.1803L16.0704 32.056L16.7471 30.6182L11.4185 27.827Z" fill="white"/>
<path d="M14.2098 25.7125L18.1005 28.4192L19.0309 27.0658L15.1402 24.4438L16.0706 23.0905L14.971 22.3293L12.2644 26.3046L13.364 27.0658L14.2098 25.7125Z" fill="white"/>
<path d="M22.5832 22.8375L21.9066 21.7379L23.1753 20.5538L24.2749 21.315L25.459 20.1309L19.9612 17.0013L18.6079 18.3546L21.3991 24.0216L22.5832 22.8375ZM21.0608 20.2154C20.807 19.708 20.3841 19.0313 20.0458 18.5238C20.5533 18.8621 21.2299 19.285 21.6528 19.6234L21.9912 19.8771L21.1454 20.6383L21.0608 20.2154Z" fill="white"/>
<path d="M28.3348 18.1849L26.3048 12.1796L24.9515 13.11L25.9665 15.6475C26.2203 16.2395 26.474 16.8316 26.7277 17.5083C26.2203 17.0854 25.7974 16.6624 25.2899 16.155L23.1753 14.3787L21.822 15.3091L26.7277 19.1999L28.3348 18.1849Z" fill="white"/>
<path d="M33.9172 15.0559L33.3252 13.8718L31.2106 14.9713L30.7031 14.041L32.4793 13.1106L31.8873 11.9264L30.1111 12.7722L29.6882 11.9264L31.8027 10.9114L31.2106 9.72729L27.6582 11.5035L30.3648 16.8321L33.9172 15.0559Z" fill="white"/>
<path d="M37.6389 13.9558C38.3155 13.702 38.9076 13.1945 39.2459 12.5179L38.1464 11.8412C37.9772 12.1796 37.7234 12.5179 37.3005 12.6025C36.5393 12.8562 35.8627 12.4333 35.5243 11.3337C35.186 10.3188 35.6089 9.47295 36.2856 9.30379C36.6239 9.21921 36.9622 9.21921 37.3005 9.38837L37.808 8.20423C37.3005 7.95048 36.5393 7.78132 35.7781 8.03507C34.2556 8.54256 33.3252 10.065 33.9173 12.0104C34.5939 13.8712 36.1164 14.3787 37.6389 13.9558Z" fill="white"/>
<path d="M44.067 12.5185L43.3058 6.51318L41.6987 6.68235L42.5445 12.6876L44.067 12.5185Z" fill="white"/>
<path d="M47.0273 12.2646V10.4883C47.0273 9.7271 46.8582 8.88129 46.7736 8.20464L47.3657 9.55794L48.719 12.2646H50.326V6.17468H48.8036V7.95089C48.8036 8.71213 48.9727 9.55794 49.0573 10.2346L48.4652 8.88129L47.1119 6.17468H45.5049V12.2646H47.0273Z" fill="white"/>
<path d="M54.4704 12.941C55.3163 13.1102 56.1621 12.8564 56.6696 12.5181L57.177 9.64231L54.8933 9.2194L54.7242 10.4881L55.57 10.6573L55.4008 11.5031C55.3163 11.5877 55.0625 11.5877 54.8933 11.5031C53.7938 11.3339 53.4555 10.5727 53.6246 9.47315C53.7938 8.37359 54.555 7.8661 55.3163 7.95068C55.8237 8.03526 55.9929 8.20443 56.2467 8.54275L57.2616 7.69694C56.9233 7.18945 56.3312 6.76654 55.4854 6.59738C53.8784 6.34363 52.2713 7.18945 51.933 9.2194C51.6793 11.5031 52.8634 12.6872 54.4704 12.941Z" fill="white"/>
<path d="M59.8837 12.1797L60.4758 12.3489L60.8141 14.6326L62.5057 15.2247L62.0828 12.6027C62.7595 12.5181 63.2669 12.0952 63.6053 11.2493C64.1128 9.81146 63.1824 9.05023 61.9982 8.62732L59.8837 7.86609L57.6846 13.533L59.207 14.0405L59.8837 12.1797ZM60.8141 9.55772L61.3216 9.72688C61.9136 9.89604 62.1674 10.2344 61.9982 10.6573C61.8291 11.1648 61.4062 11.3339 60.8141 11.0802L60.3066 10.9956L60.8141 9.55772Z" fill="white"/>
<path d="M66.7347 17.5088L67.4113 16.3247L65.2968 15.2251L65.8043 14.2947L67.4959 15.2251L68.1726 14.041L66.3964 13.1106L66.9038 12.2648L68.9338 13.3643L69.5259 12.1802L66.1426 10.3194L63.2668 15.648L66.7347 17.5088Z" fill="white"/>
<path d="M70.118 10.657L68.5955 9.81116L67.4114 10.4878L68.5109 11.0799L70.118 10.657Z" fill="white"/>
<path d="M69.2722 19.2845C70.7101 20.2995 72.2326 20.3841 73.5013 18.6925C74.77 17.0008 74.3471 15.5629 72.8246 14.4634L71.3868 13.3638L67.7498 18.185L69.2722 19.2845ZM71.9788 15.3092C72.7401 15.9013 73.0784 16.5779 72.2326 17.6775C71.3868 18.777 70.6255 18.6925 69.9489 18.1004L69.8643 18.0158L71.9788 15.3092Z" fill="white"/>
<path d="M76.7759 17.693L72.5039 22.0332L73.6492 23.1605L77.9213 18.8203L76.7759 17.693Z" fill="white"/>
<path d="M77.1384 27.2353L78.238 26.3895L76.7155 24.5287L77.5613 23.8521L78.7455 25.3745L79.845 24.6133L78.5763 23.0062L79.3375 22.4142L80.7754 24.1904L81.7904 23.4292L79.3375 20.3842L74.6855 24.1904L77.1384 27.2353Z" fill="white"/>
<path d="M78.6608 29.6035L80.1833 28.7576C80.8599 28.4193 81.5366 27.8272 82.044 27.4043L81.1982 28.5885L79.5066 31.1259L80.3524 32.5638L85.5965 29.6035L84.8352 28.2501L83.3128 29.096C82.6361 29.4343 81.9595 30.0264 81.452 30.4493L82.3824 29.2651L84.074 26.7277L83.2282 25.2898L77.9841 28.2501L78.6608 29.6035Z" fill="white"/>
<path d="M85.681 33.2401L81.2827 34.8472L81.7902 36.3696L86.1884 34.7626L86.7805 36.2005L88.0492 35.7776L86.3576 31.2947L85.0889 31.7176L85.681 33.2401Z" fill="white"/>
<path d="M86.696 37.5543C85.8501 37.7234 85.4272 38.4001 85.3427 39.0767L85.1735 39.838C85.0889 40.3454 85.0889 40.6838 84.7506 40.7684C84.4968 40.8529 84.3277 40.6838 84.1585 40.1763C84.0739 39.7534 84.1585 39.1613 84.4123 38.6538L83.2281 38.0617C82.8052 38.823 82.7206 39.7534 82.8898 40.5146C83.2281 41.9525 84.2431 42.6291 85.2581 42.3754C86.1039 42.2062 86.5268 41.6988 86.6114 40.8529L86.696 40.0917C86.7805 39.4996 86.8651 39.1613 87.1189 39.0767C87.3726 38.9921 87.5418 39.2459 87.6264 39.5842C87.7109 40.0071 87.6264 40.43 87.4572 40.8529L88.5567 41.445C88.9797 40.7684 89.0642 40.0071 88.8951 39.3305C88.7259 38.0617 87.7109 37.3851 86.696 37.5543Z" fill="white"/>
<path d="M50.4952 40.43C50.5797 40.3454 50.6643 40.2608 50.8335 40.1762L46.0123 33.748C45.9278 33.8326 45.7586 33.9172 45.674 34.0018C45.5894 34.0864 45.5049 34.171 45.3357 34.2555L50.1568 40.6837C50.326 40.5991 50.4106 40.5146 50.4952 40.43Z" fill="white"/>
<path d="M48.2114 41.5298C48.4652 41.4453 48.7189 41.3607 49.0573 41.2761C49.0573 41.2761 49.0573 41.1915 48.9727 41.1915L45.5894 36.6241C45.5048 36.5395 45.4203 36.455 45.3357 36.455C45.2511 36.455 45.0819 36.455 44.9973 36.5395C44.8282 36.7087 44.7436 36.9624 44.9128 37.1316L48.2114 41.5298Z" fill="white"/>
<path d="M46.8581 41.7832L43.3902 37.2158C43.3056 37.5541 43.2211 37.8925 43.1365 38.3154L45.6739 41.6986C46.0968 41.6986 46.5197 41.7832 46.8581 41.7832Z" fill="white"/>
<path d="M42.7982 41.2755C42.7982 41.1909 42.7982 41.1909 42.7982 41.2755C42.1216 40.768 41.3604 40.4297 40.5991 40.3451L43.1366 43.7284C43.2211 42.798 43.1366 42.0367 42.7982 41.2755Z" fill="white"/>
<path d="M42.9674 44.744L39.5841 40.2612C39.1612 40.2612 38.6537 40.3458 38.1462 40.4303L42.3753 46.0127C42.6291 45.5898 42.7982 45.1669 42.9674 44.744Z" fill="white"/>
<path d="M51.5946 39.2462C51.6792 39.2462 51.6792 39.2462 51.5946 39.2462C51.8484 39.0771 52.0175 38.9079 52.1867 38.6541L47.9576 32.9872C47.7039 33.0718 47.4501 33.1563 47.1118 33.2409C47.1118 33.2409 47.1118 33.3255 47.1964 33.3255L51.5946 39.2462Z" fill="white"/>
<path d="M53.3709 33.3255C54.0476 33.833 54.8088 34.1713 55.6546 34.3405L53.1172 30.9572C52.948 31.7184 53.1172 32.4797 53.3709 33.3255Z" fill="white"/>
<path d="M56.7541 34.3403C57.177 34.3403 57.6845 34.2558 58.192 34.1712L53.9629 28.5888C53.7092 29.0117 53.54 29.4346 53.3708 29.8575L56.7541 34.3403Z" fill="white"/>
<path d="M52.948 36.2014L50.4106 32.8181C50.326 32.8181 50.2414 32.8181 50.1569 32.8181C49.9031 32.7335 49.5648 32.7335 49.311 32.7335L52.7789 37.3009C52.8635 36.9626 52.948 36.5397 52.948 36.2014Z" fill="white"/>
<path d="M59.6299 79.6754V81.7899C59.6299 82.1283 59.7145 82.2974 59.8836 82.2974C60.0528 82.2974 60.1374 82.2129 60.1374 81.7899V79.76C60.1374 79.4217 60.0528 79.3371 59.8836 79.3371C59.7145 79.2525 59.6299 79.3371 59.6299 79.6754Z" fill="white"/>
<path d="M39.7532 81.7053C40.0916 81.7053 40.1761 81.4516 40.1761 80.9441V78.4912V74.4313C40.1761 74.0084 40.0916 73.7546 39.7532 73.7546C39.4149 73.7546 39.3303 74.0084 39.3303 74.4313V78.2375V80.9441C39.3303 81.4516 39.4149 81.7053 39.7532 81.7053Z" fill="white"/>
<path d="M47.7886 81.7056C48.127 81.7056 48.2115 81.4518 48.2115 80.9443V79.5064V74.5161C48.2115 74.0932 48.127 73.8395 47.7886 73.8395C47.4503 73.8395 47.3657 74.0932 47.3657 74.5161V79.5064V81.0289C47.3657 81.4518 47.4503 81.7056 47.7886 81.7056Z" fill="white"/>
<path d="M22.3295 54.4707H22.1603C22.1603 55.1474 21.9066 58.9535 21.822 60.476H22.7524C22.6678 59.2918 22.4141 55.3165 22.3295 54.4707Z" fill="white"/>
<path d="M54.7242 76.5462C54.8934 76.5462 54.9779 76.4616 54.9779 76.0387V74.0088C54.9779 73.6705 54.8934 73.5859 54.7242 73.5859C54.555 73.5859 54.4705 73.6705 54.4705 74.0088V76.1233C54.4705 76.3771 54.555 76.5462 54.7242 76.5462Z" fill="white"/>
<path d="M56.7541 54.1323C56.4157 54.1323 56.2466 54.386 56.2466 55.0627V63.1825C56.2466 63.7746 56.4157 64.1129 56.7541 64.1129C57.0924 64.1129 57.3461 63.7746 57.3461 63.1825V54.9781C57.3461 54.3014 57.177 54.1323 56.7541 54.1323Z" fill="white"/>
</svg>
